<?xml version="1.0" encoding="utf-8" standalone="no"?>
<!DOCTYPE svg PUBLIC "-//W3C//DTD SVG 1.1//EN"
  "http://www.w3.org/Graphics/SVG/1.1/DTD/svg11.dtd">
<svg xmlns:xlink="http://www.w3.org/1999/xlink" width="792pt" height="475.2pt" viewBox="0 0 792 475.2" xmlns="http://www.w3.org/2000/svg" version="1.1">
 <metadata>
  <rdf:RDF xmlns:dc="http://purl.org/dc/elements/1.1/" xmlns:cc="http://creativecommons.org/ns#" xmlns:rdf="http://www.w3.org/1999/02/22-rdf-syntax-ns#">
   <cc:Work>
    <dc:type rdf:resource="http://purl.org/dc/dcmitype/StillImage"/>
    <dc:date>2026-04-27T17:25:18.775005</dc:date>
    <dc:format>image/svg+xml</dc:format>
    <dc:creator>
     <cc:Agent>
      <dc:title>Matplotlib v3.9.2, https://matplotlib.org/</dc:title>
     </cc:Agent>
    </dc:creator>
   </cc:Work>
  </rdf:RDF>
 </metadata>
 <defs>
  <style type="text/css">*{stroke-linejoin: round; stroke-linecap: butt}</style>
 </defs>
 <g id="figure_1">
  <g id="patch_1">
   <path d="M 0 475.2 
L 792 475.2 
L 792 0 
L 0 0 
z
" style="fill: #ffffff"/>
  </g>
  <g id="axes_1">
   <g id="patch_2">
    <path d="M 142.56 413.424 
L 760.32 413.424 
L 760.32 104.544 
L 142.56 104.544 
z
" style="fill: #ffffff"/>
   </g>
   <g id="matplotlib.axis_1">
    <g id="xtick_1">
     <g id="line2d_1">
      <path d="M 142.56 413.424 
L 142.56 104.544 
" clip-path="url(#p0a1a86677d)" style="fill: none; stroke: #e5e7eb; stroke-width: 0.6; stroke-linecap: square"/>
     </g>
     <g id="line2d_2">
      <defs>
       <path id="m135e129999" d="M 0 0 
L 0 3.5 
" style="stroke: #1a1a1a; stroke-width: 0.8"/>
      </defs>
      <g>
       <use xlink:href="#m135e129999" x="142.56" y="413.424" style="fill: #1a1a1a; stroke: #1a1a1a; stroke-width: 0.8"/>
      </g>
     </g>
     <g id="text_1">
      <!-- 0 -->
      <g style="fill: #1a1a1a" transform="translate(140.057578 426.880094) scale(0.09 -0.09)">
       <defs>
        <path id="Helvetica-30" d="M 1731 4475 
Q 2600 4475 2988 3759 
Q 3288 3206 3288 2244 
Q 3288 1331 3016 734 
Q 2622 -122 1728 -122 
Q 922 -122 528 578 
Q 200 1163 200 2147 
Q 200 2909 397 3456 
Q 766 4475 1731 4475 
z
M 1725 391 
Q 2163 391 2422 778 
Q 2681 1166 2681 2222 
Q 2681 2984 2493 3476 
Q 2306 3969 1766 3969 
Q 1269 3969 1039 3501 
Q 809 3034 809 2125 
Q 809 1441 956 1025 
Q 1181 391 1725 391 
z
" transform="scale(0.015625)"/>
       </defs>
       <use xlink:href="#Helvetica-30"/>
      </g>
     </g>
    </g>
    <g id="xtick_2">
     <g id="line2d_3">
      <path d="M 212.76 413.424 
L 212.76 104.544 
" clip-path="url(#p0a1a86677d)" style="fill: none; stroke: #e5e7eb; stroke-width: 0.6; stroke-linecap: square"/>
     </g>
     <g id="line2d_4">
      <g>
       <use xlink:href="#m135e129999" x="212.76" y="413.424" style="fill: #1a1a1a; stroke: #1a1a1a; stroke-width: 0.8"/>
      </g>
     </g>
     <g id="text_2">
      <!-- 10 -->
      <g style="fill: #1a1a1a" transform="translate(207.755156 426.880094) scale(0.09 -0.09)">
       <defs>
        <path id="Helvetica-31" d="M 613 3169 
L 613 3600 
Q 1222 3659 1462 3798 
Q 1703 3938 1822 4456 
L 2266 4456 
L 2266 0 
L 1666 0 
L 1666 3169 
L 613 3169 
z
" transform="scale(0.015625)"/>
       </defs>
       <use xlink:href="#Helvetica-31"/>
       <use xlink:href="#Helvetica-30" x="55.615234"/>
      </g>
     </g>
    </g>
    <g id="xtick_3">
     <g id="line2d_5">
      <path d="M 282.96 413.424 
L 282.96 104.544 
" clip-path="url(#p0a1a86677d)" style="fill: none; stroke: #e5e7eb; stroke-width: 0.6; stroke-linecap: square"/>
     </g>
     <g id="line2d_6">
      <g>
       <use xlink:href="#m135e129999" x="282.96" y="413.424" style="fill: #1a1a1a; stroke: #1a1a1a; stroke-width: 0.8"/>
      </g>
     </g>
     <g id="text_3">
      <!-- 20 -->
      <g style="fill: #1a1a1a" transform="translate(277.955156 426.880094) scale(0.09 -0.09)">
       <defs>
        <path id="Helvetica-32" d="M 200 0 
Q 231 578 439 1006 
Q 647 1434 1250 1784 
L 1850 2131 
Q 2253 2366 2416 2531 
Q 2672 2791 2672 3125 
Q 2672 3516 2437 3745 
Q 2203 3975 1813 3975 
Q 1234 3975 1013 3538 
Q 894 3303 881 2888 
L 309 2888 
Q 319 3472 525 3841 
Q 891 4491 1816 4491 
Q 2584 4491 2939 4075 
Q 3294 3659 3294 3150 
Q 3294 2613 2916 2231 
Q 2697 2009 2131 1694 
L 1703 1456 
Q 1397 1288 1222 1134 
Q 909 863 828 531 
L 3272 531 
L 3272 0 
L 200 0 
z
" transform="scale(0.015625)"/>
       </defs>
       <use xlink:href="#Helvetica-32"/>
       <use xlink:href="#Helvetica-30" x="55.615234"/>
      </g>
     </g>
    </g>
    <g id="xtick_4">
     <g id="line2d_7">
      <path d="M 353.16 413.424 
L 353.16 104.544 
" clip-path="url(#p0a1a86677d)" style="fill: none; stroke: #e5e7eb; stroke-width: 0.6; stroke-linecap: square"/>
     </g>
     <g id="line2d_8">
      <g>
       <use xlink:href="#m135e129999" x="353.16" y="413.424" style="fill: #1a1a1a; stroke: #1a1a1a; stroke-width: 0.8"/>
      </g>
     </g>
     <g id="text_4">
      <!-- 30 -->
      <g style="fill: #1a1a1a" transform="translate(348.155156 426.880094) scale(0.09 -0.09)">
       <defs>
        <path id="Helvetica-33" d="M 1663 -122 
Q 869 -122 511 314 
Q 153 750 153 1375 
L 741 1375 
Q 778 941 903 744 
Q 1122 391 1694 391 
Q 2138 391 2406 628 
Q 2675 866 2675 1241 
Q 2675 1703 2392 1887 
Q 2109 2072 1606 2072 
Q 1550 2072 1492 2070 
Q 1434 2069 1375 2066 
L 1375 2563 
Q 1463 2553 1522 2550 
Q 1581 2547 1650 2547 
Q 1966 2547 2169 2647 
Q 2525 2822 2525 3272 
Q 2525 3606 2287 3787 
Q 2050 3969 1734 3969 
Q 1172 3969 956 3594 
Q 838 3388 822 3006 
L 266 3006 
Q 266 3506 466 3856 
Q 809 4481 1675 4481 
Q 2359 4481 2734 4176 
Q 3109 3872 3109 3294 
Q 3109 2881 2888 2625 
Q 2750 2466 2531 2375 
Q 2884 2278 3082 2001 
Q 3281 1725 3281 1325 
Q 3281 684 2859 281 
Q 2438 -122 1663 -122 
z
" transform="scale(0.015625)"/>
       </defs>
       <use xlink:href="#Helvetica-33"/>
       <use xlink:href="#Helvetica-30" x="55.615234"/>
      </g>
     </g>
    </g>
    <g id="xtick_5">
     <g id="line2d_9">
      <path d="M 423.36 413.424 
L 423.36 104.544 
" clip-path="url(#p0a1a86677d)" style="fill: none; stroke: #e5e7eb; stroke-width: 0.6; stroke-linecap: square"/>
     </g>
     <g id="line2d_10">
      <g>
       <use xlink:href="#m135e129999" x="423.36" y="413.424" style="fill: #1a1a1a; stroke: #1a1a1a; stroke-width: 0.8"/>
      </g>
     </g>
     <g id="text_5">
      <!-- 40 -->
      <g style="fill: #1a1a1a" transform="translate(418.355156 426.880094) scale(0.09 -0.09)">
       <defs>
        <path id="Helvetica-34" d="M 2116 1584 
L 2116 3613 
L 681 1584 
L 2116 1584 
z
M 2125 0 
L 2125 1094 
L 163 1094 
L 163 1644 
L 2213 4488 
L 2688 4488 
L 2688 1584 
L 3347 1584 
L 3347 1094 
L 2688 1094 
L 2688 0 
L 2125 0 
z
" transform="scale(0.015625)"/>
       </defs>
       <use xlink:href="#Helvetica-34"/>
       <use xlink:href="#Helvetica-30" x="55.615234"/>
      </g>
     </g>
    </g>
    <g id="xtick_6">
     <g id="line2d_11">
      <path d="M 493.56 413.424 
L 493.56 104.544 
" clip-path="url(#p0a1a86677d)" style="fill: none; stroke: #e5e7eb; stroke-width: 0.6; stroke-linecap: square"/>
     </g>
     <g id="line2d_12">
      <g>
       <use xlink:href="#m135e129999" x="493.56" y="413.424" style="fill: #1a1a1a; stroke: #1a1a1a; stroke-width: 0.8"/>
      </g>
     </g>
     <g id="text_6">
      <!-- 50 -->
      <g style="fill: #1a1a1a" transform="translate(488.555156 426.880094) scale(0.09 -0.09)">
       <defs>
        <path id="Helvetica-35" d="M 791 1141 
Q 847 659 1238 475 
Q 1438 381 1700 381 
Q 2200 381 2440 700 
Q 2681 1019 2681 1406 
Q 2681 1875 2395 2131 
Q 2109 2388 1709 2388 
Q 1419 2388 1211 2275 
Q 1003 2163 856 1963 
L 369 1991 
L 709 4400 
L 3034 4400 
L 3034 3856 
L 1131 3856 
L 941 2613 
Q 1097 2731 1238 2791 
Q 1488 2894 1816 2894 
Q 2431 2894 2859 2497 
Q 3288 2100 3288 1491 
Q 3288 856 2895 371 
Q 2503 -113 1644 -113 
Q 1097 -113 676 195 
Q 256 503 206 1141 
L 791 1141 
z
" transform="scale(0.015625)"/>
       </defs>
       <use xlink:href="#Helvetica-35"/>
       <use xlink:href="#Helvetica-30" x="55.615234"/>
      </g>
     </g>
    </g>
    <g id="xtick_7">
     <g id="line2d_13">
      <path d="M 563.76 413.424 
L 563.76 104.544 
" clip-path="url(#p0a1a86677d)" style="fill: none; stroke: #e5e7eb; stroke-width: 0.6; stroke-linecap: square"/>
     </g>
     <g id="line2d_14">
      <g>
       <use xlink:href="#m135e129999" x="563.76" y="413.424" style="fill: #1a1a1a; stroke: #1a1a1a; stroke-width: 0.8"/>
      </g>
     </g>
     <g id="text_7">
      <!-- 60 -->
      <g style="fill: #1a1a1a" transform="translate(558.755156 426.880094) scale(0.09 -0.09)">
       <defs>
        <path id="Helvetica-36" d="M 1872 4494 
Q 2622 4494 2917 4105 
Q 3213 3716 3213 3303 
L 2656 3303 
Q 2606 3569 2497 3719 
Q 2294 4000 1881 4000 
Q 1409 4000 1131 3564 
Q 853 3128 822 2316 
Q 1016 2600 1309 2741 
Q 1578 2866 1909 2866 
Q 2472 2866 2890 2506 
Q 3309 2147 3309 1434 
Q 3309 825 2912 354 
Q 2516 -116 1781 -116 
Q 1153 -116 697 361 
Q 241 838 241 1966 
Q 241 2800 444 3381 
Q 834 4494 1872 4494 
z
M 1831 384 
Q 2275 384 2495 682 
Q 2716 981 2716 1388 
Q 2716 1731 2519 2042 
Q 2322 2353 1803 2353 
Q 1441 2353 1167 2112 
Q 894 1872 894 1388 
Q 894 963 1142 673 
Q 1391 384 1831 384 
z
" transform="scale(0.015625)"/>
       </defs>
       <use xlink:href="#Helvetica-36"/>
       <use xlink:href="#Helvetica-30" x="55.615234"/>
      </g>
     </g>
    </g>
    <g id="xtick_8">
     <g id="line2d_15">
      <path d="M 633.96 413.424 
L 633.96 104.544 
" clip-path="url(#p0a1a86677d)" style="fill: none; stroke: #e5e7eb; stroke-width: 0.6; stroke-linecap: square"/>
     </g>
     <g id="line2d_16">
      <g>
       <use xlink:href="#m135e129999" x="633.96" y="413.424" style="fill: #1a1a1a; stroke: #1a1a1a; stroke-width: 0.8"/>
      </g>
     </g>
     <g id="text_8">
      <!-- 70 -->
      <g style="fill: #1a1a1a" transform="translate(628.955156 426.880094) scale(0.09 -0.09)">
       <defs>
        <path id="Helvetica-37" d="M 3347 4400 
L 3347 3909 
Q 3131 3700 2773 3181 
Q 2416 2663 2141 2063 
Q 1869 1478 1728 997 
Q 1638 688 1494 0 
L 872 0 
Q 1084 1281 1809 2550 
Q 2238 3294 2709 3834 
L 234 3834 
L 234 4400 
L 3347 4400 
z
" transform="scale(0.015625)"/>
       </defs>
       <use xlink:href="#Helvetica-37"/>
       <use xlink:href="#Helvetica-30" x="55.615234"/>
      </g>
     </g>
    </g>
    <g id="xtick_9">
     <g id="line2d_17">
      <path d="M 704.16 413.424 
L 704.16 104.544 
" clip-path="url(#p0a1a86677d)" style="fill: none; stroke: #e5e7eb; stroke-width: 0.6; stroke-linecap: square"/>
     </g>
     <g id="line2d_18">
      <g>
       <use xlink:href="#m135e129999" x="704.16" y="413.424" style="fill: #1a1a1a; stroke: #1a1a1a; stroke-width: 0.8"/>
      </g>
     </g>
     <g id="text_9">
      <!-- 80 -->
      <g style="fill: #1a1a1a" transform="translate(699.155156 426.880094) scale(0.09 -0.09)">
       <defs>
        <path id="Helvetica-38" d="M 1741 2600 
Q 2113 2600 2322 2808 
Q 2531 3016 2531 3303 
Q 2531 3553 2331 3762 
Q 2131 3972 1722 3972 
Q 1316 3972 1134 3762 
Q 953 3553 953 3272 
Q 953 2956 1187 2778 
Q 1422 2600 1741 2600 
z
M 1775 384 
Q 2166 384 2423 595 
Q 2681 806 2681 1225 
Q 2681 1659 2415 1884 
Q 2150 2109 1734 2109 
Q 1331 2109 1076 1879 
Q 822 1650 822 1244 
Q 822 894 1055 639 
Q 1288 384 1775 384 
z
M 975 2384 
Q 741 2484 609 2619 
Q 363 2869 363 3269 
Q 363 3769 725 4128 
Q 1088 4488 1753 4488 
Q 2397 4488 2762 4148 
Q 3128 3809 3128 3356 
Q 3128 2938 2916 2678 
Q 2797 2531 2547 2391 
Q 2825 2263 2984 2097 
Q 3281 1784 3281 1284 
Q 3281 694 2884 283 
Q 2488 -128 1763 -128 
Q 1109 -128 657 226 
Q 206 581 206 1256 
Q 206 1653 400 1942 
Q 594 2231 975 2384 
z
" transform="scale(0.015625)"/>
       </defs>
       <use xlink:href="#Helvetica-38"/>
       <use xlink:href="#Helvetica-30" x="55.615234"/>
      </g>
     </g>
    </g>
    <g id="text_10">
     <!-- Share of nonprofits (%) -->
     <g style="fill: #1a1a1a" transform="translate(400.029844 440.124781) scale(0.1 -0.1)">
      <defs>
       <path id="Helvetica-53" d="M 894 1481 
Q 916 1091 1078 847 
Q 1388 391 2169 391 
Q 2519 391 2806 491 
Q 3363 684 3363 1184 
Q 3363 1559 3128 1719 
Q 2891 1875 2384 1991 
L 1763 2131 
Q 1153 2269 900 2434 
Q 463 2722 463 3294 
Q 463 3913 891 4309 
Q 1319 4706 2103 4706 
Q 2825 4706 3329 4357 
Q 3834 4009 3834 3244 
L 3250 3244 
Q 3203 3613 3050 3809 
Q 2766 4169 2084 4169 
Q 1534 4169 1293 3937 
Q 1053 3706 1053 3400 
Q 1053 3063 1334 2906 
Q 1519 2806 2169 2656 
L 2813 2509 
Q 3278 2403 3531 2219 
Q 3969 1897 3969 1284 
Q 3969 522 3414 194 
Q 2859 -134 2125 -134 
Q 1269 -134 784 303 
Q 300 738 309 1481 
L 894 1481 
z
M 2150 4716 
L 2150 4716 
z
" transform="scale(0.015625)"/>
       <path id="Helvetica-68" d="M 413 4606 
L 975 4606 
L 975 2894 
Q 1175 3147 1334 3250 
Q 1606 3428 2013 3428 
Q 2741 3428 3000 2919 
Q 3141 2641 3141 2147 
L 3141 0 
L 2563 0 
L 2563 2109 
Q 2563 2478 2469 2650 
Q 2316 2925 1894 2925 
Q 1544 2925 1259 2684 
Q 975 2444 975 1775 
L 975 0 
L 413 0 
L 413 4606 
z
" transform="scale(0.015625)"/>
       <path id="Helvetica-61" d="M 844 891 
Q 844 647 1022 506 
Q 1200 366 1444 366 
Q 1741 366 2019 503 
Q 2488 731 2488 1250 
L 2488 1703 
Q 2384 1638 2221 1594 
Q 2059 1550 1903 1531 
L 1563 1488 
Q 1256 1447 1103 1359 
Q 844 1213 844 891 
z
M 2206 2028 
Q 2400 2053 2466 2191 
Q 2503 2266 2503 2406 
Q 2503 2694 2298 2823 
Q 2094 2953 1713 2953 
Q 1272 2953 1088 2716 
Q 984 2584 953 2325 
L 428 2325 
Q 444 2944 830 3186 
Q 1216 3428 1725 3428 
Q 2316 3428 2684 3203 
Q 3050 2978 3050 2503 
L 3050 575 
Q 3050 488 3086 434 
Q 3122 381 3238 381 
Q 3275 381 3322 386 
Q 3369 391 3422 400 
L 3422 -16 
Q 3291 -53 3222 -62 
Q 3153 -72 3034 -72 
Q 2744 -72 2613 134 
Q 2544 244 2516 444 
Q 2344 219 2022 53 
Q 1700 -113 1313 -113 
Q 847 -113 551 170 
Q 256 453 256 878 
Q 256 1344 547 1600 
Q 838 1856 1309 1916 
L 2206 2028 
z
M 1741 3428 
L 1741 3428 
z
" transform="scale(0.015625)"/>
       <path id="Helvetica-72" d="M 428 3347 
L 963 3347 
L 963 2769 
Q 1028 2938 1284 3180 
Q 1541 3422 1875 3422 
Q 1891 3422 1928 3419 
Q 1966 3416 2056 3406 
L 2056 2813 
Q 2006 2822 1964 2825 
Q 1922 2828 1872 2828 
Q 1447 2828 1219 2554 
Q 991 2281 991 1925 
L 991 0 
L 428 0 
L 428 3347 
z
" transform="scale(0.015625)"/>
       <path id="Helvetica-65" d="M 1806 3422 
Q 2163 3422 2497 3255 
Q 2831 3088 3006 2822 
Q 3175 2569 3231 2231 
Q 3281 2000 3281 1494 
L 828 1494 
Q 844 984 1069 676 
Q 1294 369 1766 369 
Q 2206 369 2469 659 
Q 2619 828 2681 1050 
L 3234 1050 
Q 3213 866 3089 639 
Q 2966 413 2813 269 
Q 2556 19 2178 -69 
Q 1975 -119 1719 -119 
Q 1094 -119 659 336 
Q 225 791 225 1609 
Q 225 2416 662 2919 
Q 1100 3422 1806 3422 
z
M 2703 1941 
Q 2669 2306 2544 2525 
Q 2313 2931 1772 2931 
Q 1384 2931 1121 2651 
Q 859 2372 844 1941 
L 2703 1941 
z
M 1753 3428 
L 1753 3428 
z
" transform="scale(0.015625)"/>
       <path id="Helvetica-20" transform="scale(0.015625)"/>
       <path id="Helvetica-6f" d="M 1741 363 
Q 2300 363 2508 786 
Q 2716 1209 2716 1728 
Q 2716 2197 2566 2491 
Q 2328 2953 1747 2953 
Q 1231 2953 997 2559 
Q 763 2166 763 1609 
Q 763 1075 997 719 
Q 1231 363 1741 363 
z
M 1763 3444 
Q 2409 3444 2856 3012 
Q 3303 2581 3303 1744 
Q 3303 934 2909 406 
Q 2516 -122 1688 -122 
Q 997 -122 590 345 
Q 184 813 184 1600 
Q 184 2444 612 2944 
Q 1041 3444 1763 3444 
z
M 1744 3428 
L 1744 3428 
z
" transform="scale(0.015625)"/>
       <path id="Helvetica-66" d="M 553 3856 
Q 566 4206 675 4369 
Q 872 4656 1434 4656 
Q 1488 4656 1544 4653 
Q 1600 4650 1672 4644 
L 1672 4131 
Q 1584 4138 1545 4139 
Q 1506 4141 1472 4141 
Q 1216 4141 1166 4008 
Q 1116 3875 1116 3331 
L 1672 3331 
L 1672 2888 
L 1109 2888 
L 1109 0 
L 553 0 
L 553 2888 
L 88 2888 
L 88 3331 
L 553 3331 
L 553 3856 
z
" transform="scale(0.015625)"/>
       <path id="Helvetica-6e" d="M 413 3347 
L 947 3347 
L 947 2872 
Q 1184 3166 1450 3294 
Q 1716 3422 2041 3422 
Q 2753 3422 3003 2925 
Q 3141 2653 3141 2147 
L 3141 0 
L 2569 0 
L 2569 2109 
Q 2569 2416 2478 2603 
Q 2328 2916 1934 2916 
Q 1734 2916 1606 2875 
Q 1375 2806 1200 2600 
Q 1059 2434 1017 2257 
Q 975 2081 975 1753 
L 975 0 
L 413 0 
L 413 3347 
z
M 1734 3428 
L 1734 3428 
z
" transform="scale(0.015625)"/>
       <path id="Helvetica-70" d="M 1825 378 
Q 2219 378 2480 708 
Q 2741 1038 2741 1694 
Q 2741 2094 2625 2381 
Q 2406 2934 1825 2934 
Q 1241 2934 1025 2350 
Q 909 2038 909 1556 
Q 909 1169 1025 897 
Q 1244 378 1825 378 
z
M 369 3331 
L 916 3331 
L 916 2888 
Q 1084 3116 1284 3241 
Q 1569 3428 1953 3428 
Q 2522 3428 2919 2992 
Q 3316 2556 3316 1747 
Q 3316 653 2744 184 
Q 2381 -113 1900 -113 
Q 1522 -113 1266 53 
Q 1116 147 931 375 
L 931 -1334 
L 369 -1334 
L 369 3331 
z
" transform="scale(0.015625)"/>
       <path id="Helvetica-69" d="M 413 3331 
L 984 3331 
L 984 0 
L 413 0 
L 413 3331 
z
M 413 4591 
L 984 4591 
L 984 3953 
L 413 3953 
L 413 4591 
z
" transform="scale(0.015625)"/>
       <path id="Helvetica-74" d="M 525 4281 
L 1094 4281 
L 1094 3347 
L 1628 3347 
L 1628 2888 
L 1094 2888 
L 1094 703 
Q 1094 528 1213 469 
Q 1278 434 1431 434 
Q 1472 434 1519 436 
Q 1566 438 1628 444 
L 1628 0 
Q 1531 -28 1426 -40 
Q 1322 -53 1200 -53 
Q 806 -53 665 148 
Q 525 350 525 672 
L 525 2888 
L 72 2888 
L 72 3347 
L 525 3347 
L 525 4281 
z
" transform="scale(0.015625)"/>
       <path id="Helvetica-73" d="M 747 1050 
Q 772 769 888 619 
Q 1100 347 1625 347 
Q 1938 347 2175 483 
Q 2413 619 2413 903 
Q 2413 1119 2222 1231 
Q 2100 1300 1741 1391 
L 1294 1503 
Q 866 1609 663 1741 
Q 300 1969 300 2372 
Q 300 2847 642 3140 
Q 984 3434 1563 3434 
Q 2319 3434 2653 2991 
Q 2863 2709 2856 2384 
L 2325 2384 
Q 2309 2575 2191 2731 
Q 1997 2953 1519 2953 
Q 1200 2953 1036 2831 
Q 872 2709 872 2509 
Q 872 2291 1088 2159 
Q 1213 2081 1456 2022 
L 1828 1931 
Q 2434 1784 2641 1647 
Q 2969 1431 2969 969 
Q 2969 522 2630 197 
Q 2291 -128 1597 -128 
Q 850 -128 539 211 
Q 228 550 206 1050 
L 747 1050 
z
M 1578 3428 
L 1578 3428 
z
" transform="scale(0.015625)"/>
       <path id="Helvetica-28" d="M 1894 4666 
Q 1403 3713 1256 3263 
Q 1034 2578 1034 1681 
Q 1034 775 1288 25 
Q 1444 -438 1903 -1306 
L 1525 -1306 
Q 1069 -594 959 -397 
Q 850 -200 722 138 
Q 547 600 478 1125 
Q 444 1397 444 1644 
Q 444 2569 734 3291 
Q 919 3750 1503 4666 
L 1894 4666 
z
" transform="scale(0.015625)"/>
       <path id="Helvetica-25" d="M 4363 2175 
Q 4813 2175 5131 1856 
Q 5450 1538 5450 1088 
Q 5450 638 5131 319 
Q 4813 0 4363 0 
Q 3909 0 3590 319 
Q 3272 638 3272 1088 
Q 3272 1538 3590 1856 
Q 3909 2175 4363 2175 
z
M 3909 4456 
L 4256 4456 
L 1753 -119 
L 1406 -119 
L 3909 4456 
z
M 1294 2606 
Q 1563 2606 1752 2795 
Q 1941 2984 1941 3250 
Q 1941 3516 1752 3705 
Q 1563 3894 1294 3894 
Q 1028 3894 839 3706 
Q 650 3519 650 3250 
Q 650 2984 839 2795 
Q 1028 2606 1294 2606 
z
M 1294 4341 
Q 1747 4341 2065 4020 
Q 2384 3700 2384 3250 
Q 2384 2800 2065 2481 
Q 1747 2163 1294 2163 
Q 844 2163 525 2481 
Q 206 2800 206 3250 
Q 206 3700 525 4020 
Q 844 4341 1294 4341 
z
M 4363 444 
Q 4628 444 4817 633 
Q 5006 822 5006 1088 
Q 5006 1353 4817 1542 
Q 4628 1731 4363 1731 
Q 4094 1731 3905 1542 
Q 3716 1353 3716 1088 
Q 3716 822 3905 633 
Q 4094 444 4363 444 
z
" transform="scale(0.015625)"/>
       <path id="Helvetica-29" d="M 222 -1306 
Q 719 -338 863 106 
Q 1081 778 1081 1681 
Q 1081 2584 828 3334 
Q 672 3797 213 4666 
L 591 4666 
Q 1072 3897 1173 3717 
Q 1275 3538 1394 3222 
Q 1544 2831 1608 2450 
Q 1672 2069 1672 1716 
Q 1672 791 1378 66 
Q 1194 -400 613 -1306 
L 222 -1306 
z
" transform="scale(0.015625)"/>
      </defs>
      <use xlink:href="#Helvetica-53"/>
      <use xlink:href="#Helvetica-68" x="66.699219"/>
      <use xlink:href="#Helvetica-61" x="122.314453"/>
      <use xlink:href="#Helvetica-72" x="177.929688"/>
      <use xlink:href="#Helvetica-65" x="211.230469"/>
      <use xlink:href="#Helvetica-20" x="266.845703"/>
      <use xlink:href="#Helvetica-6f" x="294.628906"/>
      <use xlink:href="#Helvetica-66" x="350.244141"/>
      <use xlink:href="#Helvetica-20" x="378.027344"/>
      <use xlink:href="#Helvetica-6e" x="405.810547"/>
      <use xlink:href="#Helvetica-6f" x="461.425781"/>
      <use xlink:href="#Helvetica-6e" x="517.041016"/>
      <use xlink:href="#Helvetica-70" x="572.65625"/>
      <use xlink:href="#Helvetica-72" x="628.271484"/>
      <use xlink:href="#Helvetica-6f" x="661.572266"/>
      <use xlink:href="#Helvetica-66" x="717.1875"/>
      <use xlink:href="#Helvetica-69" x="744.970703"/>
      <use xlink:href="#Helvetica-74" x="767.1875"/>
      <use xlink:href="#Helvetica-73" x="794.970703"/>
      <use xlink:href="#Helvetica-20" x="844.970703"/>
      <use xlink:href="#Helvetica-28" x="872.753906"/>
      <use xlink:href="#Helvetica-25" x="906.054688"/>
      <use xlink:href="#Helvetica-29" x="994.970703"/>
     </g>
    </g>
   </g>
   <g id="matplotlib.axis_2">
    <g id="ytick_1">
     <g id="line2d_19">
      <path d="M 142.56 132.876216 
L 760.32 132.876216 
" clip-path="url(#p0a1a86677d)" style="fill: none; stroke: #e5e7eb; stroke-width: 0.6; stroke-linecap: square"/>
     </g>
     <g id="line2d_20">
      <defs>
       <path id="m34717ad212" d="M 0 0 
L -3.5 0 
" style="stroke: #1a1a1a; stroke-width: 0.8"/>
      </defs>
      <g>
       <use xlink:href="#m34717ad212" x="142.56" y="132.876216" style="fill: #1a1a1a; stroke: #1a1a1a; stroke-width: 0.8"/>
      </g>
     </g>
     <g id="text_11">
      <!-- Organize information -->
      <g style="fill: #1a1a1a" transform="translate(42.744375 136.560591) scale(0.1 -0.1)">
       <defs>
        <path id="Helvetica-4f" d="M 2469 4716 
Q 3684 4716 4269 3934 
Q 4725 3325 4725 2375 
Q 4725 1347 4203 666 
Q 3591 -134 2456 -134 
Q 1397 -134 791 566 
Q 250 1241 250 2272 
Q 250 3203 713 3866 
Q 1306 4716 2469 4716 
z
M 2531 422 
Q 3353 422 3720 1011 
Q 4088 1600 4088 2366 
Q 4088 3175 3664 3669 
Q 3241 4163 2506 4163 
Q 1794 4163 1344 3673 
Q 894 3184 894 2231 
Q 894 1469 1280 945 
Q 1666 422 2531 422 
z
M 2488 4716 
L 2488 4716 
z
" transform="scale(0.015625)"/>
        <path id="Helvetica-67" d="M 1594 3406 
Q 1988 3406 2281 3213 
Q 2441 3103 2606 2894 
L 2606 3316 
L 3125 3316 
L 3125 272 
Q 3125 -366 2938 -734 
Q 2588 -1416 1616 -1416 
Q 1075 -1416 706 -1173 
Q 338 -931 294 -416 
L 866 -416 
Q 906 -641 1028 -763 
Q 1219 -950 1628 -950 
Q 2275 -950 2475 -494 
Q 2594 -225 2584 466 
Q 2416 209 2178 84 
Q 1941 -41 1550 -41 
Q 1006 -41 598 345 
Q 191 731 191 1622 
Q 191 2463 602 2934 
Q 1013 3406 1594 3406 
z
M 2606 1688 
Q 2606 2309 2350 2609 
Q 2094 2909 1697 2909 
Q 1103 2909 884 2353 
Q 769 2056 769 1575 
Q 769 1009 998 714 
Q 1228 419 1616 419 
Q 2222 419 2469 966 
Q 2606 1275 2606 1688 
z
M 1659 3428 
L 1659 3428 
z
" transform="scale(0.015625)"/>
        <path id="Helvetica-7a" d="M 163 444 
L 2147 2844 
L 309 2844 
L 309 3347 
L 2903 3347 
L 2903 2888 
L 931 503 
L 2963 503 
L 2963 0 
L 163 0 
L 163 444 
z
M 1609 3428 
L 1609 3428 
z
" transform="scale(0.015625)"/>
        <path id="Helvetica-6d" d="M 413 3347 
L 969 3347 
L 969 2872 
Q 1169 3119 1331 3231 
Q 1609 3422 1963 3422 
Q 2363 3422 2606 3225 
Q 2744 3113 2856 2894 
Q 3044 3163 3297 3292 
Q 3550 3422 3866 3422 
Q 4541 3422 4784 2934 
Q 4916 2672 4916 2228 
L 4916 0 
L 4331 0 
L 4331 2325 
Q 4331 2659 4164 2784 
Q 3997 2909 3756 2909 
Q 3425 2909 3186 2687 
Q 2947 2466 2947 1947 
L 2947 0 
L 2375 0 
L 2375 2184 
Q 2375 2525 2294 2681 
Q 2166 2916 1816 2916 
Q 1497 2916 1236 2669 
Q 975 2422 975 1775 
L 975 0 
L 413 0 
L 413 3347 
z
" transform="scale(0.015625)"/>
       </defs>
       <use xlink:href="#Helvetica-4f"/>
       <use xlink:href="#Helvetica-72" x="77.783203"/>
       <use xlink:href="#Helvetica-67" x="111.083984"/>
       <use xlink:href="#Helvetica-61" x="166.699219"/>
       <use xlink:href="#Helvetica-6e" x="222.314453"/>
       <use xlink:href="#Helvetica-69" x="277.929688"/>
       <use xlink:href="#Helvetica-7a" x="300.146484"/>
       <use xlink:href="#Helvetica-65" x="350.146484"/>
       <use xlink:href="#Helvetica-20" x="405.761719"/>
       <use xlink:href="#Helvetica-69" x="433.544922"/>
       <use xlink:href="#Helvetica-6e" x="455.761719"/>
       <use xlink:href="#Helvetica-66" x="511.376953"/>
       <use xlink:href="#Helvetica-6f" x="539.160156"/>
       <use xlink:href="#Helvetica-72" x="594.775391"/>
       <use xlink:href="#Helvetica-6d" x="628.076172"/>
       <use xlink:href="#Helvetica-61" x="711.376953"/>
       <use xlink:href="#Helvetica-74" x="766.992188"/>
       <use xlink:href="#Helvetica-69" x="794.775391"/>
       <use xlink:href="#Helvetica-6f" x="816.992188"/>
       <use xlink:href="#Helvetica-6e" x="872.607422"/>
      </g>
     </g>
    </g>
    <g id="ytick_2">
     <g id="line2d_21">
      <path d="M 142.56 174.912144 
L 760.32 174.912144 
" clip-path="url(#p0a1a86677d)" style="fill: none; stroke: #e5e7eb; stroke-width: 0.6; stroke-linecap: square"/>
     </g>
     <g id="line2d_22">
      <g>
       <use xlink:href="#m34717ad212" x="142.56" y="174.912144" style="fill: #1a1a1a; stroke: #1a1a1a; stroke-width: 0.8"/>
      </g>
     </g>
     <g id="text_12">
      <!-- Predict outcomes -->
      <g style="fill: #1a1a1a" transform="translate(58.308437 178.498862) scale(0.1 -0.1)">
       <defs>
        <path id="Helvetica-50" d="M 547 4591 
L 2613 4591 
Q 3225 4591 3600 4245 
Q 3975 3900 3975 3275 
Q 3975 2738 3640 2339 
Q 3306 1941 2613 1941 
L 1169 1941 
L 1169 0 
L 547 0 
L 547 4591 
z
M 3347 3272 
Q 3347 3778 2972 3959 
Q 2766 4056 2406 4056 
L 1169 4056 
L 1169 2466 
L 2406 2466 
Q 2825 2466 3086 2644 
Q 3347 2822 3347 3272 
z
" transform="scale(0.015625)"/>
        <path id="Helvetica-64" d="M 769 1634 
Q 769 1097 997 734 
Q 1225 372 1728 372 
Q 2119 372 2370 708 
Q 2622 1044 2622 1672 
Q 2622 2306 2362 2611 
Q 2103 2916 1722 2916 
Q 1297 2916 1033 2591 
Q 769 2266 769 1634 
z
M 1616 3406 
Q 2000 3406 2259 3244 
Q 2409 3150 2600 2916 
L 2600 4606 
L 3141 4606 
L 3141 0 
L 2634 0 
L 2634 466 
Q 2438 156 2169 18 
Q 1900 -119 1553 -119 
Q 994 -119 584 351 
Q 175 822 175 1603 
Q 175 2334 548 2870 
Q 922 3406 1616 3406 
z
" transform="scale(0.015625)"/>
        <path id="Helvetica-63" d="M 1703 3444 
Q 2269 3444 2623 3169 
Q 2978 2894 3050 2222 
L 2503 2222 
Q 2453 2531 2275 2736 
Q 2097 2941 1703 2941 
Q 1166 2941 934 2416 
Q 784 2075 784 1575 
Q 784 1072 996 728 
Q 1209 384 1666 384 
Q 2016 384 2220 598 
Q 2425 813 2503 1184 
L 3050 1184 
Q 2956 519 2581 211 
Q 2206 -97 1622 -97 
Q 966 -97 575 383 
Q 184 863 184 1581 
Q 184 2463 612 2953 
Q 1041 3444 1703 3444 
z
M 1616 3428 
L 1616 3428 
z
" transform="scale(0.015625)"/>
        <path id="Helvetica-75" d="M 975 3347 
L 975 1125 
Q 975 869 1056 706 
Q 1206 406 1616 406 
Q 2203 406 2416 931 
Q 2531 1213 2531 1703 
L 2531 3347 
L 3094 3347 
L 3094 0 
L 2563 0 
L 2569 494 
Q 2459 303 2297 172 
Q 1975 -91 1516 -91 
Q 800 -91 541 388 
Q 400 644 400 1072 
L 400 3347 
L 975 3347 
z
M 1747 3428 
L 1747 3428 
z
" transform="scale(0.015625)"/>
       </defs>
       <use xlink:href="#Helvetica-50"/>
       <use xlink:href="#Helvetica-72" x="66.699219"/>
       <use xlink:href="#Helvetica-65" x="100"/>
       <use xlink:href="#Helvetica-64" x="155.615234"/>
       <use xlink:href="#Helvetica-69" x="211.230469"/>
       <use xlink:href="#Helvetica-63" x="233.447266"/>
       <use xlink:href="#Helvetica-74" x="283.447266"/>
       <use xlink:href="#Helvetica-20" x="311.230469"/>
       <use xlink:href="#Helvetica-6f" x="339.013672"/>
       <use xlink:href="#Helvetica-75" x="394.628906"/>
       <use xlink:href="#Helvetica-74" x="450.244141"/>
       <use xlink:href="#Helvetica-63" x="478.027344"/>
       <use xlink:href="#Helvetica-6f" x="528.027344"/>
       <use xlink:href="#Helvetica-6d" x="583.642578"/>
       <use xlink:href="#Helvetica-65" x="666.943359"/>
       <use xlink:href="#Helvetica-73" x="722.558594"/>
      </g>
     </g>
    </g>
    <g id="ytick_3">
     <g id="line2d_23">
      <path d="M 142.56 216.948072 
L 760.32 216.948072 
" clip-path="url(#p0a1a86677d)" style="fill: none; stroke: #e5e7eb; stroke-width: 0.6; stroke-linecap: square"/>
     </g>
     <g id="line2d_24">
      <g>
       <use xlink:href="#m34717ad212" x="142.56" y="216.948072" style="fill: #1a1a1a; stroke: #1a1a1a; stroke-width: 0.8"/>
      </g>
     </g>
     <g id="text_13">
      <!-- Assist / automate -->
      <g style="fill: #1a1a1a" transform="translate(58.864688 220.534791) scale(0.1 -0.1)">
       <defs>
        <path id="Helvetica-41" d="M 2844 1881 
L 2147 3909 
L 1406 1881 
L 2844 1881 
z
M 1822 4591 
L 2525 4591 
L 4191 0 
L 3509 0 
L 3044 1375 
L 1228 1375 
L 731 0 
L 94 0 
L 1822 4591 
z
" transform="scale(0.015625)"/>
        <path id="Helvetica-2f" d="M 1456 4591 
L 1931 4591 
L 475 0 
L 0 0 
L 1456 4591 
z
" transform="scale(0.015625)"/>
       </defs>
       <use xlink:href="#Helvetica-41"/>
       <use xlink:href="#Helvetica-73" x="66.699219"/>
       <use xlink:href="#Helvetica-73" x="116.699219"/>
       <use xlink:href="#Helvetica-69" x="166.699219"/>
       <use xlink:href="#Helvetica-73" x="188.916016"/>
       <use xlink:href="#Helvetica-74" x="238.916016"/>
       <use xlink:href="#Helvetica-20" x="266.699219"/>
       <use xlink:href="#Helvetica-2f" x="294.482422"/>
       <use xlink:href="#Helvetica-20" x="322.265625"/>
       <use xlink:href="#Helvetica-61" x="350.048828"/>
       <use xlink:href="#Helvetica-75" x="405.664062"/>
       <use xlink:href="#Helvetica-74" x="461.279297"/>
       <use xlink:href="#Helvetica-6f" x="489.0625"/>
       <use xlink:href="#Helvetica-6d" x="544.677734"/>
       <use xlink:href="#Helvetica-61" x="627.978516"/>
       <use xlink:href="#Helvetica-74" x="683.59375"/>
       <use xlink:href="#Helvetica-65" x="711.376953"/>
      </g>
     </g>
    </g>
    <g id="ytick_4">
     <g id="line2d_25">
      <path d="M 142.56 258.984 
L 760.32 258.984 
" clip-path="url(#p0a1a86677d)" style="fill: none; stroke: #e5e7eb; stroke-width: 0.6; stroke-linecap: square"/>
     </g>
     <g id="line2d_26">
      <g>
       <use xlink:href="#m34717ad212" x="142.56" y="258.984" style="fill: #1a1a1a; stroke: #1a1a1a; stroke-width: 0.8"/>
      </g>
     </g>
     <g id="text_14">
      <!-- Interpret data -->
      <g style="fill: #1a1a1a" transform="translate(76.083438 262.582437) scale(0.1 -0.1)">
       <defs>
        <path id="Helvetica-49" d="M 628 4591 
L 1256 4591 
L 1256 0 
L 628 0 
L 628 4591 
z
" transform="scale(0.015625)"/>
       </defs>
       <use xlink:href="#Helvetica-49"/>
       <use xlink:href="#Helvetica-6e" x="27.783203"/>
       <use xlink:href="#Helvetica-74" x="83.398438"/>
       <use xlink:href="#Helvetica-65" x="111.181641"/>
       <use xlink:href="#Helvetica-72" x="166.796875"/>
       <use xlink:href="#Helvetica-70" x="200.097656"/>
       <use xlink:href="#Helvetica-72" x="255.712891"/>
       <use xlink:href="#Helvetica-65" x="289.013672"/>
       <use xlink:href="#Helvetica-74" x="344.628906"/>
       <use xlink:href="#Helvetica-20" x="372.412109"/>
       <use xlink:href="#Helvetica-64" x="400.195312"/>
       <use xlink:href="#Helvetica-61" x="455.810547"/>
       <use xlink:href="#Helvetica-74" x="511.425781"/>
       <use xlink:href="#Helvetica-61" x="539.208984"/>
      </g>
     </g>
    </g>
    <g id="ytick_5">
     <g id="line2d_27">
      <path d="M 142.56 301.019928 
L 760.32 301.019928 
" clip-path="url(#p0a1a86677d)" style="fill: none; stroke: #e5e7eb; stroke-width: 0.6; stroke-linecap: square"/>
     </g>
     <g id="line2d_28">
      <g>
       <use xlink:href="#m34717ad212" x="142.56" y="301.019928" style="fill: #1a1a1a; stroke: #1a1a1a; stroke-width: 0.8"/>
      </g>
     </g>
     <g id="text_15">
      <!-- Translate / transcribe -->
      <g style="fill: #1a1a1a" transform="translate(41.64125 304.606647) scale(0.1 -0.1)">
       <defs>
        <path id="Helvetica-54" d="M 3828 4591 
L 3828 4044 
L 2281 4044 
L 2281 0 
L 1650 0 
L 1650 4044 
L 103 4044 
L 103 4591 
L 3828 4591 
z
" transform="scale(0.015625)"/>
        <path id="Helvetica-6c" d="M 428 4591 
L 991 4591 
L 991 0 
L 428 0 
L 428 4591 
z
" transform="scale(0.015625)"/>
        <path id="Helvetica-62" d="M 369 4606 
L 916 4606 
L 916 2941 
Q 1100 3181 1356 3307 
Q 1613 3434 1913 3434 
Q 2538 3434 2927 3004 
Q 3316 2575 3316 1738 
Q 3316 944 2931 419 
Q 2547 -106 1866 -106 
Q 1484 -106 1222 78 
Q 1066 188 888 428 
L 888 0 
L 369 0 
L 369 4606 
z
M 1831 391 
Q 2288 391 2514 753 
Q 2741 1116 2741 1709 
Q 2741 2238 2514 2584 
Q 2288 2931 1847 2931 
Q 1463 2931 1173 2647 
Q 884 2363 884 1709 
Q 884 1238 1003 944 
Q 1225 391 1831 391 
z
" transform="scale(0.015625)"/>
       </defs>
       <use xlink:href="#Helvetica-54"/>
       <use xlink:href="#Helvetica-72" x="61.083984"/>
       <use xlink:href="#Helvetica-61" x="94.384766"/>
       <use xlink:href="#Helvetica-6e" x="150"/>
       <use xlink:href="#Helvetica-73" x="205.615234"/>
       <use xlink:href="#Helvetica-6c" x="255.615234"/>
       <use xlink:href="#Helvetica-61" x="277.832031"/>
       <use xlink:href="#Helvetica-74" x="333.447266"/>
       <use xlink:href="#Helvetica-65" x="361.230469"/>
       <use xlink:href="#Helvetica-20" x="416.845703"/>
       <use xlink:href="#Helvetica-2f" x="444.628906"/>
       <use xlink:href="#Helvetica-20" x="472.412109"/>
       <use xlink:href="#Helvetica-74" x="500.195312"/>
       <use xlink:href="#Helvetica-72" x="527.978516"/>
       <use xlink:href="#Helvetica-61" x="561.279297"/>
       <use xlink:href="#Helvetica-6e" x="616.894531"/>
       <use xlink:href="#Helvetica-73" x="672.509766"/>
       <use xlink:href="#Helvetica-63" x="722.509766"/>
       <use xlink:href="#Helvetica-72" x="772.509766"/>
       <use xlink:href="#Helvetica-69" x="805.810547"/>
       <use xlink:href="#Helvetica-62" x="828.027344"/>
       <use xlink:href="#Helvetica-65" x="883.642578"/>
      </g>
     </g>
    </g>
    <g id="ytick_6">
     <g id="line2d_29">
      <path d="M 142.56 343.055856 
L 760.32 343.055856 
" clip-path="url(#p0a1a86677d)" style="fill: none; stroke: #e5e7eb; stroke-width: 0.6; stroke-linecap: square"/>
     </g>
     <g id="line2d_30">
      <g>
       <use xlink:href="#m34717ad212" x="142.56" y="343.055856" style="fill: #1a1a1a; stroke: #1a1a1a; stroke-width: 0.8"/>
      </g>
     </g>
     <g id="text_16">
      <!-- Ask a chatbot -->
      <g style="fill: #1a1a1a" transform="translate(74.9725 346.642575) scale(0.1 -0.1)">
       <defs>
        <path id="Helvetica-6b" d="M 400 4591 
L 941 4591 
L 941 1925 
L 2384 3347 
L 3103 3347 
L 1822 2094 
L 3175 0 
L 2456 0 
L 1413 1688 
L 941 1256 
L 941 0 
L 400 0 
L 400 4591 
z
" transform="scale(0.015625)"/>
       </defs>
       <use xlink:href="#Helvetica-41"/>
       <use xlink:href="#Helvetica-73" x="66.699219"/>
       <use xlink:href="#Helvetica-6b" x="116.699219"/>
       <use xlink:href="#Helvetica-20" x="166.699219"/>
       <use xlink:href="#Helvetica-61" x="194.482422"/>
       <use xlink:href="#Helvetica-20" x="250.097656"/>
       <use xlink:href="#Helvetica-63" x="277.880859"/>
       <use xlink:href="#Helvetica-68" x="327.880859"/>
       <use xlink:href="#Helvetica-61" x="383.496094"/>
       <use xlink:href="#Helvetica-74" x="439.111328"/>
       <use xlink:href="#Helvetica-62" x="466.894531"/>
       <use xlink:href="#Helvetica-6f" x="522.509766"/>
       <use xlink:href="#Helvetica-74" x="578.125"/>
      </g>
     </g>
    </g>
    <g id="ytick_7">
     <g id="line2d_31">
      <path d="M 142.56 385.091784 
L 760.32 385.091784 
" clip-path="url(#p0a1a86677d)" style="fill: none; stroke: #e5e7eb; stroke-width: 0.6; stroke-linecap: square"/>
     </g>
     <g id="line2d_32">
      <g>
       <use xlink:href="#m34717ad212" x="142.56" y="385.091784" style="fill: #1a1a1a; stroke: #1a1a1a; stroke-width: 0.8"/>
      </g>
     </g>
     <g id="text_17">
      <!-- Generate content -->
      <g style="fill: #1a1a1a" transform="translate(58.29125 388.678503) scale(0.1 -0.1)">
       <defs>
        <path id="Helvetica-47" d="M 2472 4709 
Q 3119 4709 3591 4459 
Q 4275 4100 4428 3200 
L 3813 3200 
Q 3700 3703 3347 3933 
Q 2994 4163 2456 4163 
Q 1819 4163 1383 3684 
Q 947 3206 947 2259 
Q 947 1441 1306 927 
Q 1666 413 2478 413 
Q 3100 413 3508 773 
Q 3916 1134 3925 1941 
L 2488 1941 
L 2488 2456 
L 4503 2456 
L 4503 0 
L 4103 0 
L 3953 591 
Q 3638 244 3394 109 
Q 2984 -122 2353 -122 
Q 1538 -122 950 406 
Q 309 1069 309 2225 
Q 309 3378 934 4059 
Q 1528 4709 2472 4709 
z
M 2369 4716 
L 2369 4716 
z
" transform="scale(0.015625)"/>
       </defs>
       <use xlink:href="#Helvetica-47"/>
       <use xlink:href="#Helvetica-65" x="77.783203"/>
       <use xlink:href="#Helvetica-6e" x="133.398438"/>
       <use xlink:href="#Helvetica-65" x="189.013672"/>
       <use xlink:href="#Helvetica-72" x="244.628906"/>
       <use xlink:href="#Helvetica-61" x="277.929688"/>
       <use xlink:href="#Helvetica-74" x="333.544922"/>
       <use xlink:href="#Helvetica-65" x="361.328125"/>
       <use xlink:href="#Helvetica-20" x="416.943359"/>
       <use xlink:href="#Helvetica-63" x="444.726562"/>
       <use xlink:href="#Helvetica-6f" x="494.726562"/>
       <use xlink:href="#Helvetica-6e" x="550.341797"/>
       <use xlink:href="#Helvetica-74" x="605.957031"/>
       <use xlink:href="#Helvetica-65" x="633.740234"/>
       <use xlink:href="#Helvetica-6e" x="689.355469"/>
       <use xlink:href="#Helvetica-74" x="744.970703"/>
      </g>
     </g>
    </g>
   </g>
   <g id="patch_3">
    <path d="M 142.56 118.584 
L 276.92129 118.584 
L 276.92129 132.876216 
L 142.56 132.876216 
z
" clip-path="url(#p0a1a86677d)" style="fill: #9aa3b0"/>
   </g>
   <g id="patch_4">
    <path d="M 142.56 160.619928 
L 221.063226 160.619928 
L 221.063226 174.912144 
L 142.56 174.912144 
z
" clip-path="url(#p0a1a86677d)" style="fill: #9aa3b0"/>
   </g>
   <g id="patch_5">
    <path d="M 142.56 202.655856 
L 255.785806 202.655856 
L 255.785806 216.948072 
L 142.56 216.948072 
z
" clip-path="url(#p0a1a86677d)" style="fill: #9aa3b0"/>
   </g>
   <g id="patch_6">
    <path d="M 142.56 244.691784 
L 249.747097 244.691784 
L 249.747097 258.984 
L 142.56 258.984 
z
" clip-path="url(#p0a1a86677d)" style="fill: #9aa3b0"/>
   </g>
   <g id="patch_7">
    <path d="M 142.56 286.727713 
L 313.908387 286.727713 
L 313.908387 301.019928 
L 142.56 301.019928 
z
" clip-path="url(#p0a1a86677d)" style="fill: #9aa3b0"/>
   </g>
   <g id="patch_8">
    <path d="M 142.56 328.763641 
L 372.030968 328.763641 
L 372.030968 343.055856 
L 142.56 343.055856 
z
" clip-path="url(#p0a1a86677d)" style="fill: #9aa3b0"/>
   </g>
   <g id="patch_9">
    <path d="M 142.56 370.799569 
L 520.734194 370.799569 
L 520.734194 385.091784 
L 142.56 385.091784 
z
" clip-path="url(#p0a1a86677d)" style="fill: #9aa3b0"/>
   </g>
   <g id="patch_10">
    <path d="M 142.56 132.876216 
L 566.024516 132.876216 
L 566.024516 147.168431 
L 142.56 147.168431 
z
" clip-path="url(#p0a1a86677d)" style="fill: #1f6feb"/>
   </g>
   <g id="patch_11">
    <path d="M 142.56 174.912144 
L 505.637419 174.912144 
L 505.637419 189.204359 
L 142.56 189.204359 
z
" clip-path="url(#p0a1a86677d)" style="fill: #1f6feb"/>
   </g>
   <g id="patch_12">
    <path d="M 142.56 216.948072 
L 533.566452 216.948072 
L 533.566452 231.240287 
L 142.56 231.240287 
z
" clip-path="url(#p0a1a86677d)" style="fill: #1f6feb"/>
   </g>
   <g id="patch_13">
    <path d="M 142.56 258.984 
L 492.805161 258.984 
L 492.805161 273.276216 
L 142.56 273.276216 
z
" clip-path="url(#p0a1a86677d)" style="fill: #1f6feb"/>
   </g>
   <g id="patch_14">
    <path d="M 142.56 301.019928 
L 416.566452 301.019928 
L 416.566452 315.312144 
L 142.56 315.312144 
z
" clip-path="url(#p0a1a86677d)" style="fill: #1f6feb"/>
   </g>
   <g id="patch_15">
    <path d="M 142.56 343.055856 
L 419.585806 343.055856 
L 419.585806 357.348072 
L 142.56 357.348072 
z
" clip-path="url(#p0a1a86677d)" style="fill: #1f6feb"/>
   </g>
   <g id="patch_16">
    <path d="M 142.56 385.091784 
L 528.282581 385.091784 
L 528.282581 399.384 
L 142.56 399.384 
z
" clip-path="url(#p0a1a86677d)" style="fill: #1f6feb"/>
   </g>
   <g id="patch_17">
    <path d="M 142.56 413.424 
L 142.56 104.544 
" style="fill: none; stroke: #1a1a1a; stroke-width: 0.8; stroke-linejoin: miter; stroke-linecap: square"/>
   </g>
   <g id="patch_18">
    <path d="M 142.56 413.424 
L 760.32 413.424 
" style="fill: none; stroke: #1a1a1a; stroke-width: 0.8; stroke-linejoin: miter; stroke-linecap: square"/>
   </g>
   <g id="text_18">
    <!-- 19% -->
    <g style="fill: #1a1a1a" transform="translate(283.94129 128.020186) scale(0.09 -0.09)">
     <defs>
      <path id="Helvetica-39" d="M 850 1081 
Q 875 616 1209 438 
Q 1381 344 1597 344 
Q 2000 344 2284 680 
Q 2569 1016 2688 2044 
Q 2500 1747 2223 1626 
Q 1947 1506 1628 1506 
Q 981 1506 604 1909 
Q 228 2313 228 2947 
Q 228 3556 600 4018 
Q 972 4481 1697 4481 
Q 2675 4481 3047 3600 
Q 3253 3116 3253 2388 
Q 3253 1566 3006 931 
Q 2597 -125 1619 -125 
Q 963 -125 622 219 
Q 281 563 281 1081 
L 850 1081 
z
M 1703 2000 
Q 2038 2000 2314 2220 
Q 2591 2441 2591 2991 
Q 2591 3484 2342 3726 
Q 2094 3969 1709 3969 
Q 1297 3969 1055 3692 
Q 813 3416 813 2953 
Q 813 2516 1025 2258 
Q 1238 2000 1703 2000 
z
" transform="scale(0.015625)"/>
     </defs>
     <use xlink:href="#Helvetica-31"/>
     <use xlink:href="#Helvetica-39" x="55.615234"/>
     <use xlink:href="#Helvetica-25" x="111.230469"/>
    </g>
   </g>
   <g id="text_19">
    <!-- 60% -->
    <g style="fill: #1a1a1a" transform="translate(573.044516 142.312401) scale(0.09 -0.09)">
     <use xlink:href="#Helvetica-36"/>
     <use xlink:href="#Helvetica-30" x="55.615234"/>
     <use xlink:href="#Helvetica-25" x="111.230469"/>
    </g>
   </g>
   <g id="text_20">
    <!-- +41 pp -->
    <g style="fill: #f97316" transform="translate(629.204516 142.694081) scale(0.105 -0.105)">
     <defs>
      <path id="Helvetica-2b" d="M 288 1369 
L 288 1894 
L 1650 1894 
L 1650 3266 
L 2184 3266 
L 2184 1894 
L 3547 1894 
L 3547 1369 
L 2184 1369 
L 2184 0 
L 1650 0 
L 1650 1369 
L 288 1369 
z
" transform="scale(0.015625)"/>
     </defs>
     <use xlink:href="#Helvetica-2b"/>
     <use xlink:href="#Helvetica-34" x="58.398438"/>
     <use xlink:href="#Helvetica-31" x="114.013672"/>
     <use xlink:href="#Helvetica-20" x="169.628906"/>
     <use xlink:href="#Helvetica-70" x="197.412109"/>
     <use xlink:href="#Helvetica-70" x="253.027344"/>
    </g>
   </g>
   <g id="text_21">
    <!-- 11% -->
    <g style="fill: #1a1a1a" transform="translate(228.083226 170.056114) scale(0.09 -0.09)">
     <use xlink:href="#Helvetica-31"/>
     <use xlink:href="#Helvetica-31" x="55.615234"/>
     <use xlink:href="#Helvetica-25" x="111.230469"/>
    </g>
   </g>
   <g id="text_22">
    <!-- 52% -->
    <g style="fill: #1a1a1a" transform="translate(512.657419 184.34833) scale(0.09 -0.09)">
     <use xlink:href="#Helvetica-35"/>
     <use xlink:href="#Helvetica-32" x="55.615234"/>
     <use xlink:href="#Helvetica-25" x="111.230469"/>
    </g>
   </g>
   <g id="text_23">
    <!-- +41 pp -->
    <g style="fill: #f97316" transform="translate(568.817419 184.730009) scale(0.105 -0.105)">
     <use xlink:href="#Helvetica-2b"/>
     <use xlink:href="#Helvetica-34" x="58.398438"/>
     <use xlink:href="#Helvetica-31" x="114.013672"/>
     <use xlink:href="#Helvetica-20" x="169.628906"/>
     <use xlink:href="#Helvetica-70" x="197.412109"/>
     <use xlink:href="#Helvetica-70" x="253.027344"/>
    </g>
   </g>
   <g id="text_24">
    <!-- 16% -->
    <g style="fill: #1a1a1a" transform="translate(262.805806 212.092042) scale(0.09 -0.09)">
     <use xlink:href="#Helvetica-31"/>
     <use xlink:href="#Helvetica-36" x="55.615234"/>
     <use xlink:href="#Helvetica-25" x="111.230469"/>
    </g>
   </g>
   <g id="text_25">
    <!-- 56% -->
    <g style="fill: #1a1a1a" transform="translate(540.586452 226.384258) scale(0.09 -0.09)">
     <use xlink:href="#Helvetica-35"/>
     <use xlink:href="#Helvetica-36" x="55.615234"/>
     <use xlink:href="#Helvetica-25" x="111.230469"/>
    </g>
   </g>
   <g id="text_26">
    <!-- +40 pp -->
    <g style="fill: #f97316" transform="translate(596.746452 226.765937) scale(0.105 -0.105)">
     <use xlink:href="#Helvetica-2b"/>
     <use xlink:href="#Helvetica-34" x="58.398438"/>
     <use xlink:href="#Helvetica-30" x="114.013672"/>
     <use xlink:href="#Helvetica-20" x="169.628906"/>
     <use xlink:href="#Helvetica-70" x="197.412109"/>
     <use xlink:href="#Helvetica-70" x="253.027344"/>
    </g>
   </g>
   <g id="text_27">
    <!-- 15% -->
    <g style="fill: #1a1a1a" transform="translate(256.767097 254.12797) scale(0.09 -0.09)">
     <use xlink:href="#Helvetica-31"/>
     <use xlink:href="#Helvetica-35" x="55.615234"/>
     <use xlink:href="#Helvetica-25" x="111.230469"/>
    </g>
   </g>
   <g id="text_28">
    <!-- 50% -->
    <g style="fill: #1a1a1a" transform="translate(499.825161 268.420186) scale(0.09 -0.09)">
     <use xlink:href="#Helvetica-35"/>
     <use xlink:href="#Helvetica-30" x="55.615234"/>
     <use xlink:href="#Helvetica-25" x="111.230469"/>
    </g>
   </g>
   <g id="text_29">
    <!-- +35 pp -->
    <g style="fill: #f97316" transform="translate(555.985161 268.801866) scale(0.105 -0.105)">
     <use xlink:href="#Helvetica-2b"/>
     <use xlink:href="#Helvetica-33" x="58.398438"/>
     <use xlink:href="#Helvetica-35" x="114.013672"/>
     <use xlink:href="#Helvetica-20" x="169.628906"/>
     <use xlink:href="#Helvetica-70" x="197.412109"/>
     <use xlink:href="#Helvetica-70" x="253.027344"/>
    </g>
   </g>
   <g id="text_30">
    <!-- 24% -->
    <g style="fill: #1a1a1a" transform="translate(320.928387 296.163898) scale(0.09 -0.09)">
     <use xlink:href="#Helvetica-32"/>
     <use xlink:href="#Helvetica-34" x="55.615234"/>
     <use xlink:href="#Helvetica-25" x="111.230469"/>
    </g>
   </g>
   <g id="text_31">
    <!-- 39% -->
    <g style="fill: #1a1a1a" transform="translate(423.586452 310.456114) scale(0.09 -0.09)">
     <use xlink:href="#Helvetica-33"/>
     <use xlink:href="#Helvetica-39" x="55.615234"/>
     <use xlink:href="#Helvetica-25" x="111.230469"/>
    </g>
   </g>
   <g id="text_32">
    <!-- 33% -->
    <g style="fill: #1a1a1a" transform="translate(379.050968 338.199827) scale(0.09 -0.09)">
     <use xlink:href="#Helvetica-33"/>
     <use xlink:href="#Helvetica-33" x="55.615234"/>
     <use xlink:href="#Helvetica-25" x="111.230469"/>
    </g>
   </g>
   <g id="text_33">
    <!-- 39% -->
    <g style="fill: #1a1a1a" transform="translate(426.605806 352.492042) scale(0.09 -0.09)">
     <use xlink:href="#Helvetica-33"/>
     <use xlink:href="#Helvetica-39" x="55.615234"/>
     <use xlink:href="#Helvetica-25" x="111.230469"/>
    </g>
   </g>
   <g id="text_34">
    <!-- 54% -->
    <g style="fill: #1a1a1a" transform="translate(527.754194 380.235755) scale(0.09 -0.09)">
     <use xlink:href="#Helvetica-35"/>
     <use xlink:href="#Helvetica-34" x="55.615234"/>
     <use xlink:href="#Helvetica-25" x="111.230469"/>
    </g>
   </g>
   <g id="text_35">
    <!-- 55% -->
    <g style="fill: #1a1a1a" transform="translate(535.302581 394.52797) scale(0.09 -0.09)">
     <use xlink:href="#Helvetica-35"/>
     <use xlink:href="#Helvetica-35" x="55.615234"/>
     <use xlink:href="#Helvetica-25" x="111.230469"/>
    </g>
   </g>
   <g id="legend_1">
    <g id="patch_19">
     <path d="M 678.990937 390.500719 
L 696.990937 390.500719 
L 696.990937 384.200719 
L 678.990937 384.200719 
z
" style="fill: #9aa3b0"/>
    </g>
    <g id="text_36">
     <!-- Doing today -->
     <g transform="translate(704.190938 390.500719) scale(0.09 -0.09)">
      <defs>
       <path id="Helvetica-44" d="M 2250 531 
Q 2566 531 2769 597 
Q 3131 719 3363 1066 
Q 3547 1344 3628 1778 
Q 3675 2038 3675 2259 
Q 3675 3113 3336 3584 
Q 2997 4056 2244 4056 
L 1141 4056 
L 1141 531 
L 2250 531 
z
M 516 4591 
L 2375 4591 
Q 3322 4591 3844 3919 
Q 4309 3313 4309 2366 
Q 4309 1634 4034 1044 
Q 3550 0 2369 0 
L 516 0 
L 516 4591 
z
" transform="scale(0.015625)"/>
       <path id="Helvetica-79" d="M 2503 3347 
L 3125 3347 
Q 3006 3025 2597 1878 
Q 2291 1016 2084 472 
Q 1597 -809 1397 -1090 
Q 1197 -1372 709 -1372 
Q 591 -1372 527 -1362 
Q 463 -1353 369 -1328 
L 369 -816 
Q 516 -856 581 -865 
Q 647 -875 697 -875 
Q 853 -875 926 -823 
Q 1000 -772 1050 -697 
Q 1066 -672 1162 -440 
Q 1259 -209 1303 -97 
L 66 3347 
L 703 3347 
L 1600 622 
L 2503 3347 
z
M 1597 3428 
L 1597 3428 
z
" transform="scale(0.015625)"/>
      </defs>
      <use xlink:href="#Helvetica-44"/>
      <use xlink:href="#Helvetica-6f" x="72.216797"/>
      <use xlink:href="#Helvetica-69" x="127.832031"/>
      <use xlink:href="#Helvetica-6e" x="150.048828"/>
      <use xlink:href="#Helvetica-67" x="205.664062"/>
      <use xlink:href="#Helvetica-20" x="261.279297"/>
      <use xlink:href="#Helvetica-74" x="289.0625"/>
      <use xlink:href="#Helvetica-6f" x="316.845703"/>
      <use xlink:href="#Helvetica-64" x="372.460938"/>
      <use xlink:href="#Helvetica-61" x="428.076172"/>
      <use xlink:href="#Helvetica-79" x="483.691406"/>
     </g>
    </g>
    <g id="patch_20">
     <path d="M 678.990937 403.448062 
L 696.990937 403.448062 
L 696.990937 397.148062 
L 678.990937 397.148062 
z
" style="fill: #1f6feb"/>
    </g>
    <g id="text_37">
     <!-- Want to do -->
     <g transform="translate(704.190938 403.448062) scale(0.09 -0.09)">
      <defs>
       <path id="Helvetica-57" d="M 791 4591 
L 1656 856 
L 2694 4591 
L 3369 4591 
L 4406 856 
L 5272 4591 
L 5953 4591 
L 4747 0 
L 4094 0 
L 3034 3806 
L 1969 0 
L 1316 0 
L 116 4591 
L 791 4591 
z
" transform="scale(0.015625)"/>
      </defs>
      <use xlink:href="#Helvetica-57"/>
      <use xlink:href="#Helvetica-61" x="94.384766"/>
      <use xlink:href="#Helvetica-6e" x="150"/>
      <use xlink:href="#Helvetica-74" x="205.615234"/>
      <use xlink:href="#Helvetica-20" x="233.398438"/>
      <use xlink:href="#Helvetica-74" x="261.181641"/>
      <use xlink:href="#Helvetica-6f" x="288.964844"/>
      <use xlink:href="#Helvetica-20" x="344.580078"/>
      <use xlink:href="#Helvetica-64" x="372.363281"/>
      <use xlink:href="#Helvetica-6f" x="427.978516"/>
     </g>
    </g>
   </g>
  </g>
  <g id="text_38">
   <!-- Nonprofits use AI to write. They want it to think. -->
   <g style="fill: #1a1a1a" transform="translate(31.68 25.51075) scale(0.14 -0.14)">
    <defs>
     <path id="Helvetica-4e" d="M 488 4591 
L 1222 4591 
L 3541 872 
L 3541 4591 
L 4131 4591 
L 4131 0 
L 3434 0 
L 1081 3716 
L 1081 0 
L 488 0 
L 488 4591 
z
M 2269 4591 
L 2269 4591 
z
" transform="scale(0.015625)"/>
     <path id="Helvetica-77" d="M 672 3347 
L 1316 709 
L 1969 3347 
L 2600 3347 
L 3256 725 
L 3941 3347 
L 4503 3347 
L 3531 0 
L 2947 0 
L 2266 2591 
L 1606 0 
L 1022 0 
L 56 3347 
L 672 3347 
z
" transform="scale(0.015625)"/>
     <path id="Helvetica-2e" d="M 547 681 
L 1200 681 
L 1200 0 
L 547 0 
L 547 681 
z
" transform="scale(0.015625)"/>
    </defs>
    <use xlink:href="#Helvetica-4e"/>
    <use xlink:href="#Helvetica-6f" x="72.216797"/>
    <use xlink:href="#Helvetica-6e" x="127.832031"/>
    <use xlink:href="#Helvetica-70" x="183.447266"/>
    <use xlink:href="#Helvetica-72" x="239.0625"/>
    <use xlink:href="#Helvetica-6f" x="272.363281"/>
    <use xlink:href="#Helvetica-66" x="327.978516"/>
    <use xlink:href="#Helvetica-69" x="355.761719"/>
    <use xlink:href="#Helvetica-74" x="377.978516"/>
    <use xlink:href="#Helvetica-73" x="405.761719"/>
    <use xlink:href="#Helvetica-20" x="455.761719"/>
    <use xlink:href="#Helvetica-75" x="483.544922"/>
    <use xlink:href="#Helvetica-73" x="539.160156"/>
    <use xlink:href="#Helvetica-65" x="589.160156"/>
    <use xlink:href="#Helvetica-20" x="644.775391"/>
    <use xlink:href="#Helvetica-41" x="672.558594"/>
    <use xlink:href="#Helvetica-49" x="739.257812"/>
    <use xlink:href="#Helvetica-20" x="767.041016"/>
    <use xlink:href="#Helvetica-74" x="794.824219"/>
    <use xlink:href="#Helvetica-6f" x="822.607422"/>
    <use xlink:href="#Helvetica-20" x="878.222656"/>
    <use xlink:href="#Helvetica-77" x="906.005859"/>
    <use xlink:href="#Helvetica-72" x="978.222656"/>
    <use xlink:href="#Helvetica-69" x="1011.523438"/>
    <use xlink:href="#Helvetica-74" x="1033.740234"/>
    <use xlink:href="#Helvetica-65" x="1061.523438"/>
    <use xlink:href="#Helvetica-2e" x="1117.138672"/>
    <use xlink:href="#Helvetica-20" x="1144.921875"/>
    <use xlink:href="#Helvetica-54" x="1172.705078"/>
    <use xlink:href="#Helvetica-68" x="1233.789062"/>
    <use xlink:href="#Helvetica-65" x="1289.404297"/>
    <use xlink:href="#Helvetica-79" x="1345.019531"/>
    <use xlink:href="#Helvetica-20" x="1395.019531"/>
    <use xlink:href="#Helvetica-77" x="1422.802734"/>
    <use xlink:href="#Helvetica-61" x="1495.019531"/>
    <use xlink:href="#Helvetica-6e" x="1550.634766"/>
    <use xlink:href="#Helvetica-74" x="1606.25"/>
    <use xlink:href="#Helvetica-20" x="1634.033203"/>
    <use xlink:href="#Helvetica-69" x="1661.816406"/>
    <use xlink:href="#Helvetica-74" x="1684.033203"/>
    <use xlink:href="#Helvetica-20" x="1711.816406"/>
    <use xlink:href="#Helvetica-74" x="1739.599609"/>
    <use xlink:href="#Helvetica-6f" x="1767.382812"/>
    <use xlink:href="#Helvetica-20" x="1822.998047"/>
    <use xlink:href="#Helvetica-74" x="1850.78125"/>
    <use xlink:href="#Helvetica-68" x="1878.564453"/>
    <use xlink:href="#Helvetica-69" x="1934.179688"/>
    <use xlink:href="#Helvetica-6e" x="1956.396484"/>
    <use xlink:href="#Helvetica-6b" x="2012.011719"/>
    <use xlink:href="#Helvetica-2e" x="2062.011719"/>
   </g>
  </g>
  <g id="text_39">
   <!-- Today's AI use is dominated by content generation. The next wave nonprofits aspire to — -->
   <g style="fill: #6b7280" transform="translate(31.68 57.171) scale(0.1 -0.1)">
    <defs>
     <path id="Helvetica-27" d="M 1056 4591 
L 953 2753 
L 591 2753 
L 488 4591 
L 1056 4591 
z
" transform="scale(0.015625)"/>
     <path id="Helvetica-78" d="M 94 3347 
L 822 3347 
L 1591 2169 
L 2369 3347 
L 3053 3331 
L 1925 1716 
L 3103 0 
L 2384 0 
L 1553 1256 
L 747 0 
L 34 0 
L 1213 1716 
L 94 3347 
z
" transform="scale(0.015625)"/>
     <path id="Helvetica-76" d="M 688 3347 
L 1581 622 
L 2516 3347 
L 3131 3347 
L 1869 0 
L 1269 0 
L 34 3347 
L 688 3347 
z
" transform="scale(0.015625)"/>
     <path id="Helvetica-2014" d="M 753 2000 
L 5644 2000 
L 5644 1541 
L 753 1541 
L 753 2000 
z
" transform="scale(0.015625)"/>
    </defs>
    <use xlink:href="#Helvetica-54"/>
    <use xlink:href="#Helvetica-6f" x="61.083984"/>
    <use xlink:href="#Helvetica-64" x="116.699219"/>
    <use xlink:href="#Helvetica-61" x="172.314453"/>
    <use xlink:href="#Helvetica-79" x="227.929688"/>
    <use xlink:href="#Helvetica-27" x="277.929688"/>
    <use xlink:href="#Helvetica-73" x="297.021484"/>
    <use xlink:href="#Helvetica-20" x="347.021484"/>
    <use xlink:href="#Helvetica-41" x="374.804688"/>
    <use xlink:href="#Helvetica-49" x="441.503906"/>
    <use xlink:href="#Helvetica-20" x="469.287109"/>
    <use xlink:href="#Helvetica-75" x="497.070312"/>
    <use xlink:href="#Helvetica-73" x="552.685547"/>
    <use xlink:href="#Helvetica-65" x="602.685547"/>
    <use xlink:href="#Helvetica-20" x="658.300781"/>
    <use xlink:href="#Helvetica-69" x="686.083984"/>
    <use xlink:href="#Helvetica-73" x="708.300781"/>
    <use xlink:href="#Helvetica-20" x="758.300781"/>
    <use xlink:href="#Helvetica-64" x="786.083984"/>
    <use xlink:href="#Helvetica-6f" x="841.699219"/>
    <use xlink:href="#Helvetica-6d" x="897.314453"/>
    <use xlink:href="#Helvetica-69" x="980.615234"/>
    <use xlink:href="#Helvetica-6e" x="1002.832031"/>
    <use xlink:href="#Helvetica-61" x="1058.447266"/>
    <use xlink:href="#Helvetica-74" x="1114.0625"/>
    <use xlink:href="#Helvetica-65" x="1141.845703"/>
    <use xlink:href="#Helvetica-64" x="1197.460938"/>
    <use xlink:href="#Helvetica-20" x="1253.076172"/>
    <use xlink:href="#Helvetica-62" x="1280.859375"/>
    <use xlink:href="#Helvetica-79" x="1336.474609"/>
    <use xlink:href="#Helvetica-20" x="1386.474609"/>
    <use xlink:href="#Helvetica-63" x="1414.257812"/>
    <use xlink:href="#Helvetica-6f" x="1464.257812"/>
    <use xlink:href="#Helvetica-6e" x="1519.873047"/>
    <use xlink:href="#Helvetica-74" x="1575.488281"/>
    <use xlink:href="#Helvetica-65" x="1603.271484"/>
    <use xlink:href="#Helvetica-6e" x="1658.886719"/>
    <use xlink:href="#Helvetica-74" x="1714.501953"/>
    <use xlink:href="#Helvetica-20" x="1742.285156"/>
    <use xlink:href="#Helvetica-67" x="1770.068359"/>
    <use xlink:href="#Helvetica-65" x="1825.683594"/>
    <use xlink:href="#Helvetica-6e" x="1881.298828"/>
    <use xlink:href="#Helvetica-65" x="1936.914062"/>
    <use xlink:href="#Helvetica-72" x="1992.529297"/>
    <use xlink:href="#Helvetica-61" x="2025.830078"/>
    <use xlink:href="#Helvetica-74" x="2081.445312"/>
    <use xlink:href="#Helvetica-69" x="2109.228516"/>
    <use xlink:href="#Helvetica-6f" x="2131.445312"/>
    <use xlink:href="#Helvetica-6e" x="2187.060547"/>
    <use xlink:href="#Helvetica-2e" x="2242.675781"/>
    <use xlink:href="#Helvetica-20" x="2270.458984"/>
    <use xlink:href="#Helvetica-54" x="2298.242188"/>
    <use xlink:href="#Helvetica-68" x="2359.326172"/>
    <use xlink:href="#Helvetica-65" x="2414.941406"/>
    <use xlink:href="#Helvetica-20" x="2470.556641"/>
    <use xlink:href="#Helvetica-6e" x="2498.339844"/>
    <use xlink:href="#Helvetica-65" x="2553.955078"/>
    <use xlink:href="#Helvetica-78" x="2609.570312"/>
    <use xlink:href="#Helvetica-74" x="2659.570312"/>
    <use xlink:href="#Helvetica-20" x="2687.353516"/>
    <use xlink:href="#Helvetica-77" x="2715.136719"/>
    <use xlink:href="#Helvetica-61" x="2787.353516"/>
    <use xlink:href="#Helvetica-76" x="2842.96875"/>
    <use xlink:href="#Helvetica-65" x="2892.96875"/>
    <use xlink:href="#Helvetica-20" x="2948.583984"/>
    <use xlink:href="#Helvetica-6e" x="2976.367188"/>
    <use xlink:href="#Helvetica-6f" x="3031.982422"/>
    <use xlink:href="#Helvetica-6e" x="3087.597656"/>
    <use xlink:href="#Helvetica-70" x="3143.212891"/>
    <use xlink:href="#Helvetica-72" x="3198.828125"/>
    <use xlink:href="#Helvetica-6f" x="3232.128906"/>
    <use xlink:href="#Helvetica-66" x="3287.744141"/>
    <use xlink:href="#Helvetica-69" x="3315.527344"/>
    <use xlink:href="#Helvetica-74" x="3337.744141"/>
    <use xlink:href="#Helvetica-73" x="3365.527344"/>
    <use xlink:href="#Helvetica-20" x="3415.527344"/>
    <use xlink:href="#Helvetica-61" x="3443.310547"/>
    <use xlink:href="#Helvetica-73" x="3498.925781"/>
    <use xlink:href="#Helvetica-70" x="3548.925781"/>
    <use xlink:href="#Helvetica-69" x="3604.541016"/>
    <use xlink:href="#Helvetica-72" x="3626.757812"/>
    <use xlink:href="#Helvetica-65" x="3660.058594"/>
    <use xlink:href="#Helvetica-20" x="3715.673828"/>
    <use xlink:href="#Helvetica-74" x="3743.457031"/>
    <use xlink:href="#Helvetica-6f" x="3771.240234"/>
    <use xlink:href="#Helvetica-20" x="3826.855469"/>
    <use xlink:href="#Helvetica-2014" x="3854.638672"/>
   </g>
   <!-- predicting, organizing, interpreting their own data — is barely off the ground. -->
   <g style="fill: #6b7280" transform="translate(31.68 68.1135) scale(0.1 -0.1)">
    <defs>
     <path id="Helvetica-2c" d="M 531 -653 
Q 747 -616 834 -350 
Q 881 -209 881 -78 
Q 881 -56 879 -39 
Q 878 -22 872 0 
L 531 0 
L 531 681 
L 1200 681 
L 1200 50 
Q 1200 -322 1050 -603 
Q 900 -884 531 -950 
L 531 -653 
z
" transform="scale(0.015625)"/>
    </defs>
    <use xlink:href="#Helvetica-70"/>
    <use xlink:href="#Helvetica-72" x="55.615234"/>
    <use xlink:href="#Helvetica-65" x="88.916016"/>
    <use xlink:href="#Helvetica-64" x="144.53125"/>
    <use xlink:href="#Helvetica-69" x="200.146484"/>
    <use xlink:href="#Helvetica-63" x="222.363281"/>
    <use xlink:href="#Helvetica-74" x="272.363281"/>
    <use xlink:href="#Helvetica-69" x="300.146484"/>
    <use xlink:href="#Helvetica-6e" x="322.363281"/>
    <use xlink:href="#Helvetica-67" x="377.978516"/>
    <use xlink:href="#Helvetica-2c" x="433.59375"/>
    <use xlink:href="#Helvetica-20" x="461.376953"/>
    <use xlink:href="#Helvetica-6f" x="489.160156"/>
    <use xlink:href="#Helvetica-72" x="544.775391"/>
    <use xlink:href="#Helvetica-67" x="578.076172"/>
    <use xlink:href="#Helvetica-61" x="633.691406"/>
    <use xlink:href="#Helvetica-6e" x="689.306641"/>
    <use xlink:href="#Helvetica-69" x="744.921875"/>
    <use xlink:href="#Helvetica-7a" x="767.138672"/>
    <use xlink:href="#Helvetica-69" x="817.138672"/>
    <use xlink:href="#Helvetica-6e" x="839.355469"/>
    <use xlink:href="#Helvetica-67" x="894.970703"/>
    <use xlink:href="#Helvetica-2c" x="950.585938"/>
    <use xlink:href="#Helvetica-20" x="978.369141"/>
    <use xlink:href="#Helvetica-69" x="1006.152344"/>
    <use xlink:href="#Helvetica-6e" x="1028.369141"/>
    <use xlink:href="#Helvetica-74" x="1083.984375"/>
    <use xlink:href="#Helvetica-65" x="1111.767578"/>
    <use xlink:href="#Helvetica-72" x="1167.382812"/>
    <use xlink:href="#Helvetica-70" x="1200.683594"/>
    <use xlink:href="#Helvetica-72" x="1256.298828"/>
    <use xlink:href="#Helvetica-65" x="1289.599609"/>
    <use xlink:href="#Helvetica-74" x="1345.214844"/>
    <use xlink:href="#Helvetica-69" x="1372.998047"/>
    <use xlink:href="#Helvetica-6e" x="1395.214844"/>
    <use xlink:href="#Helvetica-67" x="1450.830078"/>
    <use xlink:href="#Helvetica-20" x="1506.445312"/>
    <use xlink:href="#Helvetica-74" x="1534.228516"/>
    <use xlink:href="#Helvetica-68" x="1562.011719"/>
    <use xlink:href="#Helvetica-65" x="1617.626953"/>
    <use xlink:href="#Helvetica-69" x="1673.242188"/>
    <use xlink:href="#Helvetica-72" x="1695.458984"/>
    <use xlink:href="#Helvetica-20" x="1728.759766"/>
    <use xlink:href="#Helvetica-6f" x="1756.542969"/>
    <use xlink:href="#Helvetica-77" x="1812.158203"/>
    <use xlink:href="#Helvetica-6e" x="1884.375"/>
    <use xlink:href="#Helvetica-20" x="1939.990234"/>
    <use xlink:href="#Helvetica-64" x="1967.773438"/>
    <use xlink:href="#Helvetica-61" x="2023.388672"/>
    <use xlink:href="#Helvetica-74" x="2079.003906"/>
    <use xlink:href="#Helvetica-61" x="2106.787109"/>
    <use xlink:href="#Helvetica-20" x="2162.402344"/>
    <use xlink:href="#Helvetica-2014" x="2190.185547"/>
    <use xlink:href="#Helvetica-20" x="2290.185547"/>
    <use xlink:href="#Helvetica-69" x="2317.96875"/>
    <use xlink:href="#Helvetica-73" x="2340.185547"/>
    <use xlink:href="#Helvetica-20" x="2390.185547"/>
    <use xlink:href="#Helvetica-62" x="2417.96875"/>
    <use xlink:href="#Helvetica-61" x="2473.583984"/>
    <use xlink:href="#Helvetica-72" x="2529.199219"/>
    <use xlink:href="#Helvetica-65" x="2562.5"/>
    <use xlink:href="#Helvetica-6c" x="2618.115234"/>
    <use xlink:href="#Helvetica-79" x="2640.332031"/>
    <use xlink:href="#Helvetica-20" x="2690.332031"/>
    <use xlink:href="#Helvetica-6f" x="2718.115234"/>
    <use xlink:href="#Helvetica-66" x="2773.730469"/>
    <use xlink:href="#Helvetica-66" x="2801.513672"/>
    <use xlink:href="#Helvetica-20" x="2829.296875"/>
    <use xlink:href="#Helvetica-74" x="2857.080078"/>
    <use xlink:href="#Helvetica-68" x="2884.863281"/>
    <use xlink:href="#Helvetica-65" x="2940.478516"/>
    <use xlink:href="#Helvetica-20" x="2996.09375"/>
    <use xlink:href="#Helvetica-67" x="3023.876953"/>
    <use xlink:href="#Helvetica-72" x="3079.492188"/>
    <use xlink:href="#Helvetica-6f" x="3112.792969"/>
    <use xlink:href="#Helvetica-75" x="3168.408203"/>
    <use xlink:href="#Helvetica-6e" x="3224.023438"/>
    <use xlink:href="#Helvetica-64" x="3279.638672"/>
    <use xlink:href="#Helvetica-2e" x="3335.253906"/>
   </g>
  </g>
  <g id="text_40">
   <!-- Source: GivingTuesday 2024 AI Readiness Survey (n=930). All four large gaps are paired-McNemar p &lt; 1×10⁻⁵⁸. -->
   <g style="fill: #6b7280" transform="translate(31.68 454.311375) scale(0.085 -0.085)">
    <defs>
     <path id="Helvetica-3a" d="M 709 3303 
L 1363 3303 
L 1363 2622 
L 709 2622 
L 709 3303 
z
M 709 681 
L 1363 681 
L 1363 0 
L 709 0 
L 709 681 
z
" transform="scale(0.015625)"/>
     <path id="Helvetica-52" d="M 2622 2488 
Q 3059 2488 3314 2663 
Q 3569 2838 3569 3294 
Q 3569 3784 3213 3963 
Q 3022 4056 2703 4056 
L 1184 4056 
L 1184 2488 
L 2622 2488 
z
M 563 4591 
L 2688 4591 
Q 3213 4591 3553 4438 
Q 4200 4144 4200 3353 
Q 4200 2941 4029 2678 
Q 3859 2416 3553 2256 
Q 3822 2147 3958 1969 
Q 4094 1791 4109 1391 
L 4131 775 
Q 4141 513 4175 384 
Q 4231 166 4375 103 
L 4375 0 
L 3613 0 
Q 3581 59 3562 153 
Q 3544 247 3531 516 
L 3494 1281 
Q 3472 1731 3159 1884 
Q 2981 1969 2600 1969 
L 1184 1969 
L 1184 0 
L 563 0 
L 563 4591 
z
" transform="scale(0.015625)"/>
     <path id="Helvetica-3d" d="M 3547 2569 
L 3547 2044 
L 288 2044 
L 288 2569 
L 3547 2569 
z
M 3547 1228 
L 3547 694 
L 288 694 
L 288 1228 
L 3547 1228 
z
" transform="scale(0.015625)"/>
     <path id="Helvetica-2d" d="M 266 2072 
L 1834 2072 
L 1834 1494 
L 266 1494 
L 266 2072 
z
" transform="scale(0.015625)"/>
     <path id="Helvetica-4d" d="M 472 4591 
L 1363 4591 
L 2681 709 
L 3991 4591 
L 4872 4591 
L 4872 0 
L 4281 0 
L 4281 2709 
Q 4281 2850 4287 3175 
Q 4294 3500 4294 3872 
L 2984 0 
L 2369 0 
L 1050 3872 
L 1050 3731 
Q 1050 3563 1058 3217 
Q 1066 2872 1066 2709 
L 1066 0 
L 472 0 
L 472 4591 
z
" transform="scale(0.015625)"/>
     <path id="Helvetica-3c" d="M 88 1894 
L 3741 3325 
L 3741 2763 
L 753 1634 
L 3741 503 
L 3741 -59 
L 88 1375 
L 88 1894 
z
" transform="scale(0.015625)"/>
     <path id="Helvetica-d7" d="M 363 2822 
L 731 3191 
L 1916 2006 
L 3103 3191 
L 3481 2822 
L 2294 1634 
L 3481 450 
L 3103 72 
L 1916 1256 
L 731 72 
L 363 450 
L 1547 1634 
L 363 2822 
z
" transform="scale(0.015625)"/>
     <path id="Helvetica-207b" d="M 134 3538 
L 919 3538 
L 919 3247 
L 134 3247 
L 134 3538 
z
" transform="scale(0.015625)"/>
     <path id="Helvetica-2075" d="M 394 3072 
Q 422 2831 619 2738 
Q 719 2691 850 2691 
Q 1100 2691 1220 2850 
Q 1341 3009 1341 3203 
Q 1341 3438 1197 3566 
Q 1053 3694 853 3694 
Q 709 3694 604 3637 
Q 500 3581 428 3481 
L 184 3497 
L 353 4700 
L 1516 4700 
L 1516 4428 
L 566 4428 
L 469 3806 
Q 547 3866 619 3897 
Q 744 3947 906 3947 
Q 1216 3947 1430 3748 
Q 1644 3550 1644 3247 
Q 1644 2928 1447 2686 
Q 1250 2444 822 2444 
Q 547 2444 337 2598 
Q 128 2753 103 3072 
L 394 3072 
z
" transform="scale(0.015625)"/>
     <path id="Helvetica-2078" d="M 1266 4150 
Q 1266 4275 1166 4379 
Q 1066 4484 863 4484 
Q 659 4484 568 4379 
Q 478 4275 478 4134 
Q 478 3978 595 3889 
Q 713 3800 872 3800 
Q 1056 3800 1161 3903 
Q 1266 4006 1266 4150 
z
M 1341 3113 
Q 1341 3328 1208 3440 
Q 1075 3553 869 3553 
Q 666 3553 539 3439 
Q 413 3325 413 3122 
Q 413 2947 528 2819 
Q 644 2691 888 2691 
Q 1084 2691 1212 2797 
Q 1341 2903 1341 3113 
z
M 306 3809 
Q 181 3934 181 4134 
Q 181 4384 362 4564 
Q 544 4744 878 4744 
Q 1200 4744 1383 4573 
Q 1566 4403 1566 4178 
Q 1566 3969 1459 3838 
Q 1400 3766 1275 3694 
Q 1413 3631 1494 3547 
Q 1641 3391 1641 3141 
Q 1641 2847 1442 2640 
Q 1244 2434 881 2434 
Q 556 2434 329 2612 
Q 103 2791 103 3128 
Q 103 3325 200 3470 
Q 297 3616 488 3691 
Q 372 3741 306 3809 
z
" transform="scale(0.015625)"/>
    </defs>
    <use xlink:href="#Helvetica-53"/>
    <use xlink:href="#Helvetica-6f" x="66.699219"/>
    <use xlink:href="#Helvetica-75" x="122.314453"/>
    <use xlink:href="#Helvetica-72" x="177.929688"/>
    <use xlink:href="#Helvetica-63" x="211.230469"/>
    <use xlink:href="#Helvetica-65" x="261.230469"/>
    <use xlink:href="#Helvetica-3a" x="316.845703"/>
    <use xlink:href="#Helvetica-20" x="344.628906"/>
    <use xlink:href="#Helvetica-47" x="372.412109"/>
    <use xlink:href="#Helvetica-69" x="450.195312"/>
    <use xlink:href="#Helvetica-76" x="472.412109"/>
    <use xlink:href="#Helvetica-69" x="522.412109"/>
    <use xlink:href="#Helvetica-6e" x="544.628906"/>
    <use xlink:href="#Helvetica-67" x="600.244141"/>
    <use xlink:href="#Helvetica-54" x="655.859375"/>
    <use xlink:href="#Helvetica-75" x="716.943359"/>
    <use xlink:href="#Helvetica-65" x="772.558594"/>
    <use xlink:href="#Helvetica-73" x="828.173828"/>
    <use xlink:href="#Helvetica-64" x="878.173828"/>
    <use xlink:href="#Helvetica-61" x="933.789062"/>
    <use xlink:href="#Helvetica-79" x="989.404297"/>
    <use xlink:href="#Helvetica-20" x="1039.404297"/>
    <use xlink:href="#Helvetica-32" x="1067.1875"/>
    <use xlink:href="#Helvetica-30" x="1122.802734"/>
    <use xlink:href="#Helvetica-32" x="1178.417969"/>
    <use xlink:href="#Helvetica-34" x="1234.033203"/>
    <use xlink:href="#Helvetica-20" x="1289.648438"/>
    <use xlink:href="#Helvetica-41" x="1317.431641"/>
    <use xlink:href="#Helvetica-49" x="1384.130859"/>
    <use xlink:href="#Helvetica-20" x="1411.914062"/>
    <use xlink:href="#Helvetica-52" x="1439.697266"/>
    <use xlink:href="#Helvetica-65" x="1511.914062"/>
    <use xlink:href="#Helvetica-61" x="1567.529297"/>
    <use xlink:href="#Helvetica-64" x="1623.144531"/>
    <use xlink:href="#Helvetica-69" x="1678.759766"/>
    <use xlink:href="#Helvetica-6e" x="1700.976562"/>
    <use xlink:href="#Helvetica-65" x="1756.591797"/>
    <use xlink:href="#Helvetica-73" x="1812.207031"/>
    <use xlink:href="#Helvetica-73" x="1862.207031"/>
    <use xlink:href="#Helvetica-20" x="1912.207031"/>
    <use xlink:href="#Helvetica-53" x="1939.990234"/>
    <use xlink:href="#Helvetica-75" x="2006.689453"/>
    <use xlink:href="#Helvetica-72" x="2062.304688"/>
    <use xlink:href="#Helvetica-76" x="2095.605469"/>
    <use xlink:href="#Helvetica-65" x="2145.605469"/>
    <use xlink:href="#Helvetica-79" x="2201.220703"/>
    <use xlink:href="#Helvetica-20" x="2251.220703"/>
    <use xlink:href="#Helvetica-28" x="2279.003906"/>
    <use xlink:href="#Helvetica-6e" x="2312.304688"/>
    <use xlink:href="#Helvetica-3d" x="2367.919922"/>
    <use xlink:href="#Helvetica-39" x="2426.318359"/>
    <use xlink:href="#Helvetica-33" x="2481.933594"/>
    <use xlink:href="#Helvetica-30" x="2537.548828"/>
    <use xlink:href="#Helvetica-29" x="2593.164062"/>
    <use xlink:href="#Helvetica-2e" x="2626.464844"/>
    <use xlink:href="#Helvetica-20" x="2654.248047"/>
    <use xlink:href="#Helvetica-41" x="2682.03125"/>
    <use xlink:href="#Helvetica-6c" x="2748.730469"/>
    <use xlink:href="#Helvetica-6c" x="2770.947266"/>
    <use xlink:href="#Helvetica-20" x="2793.164062"/>
    <use xlink:href="#Helvetica-66" x="2820.947266"/>
    <use xlink:href="#Helvetica-6f" x="2848.730469"/>
    <use xlink:href="#Helvetica-75" x="2904.345703"/>
    <use xlink:href="#Helvetica-72" x="2959.960938"/>
    <use xlink:href="#Helvetica-20" x="2993.261719"/>
    <use xlink:href="#Helvetica-6c" x="3021.044922"/>
    <use xlink:href="#Helvetica-61" x="3043.261719"/>
    <use xlink:href="#Helvetica-72" x="3098.876953"/>
    <use xlink:href="#Helvetica-67" x="3132.177734"/>
    <use xlink:href="#Helvetica-65" x="3187.792969"/>
    <use xlink:href="#Helvetica-20" x="3243.408203"/>
    <use xlink:href="#Helvetica-67" x="3271.191406"/>
    <use xlink:href="#Helvetica-61" x="3326.806641"/>
    <use xlink:href="#Helvetica-70" x="3382.421875"/>
    <use xlink:href="#Helvetica-73" x="3438.037109"/>
    <use xlink:href="#Helvetica-20" x="3488.037109"/>
    <use xlink:href="#Helvetica-61" x="3515.820312"/>
    <use xlink:href="#Helvetica-72" x="3571.435547"/>
    <use xlink:href="#Helvetica-65" x="3604.736328"/>
    <use xlink:href="#Helvetica-20" x="3660.351562"/>
    <use xlink:href="#Helvetica-70" x="3688.134766"/>
    <use xlink:href="#Helvetica-61" x="3743.75"/>
    <use xlink:href="#Helvetica-69" x="3799.365234"/>
    <use xlink:href="#Helvetica-72" x="3821.582031"/>
    <use xlink:href="#Helvetica-65" x="3854.882812"/>
    <use xlink:href="#Helvetica-64" x="3910.498047"/>
    <use xlink:href="#Helvetica-2d" x="3966.113281"/>
    <use xlink:href="#Helvetica-4d" x="3999.414062"/>
    <use xlink:href="#Helvetica-63" x="4082.714844"/>
    <use xlink:href="#Helvetica-4e" x="4132.714844"/>
    <use xlink:href="#Helvetica-65" x="4204.931641"/>
    <use xlink:href="#Helvetica-6d" x="4260.546875"/>
    <use xlink:href="#Helvetica-61" x="4343.847656"/>
    <use xlink:href="#Helvetica-72" x="4399.462891"/>
    <use xlink:href="#Helvetica-20" x="4432.763672"/>
    <use xlink:href="#Helvetica-70" x="4460.546875"/>
    <use xlink:href="#Helvetica-20" x="4516.162109"/>
    <use xlink:href="#Helvetica-3c" x="4543.945312"/>
    <use xlink:href="#Helvetica-20" x="4602.34375"/>
    <use xlink:href="#Helvetica-31" x="4630.126953"/>
    <use xlink:href="#Helvetica-d7" x="4685.742188"/>
    <use xlink:href="#Helvetica-31" x="4744.140625"/>
    <use xlink:href="#Helvetica-30" x="4799.755859"/>
    <use xlink:href="#Helvetica-207b" x="4855.371094"/>
    <use xlink:href="#Helvetica-2075" x="4872.021484"/>
    <use xlink:href="#Helvetica-2078" x="4899.804688"/>
    <use xlink:href="#Helvetica-2e" x="4927.636719"/>
   </g>
  </g>
 </g>
 <defs>
  <clipPath id="p0a1a86677d">
   <rect x="142.56" y="104.544" width="617.76" height="308.88"/>
  </clipPath>
 </defs>
</svg>
