<?xml version="1.0" encoding="utf-8" standalone="no"?>
<!DOCTYPE svg PUBLIC "-//W3C//DTD SVG 1.1//EN"
  "http://www.w3.org/Graphics/SVG/1.1/DTD/svg11.dtd">
<svg xmlns:xlink="http://www.w3.org/1999/xlink" width="661.163125pt" height="427.519125pt" viewBox="0 0 661.163125 427.519125" xmlns="http://www.w3.org/2000/svg" version="1.1">
 <metadata>
  <rdf:RDF xmlns:dc="http://purl.org/dc/elements/1.1/" xmlns:cc="http://creativecommons.org/ns#" xmlns:rdf="http://www.w3.org/1999/02/22-rdf-syntax-ns#">
   <cc:Work>
    <dc:type rdf:resource="http://purl.org/dc/dcmitype/StillImage"/>
    <dc:date>2026-04-27T18:49:52.971272</dc:date>
    <dc:format>image/svg+xml</dc:format>
    <dc:creator>
     <cc:Agent>
      <dc:title>Matplotlib v3.9.2, https://matplotlib.org/</dc:title>
     </cc:Agent>
    </dc:creator>
   </cc:Work>
  </rdf:RDF>
 </metadata>
 <defs>
  <style type="text/css">*{stroke-linejoin: round; stroke-linecap: butt}</style>
 </defs>
 <g id="figure_1">
  <g id="patch_1">
   <path d="M 0 427.519125 
L 661.163125 427.519125 
L 661.163125 0 
L 0 0 
z
" style="fill: #ffffff"/>
  </g>
  <g id="axes_1">
   <g id="patch_2">
    <path d="M 40.163125 326.9625 
L 653.963125 326.9625 
L 653.963125 22.0425 
L 40.163125 22.0425 
z
" style="fill: #ffffff"/>
   </g>
   <g id="patch_3">
    <path d="M 68.063125 326.9625 
L 87.353778 326.9625 
L 87.353778 275.119965 
L 68.063125 275.119965 
z
" clip-path="url(#p446536e0bf)" style="fill: #c0392b; stroke: #ffffff; stroke-linejoin: miter"/>
   </g>
   <g id="patch_4">
    <path d="M 139.509988 326.9625 
L 158.800641 326.9625 
L 158.800641 243.523627 
L 139.509988 243.523627 
z
" clip-path="url(#p446536e0bf)" style="fill: #c0392b; stroke: #ffffff; stroke-linejoin: miter"/>
   </g>
   <g id="patch_5">
    <path d="M 210.956851 326.9625 
L 230.247504 326.9625 
L 230.247504 151.141694 
L 210.956851 151.141694 
z
" clip-path="url(#p446536e0bf)" style="fill: #c0392b; stroke: #ffffff; stroke-linejoin: miter"/>
   </g>
   <g id="patch_6">
    <path d="M 282.403714 326.9625 
L 301.694367 326.9625 
L 301.694367 236.560162 
L 282.403714 236.560162 
z
" clip-path="url(#p446536e0bf)" style="fill: #c0392b; stroke: #ffffff; stroke-linejoin: miter"/>
   </g>
   <g id="patch_7">
    <path d="M 353.850577 326.9625 
L 373.14123 326.9625 
L 373.14123 260.778314 
L 353.850577 260.778314 
z
" clip-path="url(#p446536e0bf)" style="fill: #c0392b; stroke: #ffffff; stroke-linejoin: miter"/>
   </g>
   <g id="patch_8">
    <path d="M 425.29744 326.9625 
L 444.588093 326.9625 
L 444.588093 187.707697 
L 425.29744 187.707697 
z
" clip-path="url(#p446536e0bf)" style="fill: #c0392b; stroke: #ffffff; stroke-linejoin: miter"/>
   </g>
   <g id="patch_9">
    <path d="M 496.744303 326.9625 
L 516.034956 326.9625 
L 516.034956 126.85875 
L 496.744303 126.85875 
z
" clip-path="url(#p446536e0bf)" style="fill: #c0392b; stroke: #ffffff; stroke-linejoin: miter"/>
   </g>
   <g id="patch_10">
    <path d="M 568.191166 326.9625 
L 587.481819 326.9625 
L 587.481819 217.448979 
L 568.191166 217.448979 
z
" clip-path="url(#p446536e0bf)" style="fill: #c0392b; stroke: #ffffff; stroke-linejoin: miter"/>
   </g>
   <g id="patch_11">
    <path d="M 87.353778 326.9625 
L 106.644431 326.9625 
L 106.644431 321.37367 
L 87.353778 321.37367 
z
" clip-path="url(#p446536e0bf)" style="fill: #f39c12; stroke: #ffffff; stroke-linejoin: miter"/>
   </g>
   <g id="patch_12">
    <path d="M 158.800641 326.9625 
L 178.091294 326.9625 
L 178.091294 218.802198 
L 158.800641 218.802198 
z
" clip-path="url(#p446536e0bf)" style="fill: #f39c12; stroke: #ffffff; stroke-linejoin: miter"/>
   </g>
   <g id="patch_13">
    <path d="M 230.247504 326.9625 
L 249.538157 326.9625 
L 249.538157 180.865004 
L 230.247504 180.865004 
z
" clip-path="url(#p446536e0bf)" style="fill: #f39c12; stroke: #ffffff; stroke-linejoin: miter"/>
   </g>
   <g id="patch_14">
    <path d="M 301.694367 326.9625 
L 320.98502 326.9625 
L 320.98502 207.410847 
L 301.694367 207.410847 
z
" clip-path="url(#p446536e0bf)" style="fill: #f39c12; stroke: #ffffff; stroke-linejoin: miter"/>
   </g>
   <g id="patch_15">
    <path d="M 373.14123 326.9625 
L 392.431883 326.9625 
L 392.431883 262.707328 
L 373.14123 262.707328 
z
" clip-path="url(#p446536e0bf)" style="fill: #f39c12; stroke: #ffffff; stroke-linejoin: miter"/>
   </g>
   <g id="patch_16">
    <path d="M 444.588093 326.9625 
L 463.878746 326.9625 
L 463.878746 135.365259 
L 444.588093 135.365259 
z
" clip-path="url(#p446536e0bf)" style="fill: #f39c12; stroke: #ffffff; stroke-linejoin: miter"/>
   </g>
   <g id="patch_17">
    <path d="M 516.034956 326.9625 
L 535.325609 326.9625 
L 535.325609 124.467365 
L 516.034956 124.467365 
z
" clip-path="url(#p446536e0bf)" style="fill: #f39c12; stroke: #ffffff; stroke-linejoin: miter"/>
   </g>
   <g id="patch_18">
    <path d="M 587.481819 326.9625 
L 606.772472 326.9625 
L 606.772472 165.872689 
L 587.481819 165.872689 
z
" clip-path="url(#p446536e0bf)" style="fill: #f39c12; stroke: #ffffff; stroke-linejoin: miter"/>
   </g>
   <g id="patch_19">
    <path d="M 106.644431 326.9625 
L 125.935084 326.9625 
L 125.935084 210.108427 
L 106.644431 210.108427 
z
" clip-path="url(#p446536e0bf)" style="fill: #27ae60; stroke: #ffffff; stroke-linejoin: miter"/>
   </g>
   <g id="patch_20">
    <path d="M 178.091294 326.9625 
L 197.381947 326.9625 
L 197.381947 132.483341 
L 178.091294 132.483341 
z
" clip-path="url(#p446536e0bf)" style="fill: #27ae60; stroke: #ffffff; stroke-linejoin: miter"/>
   </g>
   <g id="patch_21">
    <path d="M 249.538157 326.9625 
L 268.82881 326.9625 
L 268.82881 94.91838 
L 249.538157 94.91838 
z
" clip-path="url(#p446536e0bf)" style="fill: #27ae60; stroke: #ffffff; stroke-linejoin: miter"/>
   </g>
   <g id="patch_22">
    <path d="M 320.98502 326.9625 
L 340.275673 326.9625 
L 340.275673 171.762301 
L 320.98502 171.762301 
z
" clip-path="url(#p446536e0bf)" style="fill: #27ae60; stroke: #ffffff; stroke-linejoin: miter"/>
   </g>
   <g id="patch_23">
    <path d="M 392.431883 326.9625 
L 411.722536 326.9625 
L 411.722536 219.37864 
L 392.431883 219.37864 
z
" clip-path="url(#p446536e0bf)" style="fill: #27ae60; stroke: #ffffff; stroke-linejoin: miter"/>
   </g>
   <g id="patch_24">
    <path d="M 463.878746 326.9625 
L 483.169399 326.9625 
L 483.169399 97.236364 
L 463.878746 97.236364 
z
" clip-path="url(#p446536e0bf)" style="fill: #27ae60; stroke: #ffffff; stroke-linejoin: miter"/>
   </g>
   <g id="patch_25">
    <path d="M 535.325609 326.9625 
L 554.616262 326.9625 
L 554.616262 95.009737 
L 535.325609 95.009737 
z
" clip-path="url(#p446536e0bf)" style="fill: #27ae60; stroke: #ffffff; stroke-linejoin: miter"/>
   </g>
   <g id="patch_26">
    <path d="M 606.772472 326.9625 
L 626.063125 326.9625 
L 626.063125 255.250913 
L 606.772472 255.250913 
z
" clip-path="url(#p446536e0bf)" style="fill: #27ae60; stroke: #ffffff; stroke-linejoin: miter"/>
   </g>
   <g id="matplotlib.axis_1">
    <g id="xtick_1">
     <g id="line2d_1">
      <path d="M 96.999105 326.9625 
L 96.999105 22.0425 
" clip-path="url(#p446536e0bf)" style="fill: none; stroke: #eeeeee; stroke-width: 0.5; stroke-linecap: square"/>
     </g>
     <g id="line2d_2">
      <defs>
       <path id="m4bc4bd25b6" d="M 0 0 
L 0 3.5 
" style="stroke: #222222; stroke-width: 0.8"/>
      </defs>
      <g>
       <use xlink:href="#m4bc4bd25b6" x="96.999105" y="326.9625" style="fill: #222222; stroke: #222222; stroke-width: 0.8"/>
      </g>
     </g>
     <g id="text_1">
      <!-- Avg AI tasks today -->
      <g style="fill: #222222" transform="translate(28.608039 371.331687) rotate(-25) scale(0.09 -0.09)">
       <defs>
        <path id="Helvetica-41" d="M 2844 1881 
L 2147 3909 
L 1406 1881 
L 2844 1881 
z
M 1822 4591 
L 2525 4591 
L 4191 0 
L 3509 0 
L 3044 1375 
L 1228 1375 
L 731 0 
L 94 0 
L 1822 4591 
z
" transform="scale(0.015625)"/>
        <path id="Helvetica-76" d="M 688 3347 
L 1581 622 
L 2516 3347 
L 3131 3347 
L 1869 0 
L 1269 0 
L 34 3347 
L 688 3347 
z
" transform="scale(0.015625)"/>
        <path id="Helvetica-67" d="M 1594 3406 
Q 1988 3406 2281 3213 
Q 2441 3103 2606 2894 
L 2606 3316 
L 3125 3316 
L 3125 272 
Q 3125 -366 2938 -734 
Q 2588 -1416 1616 -1416 
Q 1075 -1416 706 -1173 
Q 338 -931 294 -416 
L 866 -416 
Q 906 -641 1028 -763 
Q 1219 -950 1628 -950 
Q 2275 -950 2475 -494 
Q 2594 -225 2584 466 
Q 2416 209 2178 84 
Q 1941 -41 1550 -41 
Q 1006 -41 598 345 
Q 191 731 191 1622 
Q 191 2463 602 2934 
Q 1013 3406 1594 3406 
z
M 2606 1688 
Q 2606 2309 2350 2609 
Q 2094 2909 1697 2909 
Q 1103 2909 884 2353 
Q 769 2056 769 1575 
Q 769 1009 998 714 
Q 1228 419 1616 419 
Q 2222 419 2469 966 
Q 2606 1275 2606 1688 
z
M 1659 3428 
L 1659 3428 
z
" transform="scale(0.015625)"/>
        <path id="Helvetica-20" transform="scale(0.015625)"/>
        <path id="Helvetica-49" d="M 628 4591 
L 1256 4591 
L 1256 0 
L 628 0 
L 628 4591 
z
" transform="scale(0.015625)"/>
        <path id="Helvetica-74" d="M 525 4281 
L 1094 4281 
L 1094 3347 
L 1628 3347 
L 1628 2888 
L 1094 2888 
L 1094 703 
Q 1094 528 1213 469 
Q 1278 434 1431 434 
Q 1472 434 1519 436 
Q 1566 438 1628 444 
L 1628 0 
Q 1531 -28 1426 -40 
Q 1322 -53 1200 -53 
Q 806 -53 665 148 
Q 525 350 525 672 
L 525 2888 
L 72 2888 
L 72 3347 
L 525 3347 
L 525 4281 
z
" transform="scale(0.015625)"/>
        <path id="Helvetica-61" d="M 844 891 
Q 844 647 1022 506 
Q 1200 366 1444 366 
Q 1741 366 2019 503 
Q 2488 731 2488 1250 
L 2488 1703 
Q 2384 1638 2221 1594 
Q 2059 1550 1903 1531 
L 1563 1488 
Q 1256 1447 1103 1359 
Q 844 1213 844 891 
z
M 2206 2028 
Q 2400 2053 2466 2191 
Q 2503 2266 2503 2406 
Q 2503 2694 2298 2823 
Q 2094 2953 1713 2953 
Q 1272 2953 1088 2716 
Q 984 2584 953 2325 
L 428 2325 
Q 444 2944 830 3186 
Q 1216 3428 1725 3428 
Q 2316 3428 2684 3203 
Q 3050 2978 3050 2503 
L 3050 575 
Q 3050 488 3086 434 
Q 3122 381 3238 381 
Q 3275 381 3322 386 
Q 3369 391 3422 400 
L 3422 -16 
Q 3291 -53 3222 -62 
Q 3153 -72 3034 -72 
Q 2744 -72 2613 134 
Q 2544 244 2516 444 
Q 2344 219 2022 53 
Q 1700 -113 1313 -113 
Q 847 -113 551 170 
Q 256 453 256 878 
Q 256 1344 547 1600 
Q 838 1856 1309 1916 
L 2206 2028 
z
M 1741 3428 
L 1741 3428 
z
" transform="scale(0.015625)"/>
        <path id="Helvetica-73" d="M 747 1050 
Q 772 769 888 619 
Q 1100 347 1625 347 
Q 1938 347 2175 483 
Q 2413 619 2413 903 
Q 2413 1119 2222 1231 
Q 2100 1300 1741 1391 
L 1294 1503 
Q 866 1609 663 1741 
Q 300 1969 300 2372 
Q 300 2847 642 3140 
Q 984 3434 1563 3434 
Q 2319 3434 2653 2991 
Q 2863 2709 2856 2384 
L 2325 2384 
Q 2309 2575 2191 2731 
Q 1997 2953 1519 2953 
Q 1200 2953 1036 2831 
Q 872 2709 872 2509 
Q 872 2291 1088 2159 
Q 1213 2081 1456 2022 
L 1828 1931 
Q 2434 1784 2641 1647 
Q 2969 1431 2969 969 
Q 2969 522 2630 197 
Q 2291 -128 1597 -128 
Q 850 -128 539 211 
Q 228 550 206 1050 
L 747 1050 
z
M 1578 3428 
L 1578 3428 
z
" transform="scale(0.015625)"/>
        <path id="Helvetica-6b" d="M 400 4591 
L 941 4591 
L 941 1925 
L 2384 3347 
L 3103 3347 
L 1822 2094 
L 3175 0 
L 2456 0 
L 1413 1688 
L 941 1256 
L 941 0 
L 400 0 
L 400 4591 
z
" transform="scale(0.015625)"/>
        <path id="Helvetica-6f" d="M 1741 363 
Q 2300 363 2508 786 
Q 2716 1209 2716 1728 
Q 2716 2197 2566 2491 
Q 2328 2953 1747 2953 
Q 1231 2953 997 2559 
Q 763 2166 763 1609 
Q 763 1075 997 719 
Q 1231 363 1741 363 
z
M 1763 3444 
Q 2409 3444 2856 3012 
Q 3303 2581 3303 1744 
Q 3303 934 2909 406 
Q 2516 -122 1688 -122 
Q 997 -122 590 345 
Q 184 813 184 1600 
Q 184 2444 612 2944 
Q 1041 3444 1763 3444 
z
M 1744 3428 
L 1744 3428 
z
" transform="scale(0.015625)"/>
        <path id="Helvetica-64" d="M 769 1634 
Q 769 1097 997 734 
Q 1225 372 1728 372 
Q 2119 372 2370 708 
Q 2622 1044 2622 1672 
Q 2622 2306 2362 2611 
Q 2103 2916 1722 2916 
Q 1297 2916 1033 2591 
Q 769 2266 769 1634 
z
M 1616 3406 
Q 2000 3406 2259 3244 
Q 2409 3150 2600 2916 
L 2600 4606 
L 3141 4606 
L 3141 0 
L 2634 0 
L 2634 466 
Q 2438 156 2169 18 
Q 1900 -119 1553 -119 
Q 994 -119 584 351 
Q 175 822 175 1603 
Q 175 2334 548 2870 
Q 922 3406 1616 3406 
z
" transform="scale(0.015625)"/>
        <path id="Helvetica-79" d="M 2503 3347 
L 3125 3347 
Q 3006 3025 2597 1878 
Q 2291 1016 2084 472 
Q 1597 -809 1397 -1090 
Q 1197 -1372 709 -1372 
Q 591 -1372 527 -1362 
Q 463 -1353 369 -1328 
L 369 -816 
Q 516 -856 581 -865 
Q 647 -875 697 -875 
Q 853 -875 926 -823 
Q 1000 -772 1050 -697 
Q 1066 -672 1162 -440 
Q 1259 -209 1303 -97 
L 66 3347 
L 703 3347 
L 1600 622 
L 2503 3347 
z
M 1597 3428 
L 1597 3428 
z
" transform="scale(0.015625)"/>
       </defs>
       <use xlink:href="#Helvetica-41"/>
       <use xlink:href="#Helvetica-76" x="66.699219"/>
       <use xlink:href="#Helvetica-67" x="116.699219"/>
       <use xlink:href="#Helvetica-20" x="172.314453"/>
       <use xlink:href="#Helvetica-41" x="200.097656"/>
       <use xlink:href="#Helvetica-49" x="266.796875"/>
       <use xlink:href="#Helvetica-20" x="294.580078"/>
       <use xlink:href="#Helvetica-74" x="322.363281"/>
       <use xlink:href="#Helvetica-61" x="350.146484"/>
       <use xlink:href="#Helvetica-73" x="405.761719"/>
       <use xlink:href="#Helvetica-6b" x="455.761719"/>
       <use xlink:href="#Helvetica-73" x="505.761719"/>
       <use xlink:href="#Helvetica-20" x="555.761719"/>
       <use xlink:href="#Helvetica-74" x="583.544922"/>
       <use xlink:href="#Helvetica-6f" x="611.328125"/>
       <use xlink:href="#Helvetica-64" x="666.943359"/>
       <use xlink:href="#Helvetica-61" x="722.558594"/>
       <use xlink:href="#Helvetica-79" x="778.173828"/>
      </g>
     </g>
    </g>
    <g id="xtick_2">
     <g id="line2d_3">
      <path d="M 168.445968 326.9625 
L 168.445968 22.0425 
" clip-path="url(#p446536e0bf)" style="fill: none; stroke: #eeeeee; stroke-width: 0.5; stroke-linecap: square"/>
     </g>
     <g id="line2d_4">
      <g>
       <use xlink:href="#m4bc4bd25b6" x="168.445968" y="326.9625" style="fill: #222222; stroke: #222222; stroke-width: 0.8"/>
      </g>
     </g>
     <g id="text_2">
      <!-- Avg AI tasks wanted -->
      <g style="fill: #222222" transform="translate(93.706641 374.29193) rotate(-25) scale(0.09 -0.09)">
       <defs>
        <path id="Helvetica-77" d="M 672 3347 
L 1316 709 
L 1969 3347 
L 2600 3347 
L 3256 725 
L 3941 3347 
L 4503 3347 
L 3531 0 
L 2947 0 
L 2266 2591 
L 1606 0 
L 1022 0 
L 56 3347 
L 672 3347 
z
" transform="scale(0.015625)"/>
        <path id="Helvetica-6e" d="M 413 3347 
L 947 3347 
L 947 2872 
Q 1184 3166 1450 3294 
Q 1716 3422 2041 3422 
Q 2753 3422 3003 2925 
Q 3141 2653 3141 2147 
L 3141 0 
L 2569 0 
L 2569 2109 
Q 2569 2416 2478 2603 
Q 2328 2916 1934 2916 
Q 1734 2916 1606 2875 
Q 1375 2806 1200 2600 
Q 1059 2434 1017 2257 
Q 975 2081 975 1753 
L 975 0 
L 413 0 
L 413 3347 
z
M 1734 3428 
L 1734 3428 
z
" transform="scale(0.015625)"/>
        <path id="Helvetica-65" d="M 1806 3422 
Q 2163 3422 2497 3255 
Q 2831 3088 3006 2822 
Q 3175 2569 3231 2231 
Q 3281 2000 3281 1494 
L 828 1494 
Q 844 984 1069 676 
Q 1294 369 1766 369 
Q 2206 369 2469 659 
Q 2619 828 2681 1050 
L 3234 1050 
Q 3213 866 3089 639 
Q 2966 413 2813 269 
Q 2556 19 2178 -69 
Q 1975 -119 1719 -119 
Q 1094 -119 659 336 
Q 225 791 225 1609 
Q 225 2416 662 2919 
Q 1100 3422 1806 3422 
z
M 2703 1941 
Q 2669 2306 2544 2525 
Q 2313 2931 1772 2931 
Q 1384 2931 1121 2651 
Q 859 2372 844 1941 
L 2703 1941 
z
M 1753 3428 
L 1753 3428 
z
" transform="scale(0.015625)"/>
       </defs>
       <use xlink:href="#Helvetica-41"/>
       <use xlink:href="#Helvetica-76" x="66.699219"/>
       <use xlink:href="#Helvetica-67" x="116.699219"/>
       <use xlink:href="#Helvetica-20" x="172.314453"/>
       <use xlink:href="#Helvetica-41" x="200.097656"/>
       <use xlink:href="#Helvetica-49" x="266.796875"/>
       <use xlink:href="#Helvetica-20" x="294.580078"/>
       <use xlink:href="#Helvetica-74" x="322.363281"/>
       <use xlink:href="#Helvetica-61" x="350.146484"/>
       <use xlink:href="#Helvetica-73" x="405.761719"/>
       <use xlink:href="#Helvetica-6b" x="455.761719"/>
       <use xlink:href="#Helvetica-73" x="505.761719"/>
       <use xlink:href="#Helvetica-20" x="555.761719"/>
       <use xlink:href="#Helvetica-77" x="583.544922"/>
       <use xlink:href="#Helvetica-61" x="655.761719"/>
       <use xlink:href="#Helvetica-6e" x="711.376953"/>
       <use xlink:href="#Helvetica-74" x="766.992188"/>
       <use xlink:href="#Helvetica-65" x="794.775391"/>
       <use xlink:href="#Helvetica-64" x="850.390625"/>
      </g>
     </g>
    </g>
    <g id="xtick_3">
     <g id="line2d_5">
      <path d="M 239.892831 326.9625 
L 239.892831 22.0425 
" clip-path="url(#p446536e0bf)" style="fill: none; stroke: #eeeeee; stroke-width: 0.5; stroke-linecap: square"/>
     </g>
     <g id="line2d_6">
      <g>
       <use xlink:href="#m4bc4bd25b6" x="239.892831" y="326.9625" style="fill: #222222; stroke: #222222; stroke-width: 0.8"/>
      </g>
     </g>
     <g id="text_3">
      <!-- Person AI comfort -->
      <g style="fill: #222222" transform="translate(173.825472 370.251732) rotate(-25) scale(0.09 -0.09)">
       <defs>
        <path id="Helvetica-50" d="M 547 4591 
L 2613 4591 
Q 3225 4591 3600 4245 
Q 3975 3900 3975 3275 
Q 3975 2738 3640 2339 
Q 3306 1941 2613 1941 
L 1169 1941 
L 1169 0 
L 547 0 
L 547 4591 
z
M 3347 3272 
Q 3347 3778 2972 3959 
Q 2766 4056 2406 4056 
L 1169 4056 
L 1169 2466 
L 2406 2466 
Q 2825 2466 3086 2644 
Q 3347 2822 3347 3272 
z
" transform="scale(0.015625)"/>
        <path id="Helvetica-72" d="M 428 3347 
L 963 3347 
L 963 2769 
Q 1028 2938 1284 3180 
Q 1541 3422 1875 3422 
Q 1891 3422 1928 3419 
Q 1966 3416 2056 3406 
L 2056 2813 
Q 2006 2822 1964 2825 
Q 1922 2828 1872 2828 
Q 1447 2828 1219 2554 
Q 991 2281 991 1925 
L 991 0 
L 428 0 
L 428 3347 
z
" transform="scale(0.015625)"/>
        <path id="Helvetica-63" d="M 1703 3444 
Q 2269 3444 2623 3169 
Q 2978 2894 3050 2222 
L 2503 2222 
Q 2453 2531 2275 2736 
Q 2097 2941 1703 2941 
Q 1166 2941 934 2416 
Q 784 2075 784 1575 
Q 784 1072 996 728 
Q 1209 384 1666 384 
Q 2016 384 2220 598 
Q 2425 813 2503 1184 
L 3050 1184 
Q 2956 519 2581 211 
Q 2206 -97 1622 -97 
Q 966 -97 575 383 
Q 184 863 184 1581 
Q 184 2463 612 2953 
Q 1041 3444 1703 3444 
z
M 1616 3428 
L 1616 3428 
z
" transform="scale(0.015625)"/>
        <path id="Helvetica-6d" d="M 413 3347 
L 969 3347 
L 969 2872 
Q 1169 3119 1331 3231 
Q 1609 3422 1963 3422 
Q 2363 3422 2606 3225 
Q 2744 3113 2856 2894 
Q 3044 3163 3297 3292 
Q 3550 3422 3866 3422 
Q 4541 3422 4784 2934 
Q 4916 2672 4916 2228 
L 4916 0 
L 4331 0 
L 4331 2325 
Q 4331 2659 4164 2784 
Q 3997 2909 3756 2909 
Q 3425 2909 3186 2687 
Q 2947 2466 2947 1947 
L 2947 0 
L 2375 0 
L 2375 2184 
Q 2375 2525 2294 2681 
Q 2166 2916 1816 2916 
Q 1497 2916 1236 2669 
Q 975 2422 975 1775 
L 975 0 
L 413 0 
L 413 3347 
z
" transform="scale(0.015625)"/>
        <path id="Helvetica-66" d="M 553 3856 
Q 566 4206 675 4369 
Q 872 4656 1434 4656 
Q 1488 4656 1544 4653 
Q 1600 4650 1672 4644 
L 1672 4131 
Q 1584 4138 1545 4139 
Q 1506 4141 1472 4141 
Q 1216 4141 1166 4008 
Q 1116 3875 1116 3331 
L 1672 3331 
L 1672 2888 
L 1109 2888 
L 1109 0 
L 553 0 
L 553 2888 
L 88 2888 
L 88 3331 
L 553 3331 
L 553 3856 
z
" transform="scale(0.015625)"/>
       </defs>
       <use xlink:href="#Helvetica-50"/>
       <use xlink:href="#Helvetica-65" x="66.699219"/>
       <use xlink:href="#Helvetica-72" x="122.314453"/>
       <use xlink:href="#Helvetica-73" x="155.615234"/>
       <use xlink:href="#Helvetica-6f" x="205.615234"/>
       <use xlink:href="#Helvetica-6e" x="261.230469"/>
       <use xlink:href="#Helvetica-20" x="316.845703"/>
       <use xlink:href="#Helvetica-41" x="344.628906"/>
       <use xlink:href="#Helvetica-49" x="411.328125"/>
       <use xlink:href="#Helvetica-20" x="439.111328"/>
       <use xlink:href="#Helvetica-63" x="466.894531"/>
       <use xlink:href="#Helvetica-6f" x="516.894531"/>
       <use xlink:href="#Helvetica-6d" x="572.509766"/>
       <use xlink:href="#Helvetica-66" x="655.810547"/>
       <use xlink:href="#Helvetica-6f" x="683.59375"/>
       <use xlink:href="#Helvetica-72" x="739.208984"/>
       <use xlink:href="#Helvetica-74" x="772.509766"/>
      </g>
     </g>
    </g>
    <g id="xtick_4">
     <g id="line2d_7">
      <path d="M 311.339694 326.9625 
L 311.339694 22.0425 
" clip-path="url(#p446536e0bf)" style="fill: none; stroke: #eeeeee; stroke-width: 0.5; stroke-linecap: square"/>
     </g>
     <g id="line2d_8">
      <g>
       <use xlink:href="#m4bc4bd25b6" x="311.339694" y="326.9625" style="fill: #222222; stroke: #222222; stroke-width: 0.8"/>
      </g>
     </g>
     <g id="text_4">
      <!-- Data readiness -->
      <g style="fill: #222222" transform="translate(255.687511 365.395056) rotate(-25) scale(0.09 -0.09)">
       <defs>
        <path id="Helvetica-44" d="M 2250 531 
Q 2566 531 2769 597 
Q 3131 719 3363 1066 
Q 3547 1344 3628 1778 
Q 3675 2038 3675 2259 
Q 3675 3113 3336 3584 
Q 2997 4056 2244 4056 
L 1141 4056 
L 1141 531 
L 2250 531 
z
M 516 4591 
L 2375 4591 
Q 3322 4591 3844 3919 
Q 4309 3313 4309 2366 
Q 4309 1634 4034 1044 
Q 3550 0 2369 0 
L 516 0 
L 516 4591 
z
" transform="scale(0.015625)"/>
        <path id="Helvetica-69" d="M 413 3331 
L 984 3331 
L 984 0 
L 413 0 
L 413 3331 
z
M 413 4591 
L 984 4591 
L 984 3953 
L 413 3953 
L 413 4591 
z
" transform="scale(0.015625)"/>
       </defs>
       <use xlink:href="#Helvetica-44"/>
       <use xlink:href="#Helvetica-61" x="72.216797"/>
       <use xlink:href="#Helvetica-74" x="127.832031"/>
       <use xlink:href="#Helvetica-61" x="155.615234"/>
       <use xlink:href="#Helvetica-20" x="211.230469"/>
       <use xlink:href="#Helvetica-72" x="239.013672"/>
       <use xlink:href="#Helvetica-65" x="272.314453"/>
       <use xlink:href="#Helvetica-61" x="327.929688"/>
       <use xlink:href="#Helvetica-64" x="383.544922"/>
       <use xlink:href="#Helvetica-69" x="439.160156"/>
       <use xlink:href="#Helvetica-6e" x="461.376953"/>
       <use xlink:href="#Helvetica-65" x="516.992188"/>
       <use xlink:href="#Helvetica-73" x="572.607422"/>
       <use xlink:href="#Helvetica-73" x="622.607422"/>
      </g>
     </g>
    </g>
    <g id="xtick_5">
     <g id="line2d_9">
      <path d="M 382.786556 326.9625 
L 382.786556 22.0425 
" clip-path="url(#p446536e0bf)" style="fill: none; stroke: #eeeeee; stroke-width: 0.5; stroke-linecap: square"/>
     </g>
     <g id="line2d_10">
      <g>
       <use xlink:href="#m4bc4bd25b6" x="382.786556" y="326.9625" style="fill: #222222; stroke: #222222; stroke-width: 0.8"/>
      </g>
     </g>
     <g id="text_5">
      <!-- Has tech specialist -->
      <g style="fill: #222222" transform="translate(313.994327 371.541477) rotate(-25) scale(0.09 -0.09)">
       <defs>
        <path id="Helvetica-48" d="M 503 4591 
L 1131 4591 
L 1131 2694 
L 3519 2694 
L 3519 4591 
L 4147 4591 
L 4147 0 
L 3519 0 
L 3519 2147 
L 1131 2147 
L 1131 0 
L 503 0 
L 503 4591 
z
" transform="scale(0.015625)"/>
        <path id="Helvetica-68" d="M 413 4606 
L 975 4606 
L 975 2894 
Q 1175 3147 1334 3250 
Q 1606 3428 2013 3428 
Q 2741 3428 3000 2919 
Q 3141 2641 3141 2147 
L 3141 0 
L 2563 0 
L 2563 2109 
Q 2563 2478 2469 2650 
Q 2316 2925 1894 2925 
Q 1544 2925 1259 2684 
Q 975 2444 975 1775 
L 975 0 
L 413 0 
L 413 4606 
z
" transform="scale(0.015625)"/>
        <path id="Helvetica-70" d="M 1825 378 
Q 2219 378 2480 708 
Q 2741 1038 2741 1694 
Q 2741 2094 2625 2381 
Q 2406 2934 1825 2934 
Q 1241 2934 1025 2350 
Q 909 2038 909 1556 
Q 909 1169 1025 897 
Q 1244 378 1825 378 
z
M 369 3331 
L 916 3331 
L 916 2888 
Q 1084 3116 1284 3241 
Q 1569 3428 1953 3428 
Q 2522 3428 2919 2992 
Q 3316 2556 3316 1747 
Q 3316 653 2744 184 
Q 2381 -113 1900 -113 
Q 1522 -113 1266 53 
Q 1116 147 931 375 
L 931 -1334 
L 369 -1334 
L 369 3331 
z
" transform="scale(0.015625)"/>
        <path id="Helvetica-6c" d="M 428 4591 
L 991 4591 
L 991 0 
L 428 0 
L 428 4591 
z
" transform="scale(0.015625)"/>
       </defs>
       <use xlink:href="#Helvetica-48"/>
       <use xlink:href="#Helvetica-61" x="72.216797"/>
       <use xlink:href="#Helvetica-73" x="127.832031"/>
       <use xlink:href="#Helvetica-20" x="177.832031"/>
       <use xlink:href="#Helvetica-74" x="205.615234"/>
       <use xlink:href="#Helvetica-65" x="233.398438"/>
       <use xlink:href="#Helvetica-63" x="289.013672"/>
       <use xlink:href="#Helvetica-68" x="339.013672"/>
       <use xlink:href="#Helvetica-20" x="394.628906"/>
       <use xlink:href="#Helvetica-73" x="422.412109"/>
       <use xlink:href="#Helvetica-70" x="472.412109"/>
       <use xlink:href="#Helvetica-65" x="528.027344"/>
       <use xlink:href="#Helvetica-63" x="583.642578"/>
       <use xlink:href="#Helvetica-69" x="633.642578"/>
       <use xlink:href="#Helvetica-61" x="655.859375"/>
       <use xlink:href="#Helvetica-6c" x="711.474609"/>
       <use xlink:href="#Helvetica-69" x="733.691406"/>
       <use xlink:href="#Helvetica-73" x="755.908203"/>
       <use xlink:href="#Helvetica-74" x="805.908203"/>
      </g>
     </g>
    </g>
    <g id="xtick_6">
     <g id="line2d_11">
      <path d="M 454.233419 326.9625 
L 454.233419 22.0425 
" clip-path="url(#p446536e0bf)" style="fill: none; stroke: #eeeeee; stroke-width: 0.5; stroke-linecap: square"/>
     </g>
     <g id="line2d_12">
      <g>
       <use xlink:href="#m4bc4bd25b6" x="454.233419" y="326.9625" style="fill: #222222; stroke: #222222; stroke-width: 0.8"/>
      </g>
     </g>
     <g id="text_6">
      <!-- Uses cloud -->
      <g style="fill: #222222" transform="translate(413.092641 358.628277) rotate(-25) scale(0.09 -0.09)">
       <defs>
        <path id="Helvetica-55" d="M 1163 4591 
L 1163 1753 
Q 1163 1253 1350 922 
Q 1628 422 2288 422 
Q 3078 422 3363 963 
Q 3516 1256 3516 1753 
L 3516 4591 
L 4147 4591 
L 4147 2013 
Q 4147 1166 3919 709 
Q 3500 -122 2338 -122 
Q 1175 -122 759 709 
Q 531 1166 531 2013 
L 531 4591 
L 1163 4591 
z
M 2341 4591 
L 2341 4591 
z
" transform="scale(0.015625)"/>
        <path id="Helvetica-75" d="M 975 3347 
L 975 1125 
Q 975 869 1056 706 
Q 1206 406 1616 406 
Q 2203 406 2416 931 
Q 2531 1213 2531 1703 
L 2531 3347 
L 3094 3347 
L 3094 0 
L 2563 0 
L 2569 494 
Q 2459 303 2297 172 
Q 1975 -91 1516 -91 
Q 800 -91 541 388 
Q 400 644 400 1072 
L 400 3347 
L 975 3347 
z
M 1747 3428 
L 1747 3428 
z
" transform="scale(0.015625)"/>
       </defs>
       <use xlink:href="#Helvetica-55"/>
       <use xlink:href="#Helvetica-73" x="72.216797"/>
       <use xlink:href="#Helvetica-65" x="122.216797"/>
       <use xlink:href="#Helvetica-73" x="177.832031"/>
       <use xlink:href="#Helvetica-20" x="227.832031"/>
       <use xlink:href="#Helvetica-63" x="255.615234"/>
       <use xlink:href="#Helvetica-6c" x="305.615234"/>
       <use xlink:href="#Helvetica-6f" x="327.832031"/>
       <use xlink:href="#Helvetica-75" x="383.447266"/>
       <use xlink:href="#Helvetica-64" x="439.0625"/>
      </g>
     </g>
    </g>
    <g id="xtick_7">
     <g id="line2d_13">
      <path d="M 525.680282 326.9625 
L 525.680282 22.0425 
" clip-path="url(#p446536e0bf)" style="fill: none; stroke: #eeeeee; stroke-width: 0.5; stroke-linecap: square"/>
     </g>
     <g id="line2d_14">
      <g>
       <use xlink:href="#m4bc4bd25b6" x="525.680282" y="326.9625" style="fill: #222222; stroke: #222222; stroke-width: 0.8"/>
      </g>
     </g>
     <g id="text_7">
      <!-- Has data policy -->
      <g style="fill: #222222" transform="translate(469.100625 365.836131) rotate(-25) scale(0.09 -0.09)">
       <use xlink:href="#Helvetica-48"/>
       <use xlink:href="#Helvetica-61" x="72.216797"/>
       <use xlink:href="#Helvetica-73" x="127.832031"/>
       <use xlink:href="#Helvetica-20" x="177.832031"/>
       <use xlink:href="#Helvetica-64" x="205.615234"/>
       <use xlink:href="#Helvetica-61" x="261.230469"/>
       <use xlink:href="#Helvetica-74" x="316.845703"/>
       <use xlink:href="#Helvetica-61" x="344.628906"/>
       <use xlink:href="#Helvetica-20" x="400.244141"/>
       <use xlink:href="#Helvetica-70" x="428.027344"/>
       <use xlink:href="#Helvetica-6f" x="483.642578"/>
       <use xlink:href="#Helvetica-6c" x="539.257812"/>
       <use xlink:href="#Helvetica-69" x="561.474609"/>
       <use xlink:href="#Helvetica-63" x="583.691406"/>
       <use xlink:href="#Helvetica-79" x="633.691406"/>
      </g>
     </g>
    </g>
    <g id="xtick_8">
     <g id="line2d_15">
      <path d="M 597.127145 326.9625 
L 597.127145 22.0425 
" clip-path="url(#p446536e0bf)" style="fill: none; stroke: #eeeeee; stroke-width: 0.5; stroke-linecap: square"/>
     </g>
     <g id="line2d_16">
      <g>
       <use xlink:href="#m4bc4bd25b6" x="597.127145" y="326.9625" style="fill: #222222; stroke: #222222; stroke-width: 0.8"/>
      </g>
     </g>
     <g id="text_8">
      <!-- Says 'don't understand AI' -->
      <g style="fill: #222222" transform="translate(502.315177 383.804345) rotate(-25) scale(0.09 -0.09)">
       <defs>
        <path id="Helvetica-53" d="M 894 1481 
Q 916 1091 1078 847 
Q 1388 391 2169 391 
Q 2519 391 2806 491 
Q 3363 684 3363 1184 
Q 3363 1559 3128 1719 
Q 2891 1875 2384 1991 
L 1763 2131 
Q 1153 2269 900 2434 
Q 463 2722 463 3294 
Q 463 3913 891 4309 
Q 1319 4706 2103 4706 
Q 2825 4706 3329 4357 
Q 3834 4009 3834 3244 
L 3250 3244 
Q 3203 3613 3050 3809 
Q 2766 4169 2084 4169 
Q 1534 4169 1293 3937 
Q 1053 3706 1053 3400 
Q 1053 3063 1334 2906 
Q 1519 2806 2169 2656 
L 2813 2509 
Q 3278 2403 3531 2219 
Q 3969 1897 3969 1284 
Q 3969 522 3414 194 
Q 2859 -134 2125 -134 
Q 1269 -134 784 303 
Q 300 738 309 1481 
L 894 1481 
z
M 2150 4716 
L 2150 4716 
z
" transform="scale(0.015625)"/>
        <path id="Helvetica-27" d="M 1056 4591 
L 953 2753 
L 591 2753 
L 488 4591 
L 1056 4591 
z
" transform="scale(0.015625)"/>
       </defs>
       <use xlink:href="#Helvetica-53"/>
       <use xlink:href="#Helvetica-61" x="66.699219"/>
       <use xlink:href="#Helvetica-79" x="122.314453"/>
       <use xlink:href="#Helvetica-73" x="172.314453"/>
       <use xlink:href="#Helvetica-20" x="222.314453"/>
       <use xlink:href="#Helvetica-27" x="250.097656"/>
       <use xlink:href="#Helvetica-64" x="269.189453"/>
       <use xlink:href="#Helvetica-6f" x="324.804688"/>
       <use xlink:href="#Helvetica-6e" x="380.419922"/>
       <use xlink:href="#Helvetica-27" x="436.035156"/>
       <use xlink:href="#Helvetica-74" x="455.126953"/>
       <use xlink:href="#Helvetica-20" x="482.910156"/>
       <use xlink:href="#Helvetica-75" x="510.693359"/>
       <use xlink:href="#Helvetica-6e" x="566.308594"/>
       <use xlink:href="#Helvetica-64" x="621.923828"/>
       <use xlink:href="#Helvetica-65" x="677.539062"/>
       <use xlink:href="#Helvetica-72" x="733.154297"/>
       <use xlink:href="#Helvetica-73" x="766.455078"/>
       <use xlink:href="#Helvetica-74" x="816.455078"/>
       <use xlink:href="#Helvetica-61" x="844.238281"/>
       <use xlink:href="#Helvetica-6e" x="899.853516"/>
       <use xlink:href="#Helvetica-64" x="955.46875"/>
       <use xlink:href="#Helvetica-20" x="1011.083984"/>
       <use xlink:href="#Helvetica-41" x="1038.867188"/>
       <use xlink:href="#Helvetica-49" x="1105.566406"/>
       <use xlink:href="#Helvetica-27" x="1133.349609"/>
      </g>
     </g>
    </g>
   </g>
   <g id="matplotlib.axis_2">
    <g id="ytick_1">
     <g id="line2d_17">
      <path d="M 40.163125 326.9625 
L 653.963125 326.9625 
" clip-path="url(#p446536e0bf)" style="fill: none; stroke: #eeeeee; stroke-width: 0.5; stroke-linecap: square"/>
     </g>
     <g id="line2d_18">
      <defs>
       <path id="ma1542dd16c" d="M 0 0 
L -3.5 0 
" style="stroke: #222222; stroke-width: 0.8"/>
      </defs>
      <g>
       <use xlink:href="#ma1542dd16c" x="40.163125" y="326.9625" style="fill: #222222; stroke: #222222; stroke-width: 0.8"/>
      </g>
     </g>
     <g id="text_9">
      <!-- 0.0 -->
      <g style="fill: #222222" transform="translate(20.653125 330.190547) scale(0.09 -0.09)">
       <defs>
        <path id="Helvetica-30" d="M 1731 4475 
Q 2600 4475 2988 3759 
Q 3288 3206 3288 2244 
Q 3288 1331 3016 734 
Q 2622 -122 1728 -122 
Q 922 -122 528 578 
Q 200 1163 200 2147 
Q 200 2909 397 3456 
Q 766 4475 1731 4475 
z
M 1725 391 
Q 2163 391 2422 778 
Q 2681 1166 2681 2222 
Q 2681 2984 2493 3476 
Q 2306 3969 1766 3969 
Q 1269 3969 1039 3501 
Q 809 3034 809 2125 
Q 809 1441 956 1025 
Q 1181 391 1725 391 
z
" transform="scale(0.015625)"/>
        <path id="Helvetica-2e" d="M 547 681 
L 1200 681 
L 1200 0 
L 547 0 
L 547 681 
z
" transform="scale(0.015625)"/>
       </defs>
       <use xlink:href="#Helvetica-30"/>
       <use xlink:href="#Helvetica-2e" x="55.615234"/>
       <use xlink:href="#Helvetica-30" x="83.398438"/>
      </g>
     </g>
    </g>
    <g id="ytick_2">
     <g id="line2d_19">
      <path d="M 40.163125 265.9785 
L 653.963125 265.9785 
" clip-path="url(#p446536e0bf)" style="fill: none; stroke: #eeeeee; stroke-width: 0.5; stroke-linecap: square"/>
     </g>
     <g id="line2d_20">
      <g>
       <use xlink:href="#ma1542dd16c" x="40.163125" y="265.9785" style="fill: #222222; stroke: #222222; stroke-width: 0.8"/>
      </g>
     </g>
     <g id="text_10">
      <!-- 0.2 -->
      <g style="fill: #222222" transform="translate(20.653125 269.206547) scale(0.09 -0.09)">
       <defs>
        <path id="Helvetica-32" d="M 200 0 
Q 231 578 439 1006 
Q 647 1434 1250 1784 
L 1850 2131 
Q 2253 2366 2416 2531 
Q 2672 2791 2672 3125 
Q 2672 3516 2437 3745 
Q 2203 3975 1813 3975 
Q 1234 3975 1013 3538 
Q 894 3303 881 2888 
L 309 2888 
Q 319 3472 525 3841 
Q 891 4491 1816 4491 
Q 2584 4491 2939 4075 
Q 3294 3659 3294 3150 
Q 3294 2613 2916 2231 
Q 2697 2009 2131 1694 
L 1703 1456 
Q 1397 1288 1222 1134 
Q 909 863 828 531 
L 3272 531 
L 3272 0 
L 200 0 
z
" transform="scale(0.015625)"/>
       </defs>
       <use xlink:href="#Helvetica-30"/>
       <use xlink:href="#Helvetica-2e" x="55.615234"/>
       <use xlink:href="#Helvetica-32" x="83.398438"/>
      </g>
     </g>
    </g>
    <g id="ytick_3">
     <g id="line2d_21">
      <path d="M 40.163125 204.9945 
L 653.963125 204.9945 
" clip-path="url(#p446536e0bf)" style="fill: none; stroke: #eeeeee; stroke-width: 0.5; stroke-linecap: square"/>
     </g>
     <g id="line2d_22">
      <g>
       <use xlink:href="#ma1542dd16c" x="40.163125" y="204.9945" style="fill: #222222; stroke: #222222; stroke-width: 0.8"/>
      </g>
     </g>
     <g id="text_11">
      <!-- 0.4 -->
      <g style="fill: #222222" transform="translate(20.653125 208.222547) scale(0.09 -0.09)">
       <defs>
        <path id="Helvetica-34" d="M 2116 1584 
L 2116 3613 
L 681 1584 
L 2116 1584 
z
M 2125 0 
L 2125 1094 
L 163 1094 
L 163 1644 
L 2213 4488 
L 2688 4488 
L 2688 1584 
L 3347 1584 
L 3347 1094 
L 2688 1094 
L 2688 0 
L 2125 0 
z
" transform="scale(0.015625)"/>
       </defs>
       <use xlink:href="#Helvetica-30"/>
       <use xlink:href="#Helvetica-2e" x="55.615234"/>
       <use xlink:href="#Helvetica-34" x="83.398438"/>
      </g>
     </g>
    </g>
    <g id="ytick_4">
     <g id="line2d_23">
      <path d="M 40.163125 144.0105 
L 653.963125 144.0105 
" clip-path="url(#p446536e0bf)" style="fill: none; stroke: #eeeeee; stroke-width: 0.5; stroke-linecap: square"/>
     </g>
     <g id="line2d_24">
      <g>
       <use xlink:href="#ma1542dd16c" x="40.163125" y="144.0105" style="fill: #222222; stroke: #222222; stroke-width: 0.8"/>
      </g>
     </g>
     <g id="text_12">
      <!-- 0.6 -->
      <g style="fill: #222222" transform="translate(20.653125 147.238547) scale(0.09 -0.09)">
       <defs>
        <path id="Helvetica-36" d="M 1872 4494 
Q 2622 4494 2917 4105 
Q 3213 3716 3213 3303 
L 2656 3303 
Q 2606 3569 2497 3719 
Q 2294 4000 1881 4000 
Q 1409 4000 1131 3564 
Q 853 3128 822 2316 
Q 1016 2600 1309 2741 
Q 1578 2866 1909 2866 
Q 2472 2866 2890 2506 
Q 3309 2147 3309 1434 
Q 3309 825 2912 354 
Q 2516 -116 1781 -116 
Q 1153 -116 697 361 
Q 241 838 241 1966 
Q 241 2800 444 3381 
Q 834 4494 1872 4494 
z
M 1831 384 
Q 2275 384 2495 682 
Q 2716 981 2716 1388 
Q 2716 1731 2519 2042 
Q 2322 2353 1803 2353 
Q 1441 2353 1167 2112 
Q 894 1872 894 1388 
Q 894 963 1142 673 
Q 1391 384 1831 384 
z
" transform="scale(0.015625)"/>
       </defs>
       <use xlink:href="#Helvetica-30"/>
       <use xlink:href="#Helvetica-2e" x="55.615234"/>
       <use xlink:href="#Helvetica-36" x="83.398438"/>
      </g>
     </g>
    </g>
    <g id="ytick_5">
     <g id="line2d_25">
      <path d="M 40.163125 83.0265 
L 653.963125 83.0265 
" clip-path="url(#p446536e0bf)" style="fill: none; stroke: #eeeeee; stroke-width: 0.5; stroke-linecap: square"/>
     </g>
     <g id="line2d_26">
      <g>
       <use xlink:href="#ma1542dd16c" x="40.163125" y="83.0265" style="fill: #222222; stroke: #222222; stroke-width: 0.8"/>
      </g>
     </g>
     <g id="text_13">
      <!-- 0.8 -->
      <g style="fill: #222222" transform="translate(20.653125 86.254547) scale(0.09 -0.09)">
       <defs>
        <path id="Helvetica-38" d="M 1741 2600 
Q 2113 2600 2322 2808 
Q 2531 3016 2531 3303 
Q 2531 3553 2331 3762 
Q 2131 3972 1722 3972 
Q 1316 3972 1134 3762 
Q 953 3553 953 3272 
Q 953 2956 1187 2778 
Q 1422 2600 1741 2600 
z
M 1775 384 
Q 2166 384 2423 595 
Q 2681 806 2681 1225 
Q 2681 1659 2415 1884 
Q 2150 2109 1734 2109 
Q 1331 2109 1076 1879 
Q 822 1650 822 1244 
Q 822 894 1055 639 
Q 1288 384 1775 384 
z
M 975 2384 
Q 741 2484 609 2619 
Q 363 2869 363 3269 
Q 363 3769 725 4128 
Q 1088 4488 1753 4488 
Q 2397 4488 2762 4148 
Q 3128 3809 3128 3356 
Q 3128 2938 2916 2678 
Q 2797 2531 2547 2391 
Q 2825 2263 2984 2097 
Q 3281 1784 3281 1284 
Q 3281 694 2884 283 
Q 2488 -128 1763 -128 
Q 1109 -128 657 226 
Q 206 581 206 1256 
Q 206 1653 400 1942 
Q 594 2231 975 2384 
z
" transform="scale(0.015625)"/>
       </defs>
       <use xlink:href="#Helvetica-30"/>
       <use xlink:href="#Helvetica-2e" x="55.615234"/>
       <use xlink:href="#Helvetica-38" x="83.398438"/>
      </g>
     </g>
    </g>
    <g id="ytick_6">
     <g id="line2d_27">
      <path d="M 40.163125 22.0425 
L 653.963125 22.0425 
" clip-path="url(#p446536e0bf)" style="fill: none; stroke: #eeeeee; stroke-width: 0.5; stroke-linecap: square"/>
     </g>
     <g id="line2d_28">
      <g>
       <use xlink:href="#ma1542dd16c" x="40.163125" y="22.0425" style="fill: #222222; stroke: #222222; stroke-width: 0.8"/>
      </g>
     </g>
     <g id="text_14">
      <!-- 1.0 -->
      <g style="fill: #222222" transform="translate(20.653125 25.270547) scale(0.09 -0.09)">
       <defs>
        <path id="Helvetica-31" d="M 613 3169 
L 613 3600 
Q 1222 3659 1462 3798 
Q 1703 3938 1822 4456 
L 2266 4456 
L 2266 0 
L 1666 0 
L 1666 3169 
L 613 3169 
z
" transform="scale(0.015625)"/>
       </defs>
       <use xlink:href="#Helvetica-31"/>
       <use xlink:href="#Helvetica-2e" x="55.615234"/>
       <use xlink:href="#Helvetica-30" x="83.398438"/>
      </g>
     </g>
    </g>
    <g id="text_15">
     <!-- Group mean (use/want scaled to 0–1) -->
     <g transform="translate(14.56875 258.153281) rotate(-90) scale(0.1 -0.1)">
      <defs>
       <path id="Helvetica-47" d="M 2472 4709 
Q 3119 4709 3591 4459 
Q 4275 4100 4428 3200 
L 3813 3200 
Q 3700 3703 3347 3933 
Q 2994 4163 2456 4163 
Q 1819 4163 1383 3684 
Q 947 3206 947 2259 
Q 947 1441 1306 927 
Q 1666 413 2478 413 
Q 3100 413 3508 773 
Q 3916 1134 3925 1941 
L 2488 1941 
L 2488 2456 
L 4503 2456 
L 4503 0 
L 4103 0 
L 3953 591 
Q 3638 244 3394 109 
Q 2984 -122 2353 -122 
Q 1538 -122 950 406 
Q 309 1069 309 2225 
Q 309 3378 934 4059 
Q 1528 4709 2472 4709 
z
M 2369 4716 
L 2369 4716 
z
" transform="scale(0.015625)"/>
       <path id="Helvetica-28" d="M 1894 4666 
Q 1403 3713 1256 3263 
Q 1034 2578 1034 1681 
Q 1034 775 1288 25 
Q 1444 -438 1903 -1306 
L 1525 -1306 
Q 1069 -594 959 -397 
Q 850 -200 722 138 
Q 547 600 478 1125 
Q 444 1397 444 1644 
Q 444 2569 734 3291 
Q 919 3750 1503 4666 
L 1894 4666 
z
" transform="scale(0.015625)"/>
       <path id="Helvetica-2f" d="M 1456 4591 
L 1931 4591 
L 475 0 
L 0 0 
L 1456 4591 
z
" transform="scale(0.015625)"/>
       <path id="Helvetica-2013" d="M -16 2000 
L 3569 2000 
L 3569 1541 
L -16 1541 
L -16 2000 
z
" transform="scale(0.015625)"/>
       <path id="Helvetica-29" d="M 222 -1306 
Q 719 -338 863 106 
Q 1081 778 1081 1681 
Q 1081 2584 828 3334 
Q 672 3797 213 4666 
L 591 4666 
Q 1072 3897 1173 3717 
Q 1275 3538 1394 3222 
Q 1544 2831 1608 2450 
Q 1672 2069 1672 1716 
Q 1672 791 1378 66 
Q 1194 -400 613 -1306 
L 222 -1306 
z
" transform="scale(0.015625)"/>
      </defs>
      <use xlink:href="#Helvetica-47"/>
      <use xlink:href="#Helvetica-72" x="77.783203"/>
      <use xlink:href="#Helvetica-6f" x="111.083984"/>
      <use xlink:href="#Helvetica-75" x="166.699219"/>
      <use xlink:href="#Helvetica-70" x="222.314453"/>
      <use xlink:href="#Helvetica-20" x="277.929688"/>
      <use xlink:href="#Helvetica-6d" x="305.712891"/>
      <use xlink:href="#Helvetica-65" x="389.013672"/>
      <use xlink:href="#Helvetica-61" x="444.628906"/>
      <use xlink:href="#Helvetica-6e" x="500.244141"/>
      <use xlink:href="#Helvetica-20" x="555.859375"/>
      <use xlink:href="#Helvetica-28" x="583.642578"/>
      <use xlink:href="#Helvetica-75" x="616.943359"/>
      <use xlink:href="#Helvetica-73" x="672.558594"/>
      <use xlink:href="#Helvetica-65" x="722.558594"/>
      <use xlink:href="#Helvetica-2f" x="778.173828"/>
      <use xlink:href="#Helvetica-77" x="805.957031"/>
      <use xlink:href="#Helvetica-61" x="878.173828"/>
      <use xlink:href="#Helvetica-6e" x="933.789062"/>
      <use xlink:href="#Helvetica-74" x="989.404297"/>
      <use xlink:href="#Helvetica-20" x="1017.1875"/>
      <use xlink:href="#Helvetica-73" x="1044.970703"/>
      <use xlink:href="#Helvetica-63" x="1094.970703"/>
      <use xlink:href="#Helvetica-61" x="1144.970703"/>
      <use xlink:href="#Helvetica-6c" x="1200.585938"/>
      <use xlink:href="#Helvetica-65" x="1222.802734"/>
      <use xlink:href="#Helvetica-64" x="1278.417969"/>
      <use xlink:href="#Helvetica-20" x="1334.033203"/>
      <use xlink:href="#Helvetica-74" x="1361.816406"/>
      <use xlink:href="#Helvetica-6f" x="1389.599609"/>
      <use xlink:href="#Helvetica-20" x="1445.214844"/>
      <use xlink:href="#Helvetica-30" x="1472.998047"/>
      <use xlink:href="#Helvetica-2013" x="1528.613281"/>
      <use xlink:href="#Helvetica-31" x="1584.228516"/>
      <use xlink:href="#Helvetica-29" x="1639.84375"/>
     </g>
    </g>
   </g>
   <g id="patch_27">
    <path d="M 40.163125 326.9625 
L 40.163125 22.0425 
" style="fill: none; stroke: #222222; stroke-width: 0.8; stroke-linejoin: miter; stroke-linecap: square"/>
   </g>
   <g id="patch_28">
    <path d="M 40.163125 326.9625 
L 653.963125 326.9625 
" style="fill: none; stroke: #222222; stroke-width: 0.8; stroke-linejoin: miter; stroke-linecap: square"/>
   </g>
   <g id="text_16">
    <!-- Cluster3 from HDBSCAN/UMAP. Note: Late Adopters score *higher* on cloud_storage and data_use_policy than Skeptics. -->
    <g style="fill: #666666" transform="translate(40.163125 418.4385) scale(0.085 -0.085)">
     <defs>
      <path id="Helvetica-43" d="M 2422 4716 
Q 3294 4716 3775 4256 
Q 4256 3797 4309 3213 
L 3703 3213 
Q 3600 3656 3292 3915 
Q 2984 4175 2428 4175 
Q 1750 4175 1333 3698 
Q 916 3222 916 2238 
Q 916 1431 1292 929 
Q 1669 428 2416 428 
Q 3103 428 3463 956 
Q 3653 1234 3747 1688 
L 4353 1688 
Q 4272 963 3816 472 
Q 3269 -119 2341 -119 
Q 1541 -119 997 366 
Q 281 1006 281 2344 
Q 281 3359 819 4009 
Q 1400 4716 2422 4716 
z
M 2297 4716 
L 2297 4716 
z
" transform="scale(0.015625)"/>
      <path id="Helvetica-33" d="M 1663 -122 
Q 869 -122 511 314 
Q 153 750 153 1375 
L 741 1375 
Q 778 941 903 744 
Q 1122 391 1694 391 
Q 2138 391 2406 628 
Q 2675 866 2675 1241 
Q 2675 1703 2392 1887 
Q 2109 2072 1606 2072 
Q 1550 2072 1492 2070 
Q 1434 2069 1375 2066 
L 1375 2563 
Q 1463 2553 1522 2550 
Q 1581 2547 1650 2547 
Q 1966 2547 2169 2647 
Q 2525 2822 2525 3272 
Q 2525 3606 2287 3787 
Q 2050 3969 1734 3969 
Q 1172 3969 956 3594 
Q 838 3388 822 3006 
L 266 3006 
Q 266 3506 466 3856 
Q 809 4481 1675 4481 
Q 2359 4481 2734 4176 
Q 3109 3872 3109 3294 
Q 3109 2881 2888 2625 
Q 2750 2466 2531 2375 
Q 2884 2278 3082 2001 
Q 3281 1725 3281 1325 
Q 3281 684 2859 281 
Q 2438 -122 1663 -122 
z
" transform="scale(0.015625)"/>
      <path id="Helvetica-42" d="M 2213 2650 
Q 2606 2650 2825 2759 
Q 3169 2931 3169 3378 
Q 3169 3828 2803 3984 
Q 2597 4072 2191 4072 
L 1081 4072 
L 1081 2650 
L 2213 2650 
z
M 2422 531 
Q 2994 531 3238 863 
Q 3391 1072 3391 1369 
Q 3391 1869 2944 2050 
Q 2706 2147 2316 2147 
L 1081 2147 
L 1081 531 
L 2422 531 
z
M 472 4591 
L 2444 4591 
Q 3250 4591 3591 4109 
Q 3791 3825 3791 3453 
Q 3791 3019 3544 2741 
Q 3416 2594 3175 2472 
Q 3528 2338 3703 2169 
Q 4013 1869 4013 1341 
Q 4013 897 3734 538 
Q 3319 0 2413 0 
L 472 0 
L 472 4591 
z
" transform="scale(0.015625)"/>
      <path id="Helvetica-4e" d="M 488 4591 
L 1222 4591 
L 3541 872 
L 3541 4591 
L 4131 4591 
L 4131 0 
L 3434 0 
L 1081 3716 
L 1081 0 
L 488 0 
L 488 4591 
z
M 2269 4591 
L 2269 4591 
z
" transform="scale(0.015625)"/>
      <path id="Helvetica-4d" d="M 472 4591 
L 1363 4591 
L 2681 709 
L 3991 4591 
L 4872 4591 
L 4872 0 
L 4281 0 
L 4281 2709 
Q 4281 2850 4287 3175 
Q 4294 3500 4294 3872 
L 2984 0 
L 2369 0 
L 1050 3872 
L 1050 3731 
Q 1050 3563 1058 3217 
Q 1066 2872 1066 2709 
L 1066 0 
L 472 0 
L 472 4591 
z
" transform="scale(0.015625)"/>
      <path id="Helvetica-3a" d="M 709 3303 
L 1363 3303 
L 1363 2622 
L 709 2622 
L 709 3303 
z
M 709 681 
L 1363 681 
L 1363 0 
L 709 0 
L 709 681 
z
" transform="scale(0.015625)"/>
      <path id="Helvetica-4c" d="M 488 4591 
L 1109 4591 
L 1109 547 
L 3434 547 
L 3434 0 
L 488 0 
L 488 4591 
z
" transform="scale(0.015625)"/>
      <path id="Helvetica-2a" d="M 1406 4591 
L 1406 3894 
L 2088 4131 
L 2213 3784 
L 1531 3563 
L 1953 2975 
L 1644 2753 
L 1234 3363 
L 822 2753 
L 503 2975 
L 931 3563 
L 244 3784 
L 369 4131 
L 1044 3888 
L 1044 4591 
L 1406 4591 
z
" transform="scale(0.015625)"/>
      <path id="Helvetica-5f" d="M 0 -800 
L 0 -484 
L 3559 -484 
L 3559 -800 
L 0 -800 
z
" transform="scale(0.015625)"/>
     </defs>
     <use xlink:href="#Helvetica-43"/>
     <use xlink:href="#Helvetica-6c" x="72.216797"/>
     <use xlink:href="#Helvetica-75" x="94.433594"/>
     <use xlink:href="#Helvetica-73" x="150.048828"/>
     <use xlink:href="#Helvetica-74" x="200.048828"/>
     <use xlink:href="#Helvetica-65" x="227.832031"/>
     <use xlink:href="#Helvetica-72" x="283.447266"/>
     <use xlink:href="#Helvetica-33" x="316.748047"/>
     <use xlink:href="#Helvetica-20" x="372.363281"/>
     <use xlink:href="#Helvetica-66" x="400.146484"/>
     <use xlink:href="#Helvetica-72" x="427.929688"/>
     <use xlink:href="#Helvetica-6f" x="461.230469"/>
     <use xlink:href="#Helvetica-6d" x="516.845703"/>
     <use xlink:href="#Helvetica-20" x="600.146484"/>
     <use xlink:href="#Helvetica-48" x="627.929688"/>
     <use xlink:href="#Helvetica-44" x="700.146484"/>
     <use xlink:href="#Helvetica-42" x="772.363281"/>
     <use xlink:href="#Helvetica-53" x="839.0625"/>
     <use xlink:href="#Helvetica-43" x="905.761719"/>
     <use xlink:href="#Helvetica-41" x="977.978516"/>
     <use xlink:href="#Helvetica-4e" x="1044.677734"/>
     <use xlink:href="#Helvetica-2f" x="1116.894531"/>
     <use xlink:href="#Helvetica-55" x="1144.677734"/>
     <use xlink:href="#Helvetica-4d" x="1216.894531"/>
     <use xlink:href="#Helvetica-41" x="1300.195312"/>
     <use xlink:href="#Helvetica-50" x="1366.894531"/>
     <use xlink:href="#Helvetica-2e" x="1433.59375"/>
     <use xlink:href="#Helvetica-20" x="1461.376953"/>
     <use xlink:href="#Helvetica-4e" x="1489.160156"/>
     <use xlink:href="#Helvetica-6f" x="1561.376953"/>
     <use xlink:href="#Helvetica-74" x="1616.992188"/>
     <use xlink:href="#Helvetica-65" x="1644.775391"/>
     <use xlink:href="#Helvetica-3a" x="1700.390625"/>
     <use xlink:href="#Helvetica-20" x="1728.173828"/>
     <use xlink:href="#Helvetica-4c" x="1755.957031"/>
     <use xlink:href="#Helvetica-61" x="1811.572266"/>
     <use xlink:href="#Helvetica-74" x="1867.1875"/>
     <use xlink:href="#Helvetica-65" x="1894.970703"/>
     <use xlink:href="#Helvetica-20" x="1950.585938"/>
     <use xlink:href="#Helvetica-41" x="1978.369141"/>
     <use xlink:href="#Helvetica-64" x="2045.068359"/>
     <use xlink:href="#Helvetica-6f" x="2100.683594"/>
     <use xlink:href="#Helvetica-70" x="2156.298828"/>
     <use xlink:href="#Helvetica-74" x="2211.914062"/>
     <use xlink:href="#Helvetica-65" x="2239.697266"/>
     <use xlink:href="#Helvetica-72" x="2295.3125"/>
     <use xlink:href="#Helvetica-73" x="2328.613281"/>
     <use xlink:href="#Helvetica-20" x="2378.613281"/>
     <use xlink:href="#Helvetica-73" x="2406.396484"/>
     <use xlink:href="#Helvetica-63" x="2456.396484"/>
     <use xlink:href="#Helvetica-6f" x="2506.396484"/>
     <use xlink:href="#Helvetica-72" x="2562.011719"/>
     <use xlink:href="#Helvetica-65" x="2595.3125"/>
     <use xlink:href="#Helvetica-20" x="2650.927734"/>
     <use xlink:href="#Helvetica-2a" x="2678.710938"/>
     <use xlink:href="#Helvetica-68" x="2717.626953"/>
     <use xlink:href="#Helvetica-69" x="2773.242188"/>
     <use xlink:href="#Helvetica-67" x="2795.458984"/>
     <use xlink:href="#Helvetica-68" x="2851.074219"/>
     <use xlink:href="#Helvetica-65" x="2906.689453"/>
     <use xlink:href="#Helvetica-72" x="2962.304688"/>
     <use xlink:href="#Helvetica-2a" x="2995.605469"/>
     <use xlink:href="#Helvetica-20" x="3034.521484"/>
     <use xlink:href="#Helvetica-6f" x="3062.304688"/>
     <use xlink:href="#Helvetica-6e" x="3117.919922"/>
     <use xlink:href="#Helvetica-20" x="3173.535156"/>
     <use xlink:href="#Helvetica-63" x="3201.318359"/>
     <use xlink:href="#Helvetica-6c" x="3251.318359"/>
     <use xlink:href="#Helvetica-6f" x="3273.535156"/>
     <use xlink:href="#Helvetica-75" x="3329.150391"/>
     <use xlink:href="#Helvetica-64" x="3384.765625"/>
     <use xlink:href="#Helvetica-5f" x="3440.380859"/>
     <use xlink:href="#Helvetica-73" x="3495.996094"/>
     <use xlink:href="#Helvetica-74" x="3545.996094"/>
     <use xlink:href="#Helvetica-6f" x="3573.779297"/>
     <use xlink:href="#Helvetica-72" x="3629.394531"/>
     <use xlink:href="#Helvetica-61" x="3662.695312"/>
     <use xlink:href="#Helvetica-67" x="3718.310547"/>
     <use xlink:href="#Helvetica-65" x="3773.925781"/>
     <use xlink:href="#Helvetica-20" x="3829.541016"/>
     <use xlink:href="#Helvetica-61" x="3857.324219"/>
     <use xlink:href="#Helvetica-6e" x="3912.939453"/>
     <use xlink:href="#Helvetica-64" x="3968.554688"/>
     <use xlink:href="#Helvetica-20" x="4024.169922"/>
     <use xlink:href="#Helvetica-64" x="4051.953125"/>
     <use xlink:href="#Helvetica-61" x="4107.568359"/>
     <use xlink:href="#Helvetica-74" x="4163.183594"/>
     <use xlink:href="#Helvetica-61" x="4190.966797"/>
     <use xlink:href="#Helvetica-5f" x="4246.582031"/>
     <use xlink:href="#Helvetica-75" x="4302.197266"/>
     <use xlink:href="#Helvetica-73" x="4357.8125"/>
     <use xlink:href="#Helvetica-65" x="4407.8125"/>
     <use xlink:href="#Helvetica-5f" x="4463.427734"/>
     <use xlink:href="#Helvetica-70" x="4519.042969"/>
     <use xlink:href="#Helvetica-6f" x="4574.658203"/>
     <use xlink:href="#Helvetica-6c" x="4630.273438"/>
     <use xlink:href="#Helvetica-69" x="4652.490234"/>
     <use xlink:href="#Helvetica-63" x="4674.707031"/>
     <use xlink:href="#Helvetica-79" x="4724.707031"/>
     <use xlink:href="#Helvetica-20" x="4774.707031"/>
     <use xlink:href="#Helvetica-74" x="4802.490234"/>
     <use xlink:href="#Helvetica-68" x="4830.273438"/>
     <use xlink:href="#Helvetica-61" x="4885.888672"/>
     <use xlink:href="#Helvetica-6e" x="4941.503906"/>
     <use xlink:href="#Helvetica-20" x="4997.119141"/>
     <use xlink:href="#Helvetica-53" x="5024.902344"/>
     <use xlink:href="#Helvetica-6b" x="5091.601562"/>
     <use xlink:href="#Helvetica-65" x="5141.601562"/>
     <use xlink:href="#Helvetica-70" x="5197.216797"/>
     <use xlink:href="#Helvetica-74" x="5252.832031"/>
     <use xlink:href="#Helvetica-69" x="5280.615234"/>
     <use xlink:href="#Helvetica-63" x="5302.832031"/>
     <use xlink:href="#Helvetica-73" x="5352.832031"/>
     <use xlink:href="#Helvetica-2e" x="5402.832031"/>
    </g>
   </g>
   <g id="text_17">
    <!-- Cluster3 profile: Late Adopters have infrastructure, lack comprehension -->
    <g transform="translate(40.163125 16.0425) scale(0.12 -0.12)">
     <defs>
      <path id="Helvetica-2c" d="M 531 -653 
Q 747 -616 834 -350 
Q 881 -209 881 -78 
Q 881 -56 879 -39 
Q 878 -22 872 0 
L 531 0 
L 531 681 
L 1200 681 
L 1200 50 
Q 1200 -322 1050 -603 
Q 900 -884 531 -950 
L 531 -653 
z
" transform="scale(0.015625)"/>
     </defs>
     <use xlink:href="#Helvetica-43"/>
     <use xlink:href="#Helvetica-6c" x="72.216797"/>
     <use xlink:href="#Helvetica-75" x="94.433594"/>
     <use xlink:href="#Helvetica-73" x="150.048828"/>
     <use xlink:href="#Helvetica-74" x="200.048828"/>
     <use xlink:href="#Helvetica-65" x="227.832031"/>
     <use xlink:href="#Helvetica-72" x="283.447266"/>
     <use xlink:href="#Helvetica-33" x="316.748047"/>
     <use xlink:href="#Helvetica-20" x="372.363281"/>
     <use xlink:href="#Helvetica-70" x="400.146484"/>
     <use xlink:href="#Helvetica-72" x="455.761719"/>
     <use xlink:href="#Helvetica-6f" x="489.0625"/>
     <use xlink:href="#Helvetica-66" x="544.677734"/>
     <use xlink:href="#Helvetica-69" x="572.460938"/>
     <use xlink:href="#Helvetica-6c" x="594.677734"/>
     <use xlink:href="#Helvetica-65" x="616.894531"/>
     <use xlink:href="#Helvetica-3a" x="672.509766"/>
     <use xlink:href="#Helvetica-20" x="700.292969"/>
     <use xlink:href="#Helvetica-4c" x="728.076172"/>
     <use xlink:href="#Helvetica-61" x="783.691406"/>
     <use xlink:href="#Helvetica-74" x="839.306641"/>
     <use xlink:href="#Helvetica-65" x="867.089844"/>
     <use xlink:href="#Helvetica-20" x="922.705078"/>
     <use xlink:href="#Helvetica-41" x="950.488281"/>
     <use xlink:href="#Helvetica-64" x="1017.1875"/>
     <use xlink:href="#Helvetica-6f" x="1072.802734"/>
     <use xlink:href="#Helvetica-70" x="1128.417969"/>
     <use xlink:href="#Helvetica-74" x="1184.033203"/>
     <use xlink:href="#Helvetica-65" x="1211.816406"/>
     <use xlink:href="#Helvetica-72" x="1267.431641"/>
     <use xlink:href="#Helvetica-73" x="1300.732422"/>
     <use xlink:href="#Helvetica-20" x="1350.732422"/>
     <use xlink:href="#Helvetica-68" x="1378.515625"/>
     <use xlink:href="#Helvetica-61" x="1434.130859"/>
     <use xlink:href="#Helvetica-76" x="1489.746094"/>
     <use xlink:href="#Helvetica-65" x="1539.746094"/>
     <use xlink:href="#Helvetica-20" x="1595.361328"/>
     <use xlink:href="#Helvetica-69" x="1623.144531"/>
     <use xlink:href="#Helvetica-6e" x="1645.361328"/>
     <use xlink:href="#Helvetica-66" x="1700.976562"/>
     <use xlink:href="#Helvetica-72" x="1728.759766"/>
     <use xlink:href="#Helvetica-61" x="1762.060547"/>
     <use xlink:href="#Helvetica-73" x="1817.675781"/>
     <use xlink:href="#Helvetica-74" x="1867.675781"/>
     <use xlink:href="#Helvetica-72" x="1895.458984"/>
     <use xlink:href="#Helvetica-75" x="1928.759766"/>
     <use xlink:href="#Helvetica-63" x="1984.375"/>
     <use xlink:href="#Helvetica-74" x="2034.375"/>
     <use xlink:href="#Helvetica-75" x="2062.158203"/>
     <use xlink:href="#Helvetica-72" x="2117.773438"/>
     <use xlink:href="#Helvetica-65" x="2151.074219"/>
     <use xlink:href="#Helvetica-2c" x="2206.689453"/>
     <use xlink:href="#Helvetica-20" x="2234.472656"/>
     <use xlink:href="#Helvetica-6c" x="2262.255859"/>
     <use xlink:href="#Helvetica-61" x="2284.472656"/>
     <use xlink:href="#Helvetica-63" x="2340.087891"/>
     <use xlink:href="#Helvetica-6b" x="2390.087891"/>
     <use xlink:href="#Helvetica-20" x="2440.087891"/>
     <use xlink:href="#Helvetica-63" x="2467.871094"/>
     <use xlink:href="#Helvetica-6f" x="2517.871094"/>
     <use xlink:href="#Helvetica-6d" x="2573.486328"/>
     <use xlink:href="#Helvetica-70" x="2656.787109"/>
     <use xlink:href="#Helvetica-72" x="2712.402344"/>
     <use xlink:href="#Helvetica-65" x="2745.703125"/>
     <use xlink:href="#Helvetica-68" x="2801.318359"/>
     <use xlink:href="#Helvetica-65" x="2856.933594"/>
     <use xlink:href="#Helvetica-6e" x="2912.548828"/>
     <use xlink:href="#Helvetica-73" x="2968.164062"/>
     <use xlink:href="#Helvetica-69" x="3018.164062"/>
     <use xlink:href="#Helvetica-6f" x="3040.380859"/>
     <use xlink:href="#Helvetica-6e" x="3095.996094"/>
    </g>
   </g>
   <g id="legend_1">
    <g id="patch_29">
     <path d="M 49.163125 38.41125 
L 69.163125 38.41125 
L 69.163125 31.41125 
L 49.163125 31.41125 
z
" style="fill: #c0392b; stroke: #ffffff; stroke-linejoin: miter"/>
    </g>
    <g id="text_18">
     <!-- Skeptics (n=142) -->
     <g transform="translate(77.163125 38.41125) scale(0.1 -0.1)">
      <defs>
       <path id="Helvetica-3d" d="M 3547 2569 
L 3547 2044 
L 288 2044 
L 288 2569 
L 3547 2569 
z
M 3547 1228 
L 3547 694 
L 288 694 
L 288 1228 
L 3547 1228 
z
" transform="scale(0.015625)"/>
      </defs>
      <use xlink:href="#Helvetica-53"/>
      <use xlink:href="#Helvetica-6b" x="66.699219"/>
      <use xlink:href="#Helvetica-65" x="116.699219"/>
      <use xlink:href="#Helvetica-70" x="172.314453"/>
      <use xlink:href="#Helvetica-74" x="227.929688"/>
      <use xlink:href="#Helvetica-69" x="255.712891"/>
      <use xlink:href="#Helvetica-63" x="277.929688"/>
      <use xlink:href="#Helvetica-73" x="327.929688"/>
      <use xlink:href="#Helvetica-20" x="377.929688"/>
      <use xlink:href="#Helvetica-28" x="405.712891"/>
      <use xlink:href="#Helvetica-6e" x="439.013672"/>
      <use xlink:href="#Helvetica-3d" x="494.628906"/>
      <use xlink:href="#Helvetica-31" x="553.027344"/>
      <use xlink:href="#Helvetica-34" x="608.642578"/>
      <use xlink:href="#Helvetica-32" x="664.257812"/>
      <use xlink:href="#Helvetica-29" x="719.873047"/>
     </g>
    </g>
    <g id="patch_30">
     <path d="M 49.163125 52.78625 
L 69.163125 52.78625 
L 69.163125 45.78625 
L 49.163125 45.78625 
z
" style="fill: #f39c12; stroke: #ffffff; stroke-linejoin: miter"/>
    </g>
    <g id="text_19">
     <!-- Late Adopters (n=265) -->
     <g transform="translate(77.163125 52.78625) scale(0.1 -0.1)">
      <defs>
       <path id="Helvetica-35" d="M 791 1141 
Q 847 659 1238 475 
Q 1438 381 1700 381 
Q 2200 381 2440 700 
Q 2681 1019 2681 1406 
Q 2681 1875 2395 2131 
Q 2109 2388 1709 2388 
Q 1419 2388 1211 2275 
Q 1003 2163 856 1963 
L 369 1991 
L 709 4400 
L 3034 4400 
L 3034 3856 
L 1131 3856 
L 941 2613 
Q 1097 2731 1238 2791 
Q 1488 2894 1816 2894 
Q 2431 2894 2859 2497 
Q 3288 2100 3288 1491 
Q 3288 856 2895 371 
Q 2503 -113 1644 -113 
Q 1097 -113 676 195 
Q 256 503 206 1141 
L 791 1141 
z
" transform="scale(0.015625)"/>
      </defs>
      <use xlink:href="#Helvetica-4c"/>
      <use xlink:href="#Helvetica-61" x="55.615234"/>
      <use xlink:href="#Helvetica-74" x="111.230469"/>
      <use xlink:href="#Helvetica-65" x="139.013672"/>
      <use xlink:href="#Helvetica-20" x="194.628906"/>
      <use xlink:href="#Helvetica-41" x="222.412109"/>
      <use xlink:href="#Helvetica-64" x="289.111328"/>
      <use xlink:href="#Helvetica-6f" x="344.726562"/>
      <use xlink:href="#Helvetica-70" x="400.341797"/>
      <use xlink:href="#Helvetica-74" x="455.957031"/>
      <use xlink:href="#Helvetica-65" x="483.740234"/>
      <use xlink:href="#Helvetica-72" x="539.355469"/>
      <use xlink:href="#Helvetica-73" x="572.65625"/>
      <use xlink:href="#Helvetica-20" x="622.65625"/>
      <use xlink:href="#Helvetica-28" x="650.439453"/>
      <use xlink:href="#Helvetica-6e" x="683.740234"/>
      <use xlink:href="#Helvetica-3d" x="739.355469"/>
      <use xlink:href="#Helvetica-32" x="797.753906"/>
      <use xlink:href="#Helvetica-36" x="853.369141"/>
      <use xlink:href="#Helvetica-35" x="908.984375"/>
      <use xlink:href="#Helvetica-29" x="964.599609"/>
     </g>
    </g>
    <g id="patch_31">
     <path d="M 49.163125 67.195625 
L 69.163125 67.195625 
L 69.163125 60.195625 
L 49.163125 60.195625 
z
" style="fill: #27ae60; stroke: #ffffff; stroke-linejoin: miter"/>
    </g>
    <g id="text_20">
     <!-- Consumers (n=523) -->
     <g transform="translate(77.163125 67.195625) scale(0.1 -0.1)">
      <use xlink:href="#Helvetica-43"/>
      <use xlink:href="#Helvetica-6f" x="72.216797"/>
      <use xlink:href="#Helvetica-6e" x="127.832031"/>
      <use xlink:href="#Helvetica-73" x="183.447266"/>
      <use xlink:href="#Helvetica-75" x="233.447266"/>
      <use xlink:href="#Helvetica-6d" x="289.0625"/>
      <use xlink:href="#Helvetica-65" x="372.363281"/>
      <use xlink:href="#Helvetica-72" x="427.978516"/>
      <use xlink:href="#Helvetica-73" x="461.279297"/>
      <use xlink:href="#Helvetica-20" x="511.279297"/>
      <use xlink:href="#Helvetica-28" x="539.0625"/>
      <use xlink:href="#Helvetica-6e" x="572.363281"/>
      <use xlink:href="#Helvetica-3d" x="627.978516"/>
      <use xlink:href="#Helvetica-35" x="686.376953"/>
      <use xlink:href="#Helvetica-32" x="741.992188"/>
      <use xlink:href="#Helvetica-33" x="797.607422"/>
      <use xlink:href="#Helvetica-29" x="853.222656"/>
     </g>
    </g>
   </g>
  </g>
 </g>
 <defs>
  <clipPath id="p446536e0bf">
   <rect x="40.163125" y="22.0425" width="613.8" height="304.92"/>
  </clipPath>
 </defs>
</svg>
