<?xml version="1.0" encoding="utf-8" standalone="no"?>
<!DOCTYPE svg PUBLIC "-//W3C//DTD SVG 1.1//EN"
  "http://www.w3.org/Graphics/SVG/1.1/DTD/svg11.dtd">
<svg xmlns:xlink="http://www.w3.org/1999/xlink" width="661.04125pt" height="629.9805pt" viewBox="0 0 661.04125 629.9805" xmlns="http://www.w3.org/2000/svg" version="1.1">
 <metadata>
  <rdf:RDF xmlns:dc="http://purl.org/dc/elements/1.1/" xmlns:cc="http://creativecommons.org/ns#" xmlns:rdf="http://www.w3.org/1999/02/22-rdf-syntax-ns#">
   <cc:Work>
    <dc:type rdf:resource="http://purl.org/dc/dcmitype/StillImage"/>
    <dc:date>2026-04-28T00:24:13.057547</dc:date>
    <dc:format>image/svg+xml</dc:format>
    <dc:creator>
     <cc:Agent>
      <dc:title>Matplotlib v3.9.2, https://matplotlib.org/</dc:title>
     </cc:Agent>
    </dc:creator>
   </cc:Work>
  </rdf:RDF>
 </metadata>
 <defs>
  <style type="text/css">*{stroke-linejoin: round; stroke-linecap: butt}</style>
 </defs>
 <g id="figure_1">
  <g id="patch_1">
   <path d="M 0 629.9805 
L 661.04125 629.9805 
L 661.04125 0 
L 0 0 
z
" style="fill: #1a1024"/>
  </g>
  <g id="axes_1">
   <g id="patch_2">
    <path d="M 40.04125 462.895875 
L 653.84125 462.895875 
L 653.84125 47.095875 
L 40.04125 47.095875 
z
" style="fill: #1a1024"/>
   </g>
   <g id="matplotlib.axis_1">
    <g id="xtick_1">
     <g id="line2d_1">
      <path d="M 67.94125 462.895875 
L 67.94125 47.095875 
" clip-path="url(#p54db79e891)" style="fill: none; stroke: #2c1f33; stroke-width: 0.5; stroke-linecap: square"/>
     </g>
     <g id="line2d_2">
      <defs>
       <path id="m386ad5e14e" d="M 0 0 
L 0 3.5 
" style="stroke: #e0d0da; stroke-width: 0.8"/>
      </defs>
      <g>
       <use xlink:href="#m386ad5e14e" x="67.94125" y="462.895875" style="fill: #e0d0da; stroke: #e0d0da; stroke-width: 0.8"/>
      </g>
     </g>
     <g id="text_1">
      <!-- Use: Ask -->
      <g style="fill: #e0d0da" transform="translate(41.152952 499.922833) rotate(-45) scale(0.09 -0.09)">
       <defs>
        <path id="Helvetica-55" d="M 1163 4591 
L 1163 1753 
Q 1163 1253 1350 922 
Q 1628 422 2288 422 
Q 3078 422 3363 963 
Q 3516 1256 3516 1753 
L 3516 4591 
L 4147 4591 
L 4147 2013 
Q 4147 1166 3919 709 
Q 3500 -122 2338 -122 
Q 1175 -122 759 709 
Q 531 1166 531 2013 
L 531 4591 
L 1163 4591 
z
M 2341 4591 
L 2341 4591 
z
" transform="scale(0.015625)"/>
        <path id="Helvetica-73" d="M 747 1050 
Q 772 769 888 619 
Q 1100 347 1625 347 
Q 1938 347 2175 483 
Q 2413 619 2413 903 
Q 2413 1119 2222 1231 
Q 2100 1300 1741 1391 
L 1294 1503 
Q 866 1609 663 1741 
Q 300 1969 300 2372 
Q 300 2847 642 3140 
Q 984 3434 1563 3434 
Q 2319 3434 2653 2991 
Q 2863 2709 2856 2384 
L 2325 2384 
Q 2309 2575 2191 2731 
Q 1997 2953 1519 2953 
Q 1200 2953 1036 2831 
Q 872 2709 872 2509 
Q 872 2291 1088 2159 
Q 1213 2081 1456 2022 
L 1828 1931 
Q 2434 1784 2641 1647 
Q 2969 1431 2969 969 
Q 2969 522 2630 197 
Q 2291 -128 1597 -128 
Q 850 -128 539 211 
Q 228 550 206 1050 
L 747 1050 
z
M 1578 3428 
L 1578 3428 
z
" transform="scale(0.015625)"/>
        <path id="Helvetica-65" d="M 1806 3422 
Q 2163 3422 2497 3255 
Q 2831 3088 3006 2822 
Q 3175 2569 3231 2231 
Q 3281 2000 3281 1494 
L 828 1494 
Q 844 984 1069 676 
Q 1294 369 1766 369 
Q 2206 369 2469 659 
Q 2619 828 2681 1050 
L 3234 1050 
Q 3213 866 3089 639 
Q 2966 413 2813 269 
Q 2556 19 2178 -69 
Q 1975 -119 1719 -119 
Q 1094 -119 659 336 
Q 225 791 225 1609 
Q 225 2416 662 2919 
Q 1100 3422 1806 3422 
z
M 2703 1941 
Q 2669 2306 2544 2525 
Q 2313 2931 1772 2931 
Q 1384 2931 1121 2651 
Q 859 2372 844 1941 
L 2703 1941 
z
M 1753 3428 
L 1753 3428 
z
" transform="scale(0.015625)"/>
        <path id="Helvetica-3a" d="M 709 3303 
L 1363 3303 
L 1363 2622 
L 709 2622 
L 709 3303 
z
M 709 681 
L 1363 681 
L 1363 0 
L 709 0 
L 709 681 
z
" transform="scale(0.015625)"/>
        <path id="Helvetica-20" transform="scale(0.015625)"/>
        <path id="Helvetica-41" d="M 2844 1881 
L 2147 3909 
L 1406 1881 
L 2844 1881 
z
M 1822 4591 
L 2525 4591 
L 4191 0 
L 3509 0 
L 3044 1375 
L 1228 1375 
L 731 0 
L 94 0 
L 1822 4591 
z
" transform="scale(0.015625)"/>
        <path id="Helvetica-6b" d="M 400 4591 
L 941 4591 
L 941 1925 
L 2384 3347 
L 3103 3347 
L 1822 2094 
L 3175 0 
L 2456 0 
L 1413 1688 
L 941 1256 
L 941 0 
L 400 0 
L 400 4591 
z
" transform="scale(0.015625)"/>
       </defs>
       <use xlink:href="#Helvetica-55"/>
       <use xlink:href="#Helvetica-73" x="72.216797"/>
       <use xlink:href="#Helvetica-65" x="122.216797"/>
       <use xlink:href="#Helvetica-3a" x="177.832031"/>
       <use xlink:href="#Helvetica-20" x="205.615234"/>
       <use xlink:href="#Helvetica-41" x="233.398438"/>
       <use xlink:href="#Helvetica-73" x="300.097656"/>
       <use xlink:href="#Helvetica-6b" x="350.097656"/>
      </g>
     </g>
    </g>
    <g id="xtick_2">
     <g id="line2d_3">
      <path d="M 110.864327 462.895875 
L 110.864327 47.095875 
" clip-path="url(#p54db79e891)" style="fill: none; stroke: #2c1f33; stroke-width: 0.5; stroke-linecap: square"/>
     </g>
     <g id="line2d_4">
      <g>
       <use xlink:href="#m386ad5e14e" x="110.864327" y="462.895875" style="fill: #e0d0da; stroke: #e0d0da; stroke-width: 0.8"/>
      </g>
     </g>
     <g id="text_2">
      <!-- Use: Assist -->
      <g style="fill: #e0d0da" transform="translate(77.712067 506.286794) rotate(-45) scale(0.09 -0.09)">
       <defs>
        <path id="Helvetica-69" d="M 413 3331 
L 984 3331 
L 984 0 
L 413 0 
L 413 3331 
z
M 413 4591 
L 984 4591 
L 984 3953 
L 413 3953 
L 413 4591 
z
" transform="scale(0.015625)"/>
        <path id="Helvetica-74" d="M 525 4281 
L 1094 4281 
L 1094 3347 
L 1628 3347 
L 1628 2888 
L 1094 2888 
L 1094 703 
Q 1094 528 1213 469 
Q 1278 434 1431 434 
Q 1472 434 1519 436 
Q 1566 438 1628 444 
L 1628 0 
Q 1531 -28 1426 -40 
Q 1322 -53 1200 -53 
Q 806 -53 665 148 
Q 525 350 525 672 
L 525 2888 
L 72 2888 
L 72 3347 
L 525 3347 
L 525 4281 
z
" transform="scale(0.015625)"/>
       </defs>
       <use xlink:href="#Helvetica-55"/>
       <use xlink:href="#Helvetica-73" x="72.216797"/>
       <use xlink:href="#Helvetica-65" x="122.216797"/>
       <use xlink:href="#Helvetica-3a" x="177.832031"/>
       <use xlink:href="#Helvetica-20" x="205.615234"/>
       <use xlink:href="#Helvetica-41" x="233.398438"/>
       <use xlink:href="#Helvetica-73" x="300.097656"/>
       <use xlink:href="#Helvetica-73" x="350.097656"/>
       <use xlink:href="#Helvetica-69" x="400.097656"/>
       <use xlink:href="#Helvetica-73" x="422.314453"/>
       <use xlink:href="#Helvetica-74" x="472.314453"/>
      </g>
     </g>
    </g>
    <g id="xtick_3">
     <g id="line2d_5">
      <path d="M 153.787404 462.895875 
L 153.787404 47.095875 
" clip-path="url(#p54db79e891)" style="fill: none; stroke: #2c1f33; stroke-width: 0.5; stroke-linecap: square"/>
     </g>
     <g id="line2d_6">
      <g>
       <use xlink:href="#m386ad5e14e" x="153.787404" y="462.895875" style="fill: #e0d0da; stroke: #e0d0da; stroke-width: 0.8"/>
      </g>
     </g>
     <g id="text_3">
      <!-- Use: Generate -->
      <g style="fill: #e0d0da" transform="translate(111.076276 515.845662) rotate(-45) scale(0.09 -0.09)">
       <defs>
        <path id="Helvetica-47" d="M 2472 4709 
Q 3119 4709 3591 4459 
Q 4275 4100 4428 3200 
L 3813 3200 
Q 3700 3703 3347 3933 
Q 2994 4163 2456 4163 
Q 1819 4163 1383 3684 
Q 947 3206 947 2259 
Q 947 1441 1306 927 
Q 1666 413 2478 413 
Q 3100 413 3508 773 
Q 3916 1134 3925 1941 
L 2488 1941 
L 2488 2456 
L 4503 2456 
L 4503 0 
L 4103 0 
L 3953 591 
Q 3638 244 3394 109 
Q 2984 -122 2353 -122 
Q 1538 -122 950 406 
Q 309 1069 309 2225 
Q 309 3378 934 4059 
Q 1528 4709 2472 4709 
z
M 2369 4716 
L 2369 4716 
z
" transform="scale(0.015625)"/>
        <path id="Helvetica-6e" d="M 413 3347 
L 947 3347 
L 947 2872 
Q 1184 3166 1450 3294 
Q 1716 3422 2041 3422 
Q 2753 3422 3003 2925 
Q 3141 2653 3141 2147 
L 3141 0 
L 2569 0 
L 2569 2109 
Q 2569 2416 2478 2603 
Q 2328 2916 1934 2916 
Q 1734 2916 1606 2875 
Q 1375 2806 1200 2600 
Q 1059 2434 1017 2257 
Q 975 2081 975 1753 
L 975 0 
L 413 0 
L 413 3347 
z
M 1734 3428 
L 1734 3428 
z
" transform="scale(0.015625)"/>
        <path id="Helvetica-72" d="M 428 3347 
L 963 3347 
L 963 2769 
Q 1028 2938 1284 3180 
Q 1541 3422 1875 3422 
Q 1891 3422 1928 3419 
Q 1966 3416 2056 3406 
L 2056 2813 
Q 2006 2822 1964 2825 
Q 1922 2828 1872 2828 
Q 1447 2828 1219 2554 
Q 991 2281 991 1925 
L 991 0 
L 428 0 
L 428 3347 
z
" transform="scale(0.015625)"/>
        <path id="Helvetica-61" d="M 844 891 
Q 844 647 1022 506 
Q 1200 366 1444 366 
Q 1741 366 2019 503 
Q 2488 731 2488 1250 
L 2488 1703 
Q 2384 1638 2221 1594 
Q 2059 1550 1903 1531 
L 1563 1488 
Q 1256 1447 1103 1359 
Q 844 1213 844 891 
z
M 2206 2028 
Q 2400 2053 2466 2191 
Q 2503 2266 2503 2406 
Q 2503 2694 2298 2823 
Q 2094 2953 1713 2953 
Q 1272 2953 1088 2716 
Q 984 2584 953 2325 
L 428 2325 
Q 444 2944 830 3186 
Q 1216 3428 1725 3428 
Q 2316 3428 2684 3203 
Q 3050 2978 3050 2503 
L 3050 575 
Q 3050 488 3086 434 
Q 3122 381 3238 381 
Q 3275 381 3322 386 
Q 3369 391 3422 400 
L 3422 -16 
Q 3291 -53 3222 -62 
Q 3153 -72 3034 -72 
Q 2744 -72 2613 134 
Q 2544 244 2516 444 
Q 2344 219 2022 53 
Q 1700 -113 1313 -113 
Q 847 -113 551 170 
Q 256 453 256 878 
Q 256 1344 547 1600 
Q 838 1856 1309 1916 
L 2206 2028 
z
M 1741 3428 
L 1741 3428 
z
" transform="scale(0.015625)"/>
       </defs>
       <use xlink:href="#Helvetica-55"/>
       <use xlink:href="#Helvetica-73" x="72.216797"/>
       <use xlink:href="#Helvetica-65" x="122.216797"/>
       <use xlink:href="#Helvetica-3a" x="177.832031"/>
       <use xlink:href="#Helvetica-20" x="205.615234"/>
       <use xlink:href="#Helvetica-47" x="233.398438"/>
       <use xlink:href="#Helvetica-65" x="311.181641"/>
       <use xlink:href="#Helvetica-6e" x="366.796875"/>
       <use xlink:href="#Helvetica-65" x="422.412109"/>
       <use xlink:href="#Helvetica-72" x="478.027344"/>
       <use xlink:href="#Helvetica-61" x="511.328125"/>
       <use xlink:href="#Helvetica-74" x="566.943359"/>
       <use xlink:href="#Helvetica-65" x="594.726562"/>
      </g>
     </g>
    </g>
    <g id="xtick_4">
     <g id="line2d_7">
      <path d="M 196.710481 462.895875 
L 196.710481 47.095875 
" clip-path="url(#p54db79e891)" style="fill: none; stroke: #2c1f33; stroke-width: 0.5; stroke-linecap: square"/>
     </g>
     <g id="line2d_8">
      <g>
       <use xlink:href="#m386ad5e14e" x="196.710481" y="462.895875" style="fill: #e0d0da; stroke: #e0d0da; stroke-width: 0.8"/>
      </g>
     </g>
     <g id="text_4">
      <!-- Use: Interpret -->
      <g style="fill: #e0d0da" transform="translate(156.833304 513.011711) rotate(-45) scale(0.09 -0.09)">
       <defs>
        <path id="Helvetica-49" d="M 628 4591 
L 1256 4591 
L 1256 0 
L 628 0 
L 628 4591 
z
" transform="scale(0.015625)"/>
        <path id="Helvetica-70" d="M 1825 378 
Q 2219 378 2480 708 
Q 2741 1038 2741 1694 
Q 2741 2094 2625 2381 
Q 2406 2934 1825 2934 
Q 1241 2934 1025 2350 
Q 909 2038 909 1556 
Q 909 1169 1025 897 
Q 1244 378 1825 378 
z
M 369 3331 
L 916 3331 
L 916 2888 
Q 1084 3116 1284 3241 
Q 1569 3428 1953 3428 
Q 2522 3428 2919 2992 
Q 3316 2556 3316 1747 
Q 3316 653 2744 184 
Q 2381 -113 1900 -113 
Q 1522 -113 1266 53 
Q 1116 147 931 375 
L 931 -1334 
L 369 -1334 
L 369 3331 
z
" transform="scale(0.015625)"/>
       </defs>
       <use xlink:href="#Helvetica-55"/>
       <use xlink:href="#Helvetica-73" x="72.216797"/>
       <use xlink:href="#Helvetica-65" x="122.216797"/>
       <use xlink:href="#Helvetica-3a" x="177.832031"/>
       <use xlink:href="#Helvetica-20" x="205.615234"/>
       <use xlink:href="#Helvetica-49" x="233.398438"/>
       <use xlink:href="#Helvetica-6e" x="261.181641"/>
       <use xlink:href="#Helvetica-74" x="316.796875"/>
       <use xlink:href="#Helvetica-65" x="344.580078"/>
       <use xlink:href="#Helvetica-72" x="400.195312"/>
       <use xlink:href="#Helvetica-70" x="433.496094"/>
       <use xlink:href="#Helvetica-72" x="489.111328"/>
       <use xlink:href="#Helvetica-65" x="522.412109"/>
       <use xlink:href="#Helvetica-74" x="578.027344"/>
      </g>
     </g>
    </g>
    <g id="xtick_5">
     <g id="line2d_9">
      <path d="M 239.633558 462.895875 
L 239.633558 47.095875 
" clip-path="url(#p54db79e891)" style="fill: none; stroke: #2c1f33; stroke-width: 0.5; stroke-linecap: square"/>
     </g>
     <g id="line2d_10">
      <g>
       <use xlink:href="#m386ad5e14e" x="239.633558" y="462.895875" style="fill: #e0d0da; stroke: #e0d0da; stroke-width: 0.8"/>
      </g>
     </g>
     <g id="text_5">
      <!-- Use: Organize -->
      <g style="fill: #e0d0da" transform="translate(197.551865 515.258985) rotate(-45) scale(0.09 -0.09)">
       <defs>
        <path id="Helvetica-4f" d="M 2469 4716 
Q 3684 4716 4269 3934 
Q 4725 3325 4725 2375 
Q 4725 1347 4203 666 
Q 3591 -134 2456 -134 
Q 1397 -134 791 566 
Q 250 1241 250 2272 
Q 250 3203 713 3866 
Q 1306 4716 2469 4716 
z
M 2531 422 
Q 3353 422 3720 1011 
Q 4088 1600 4088 2366 
Q 4088 3175 3664 3669 
Q 3241 4163 2506 4163 
Q 1794 4163 1344 3673 
Q 894 3184 894 2231 
Q 894 1469 1280 945 
Q 1666 422 2531 422 
z
M 2488 4716 
L 2488 4716 
z
" transform="scale(0.015625)"/>
        <path id="Helvetica-67" d="M 1594 3406 
Q 1988 3406 2281 3213 
Q 2441 3103 2606 2894 
L 2606 3316 
L 3125 3316 
L 3125 272 
Q 3125 -366 2938 -734 
Q 2588 -1416 1616 -1416 
Q 1075 -1416 706 -1173 
Q 338 -931 294 -416 
L 866 -416 
Q 906 -641 1028 -763 
Q 1219 -950 1628 -950 
Q 2275 -950 2475 -494 
Q 2594 -225 2584 466 
Q 2416 209 2178 84 
Q 1941 -41 1550 -41 
Q 1006 -41 598 345 
Q 191 731 191 1622 
Q 191 2463 602 2934 
Q 1013 3406 1594 3406 
z
M 2606 1688 
Q 2606 2309 2350 2609 
Q 2094 2909 1697 2909 
Q 1103 2909 884 2353 
Q 769 2056 769 1575 
Q 769 1009 998 714 
Q 1228 419 1616 419 
Q 2222 419 2469 966 
Q 2606 1275 2606 1688 
z
M 1659 3428 
L 1659 3428 
z
" transform="scale(0.015625)"/>
        <path id="Helvetica-7a" d="M 163 444 
L 2147 2844 
L 309 2844 
L 309 3347 
L 2903 3347 
L 2903 2888 
L 931 503 
L 2963 503 
L 2963 0 
L 163 0 
L 163 444 
z
M 1609 3428 
L 1609 3428 
z
" transform="scale(0.015625)"/>
       </defs>
       <use xlink:href="#Helvetica-55"/>
       <use xlink:href="#Helvetica-73" x="72.216797"/>
       <use xlink:href="#Helvetica-65" x="122.216797"/>
       <use xlink:href="#Helvetica-3a" x="177.832031"/>
       <use xlink:href="#Helvetica-20" x="205.615234"/>
       <use xlink:href="#Helvetica-4f" x="233.398438"/>
       <use xlink:href="#Helvetica-72" x="311.181641"/>
       <use xlink:href="#Helvetica-67" x="344.482422"/>
       <use xlink:href="#Helvetica-61" x="400.097656"/>
       <use xlink:href="#Helvetica-6e" x="455.712891"/>
       <use xlink:href="#Helvetica-69" x="511.328125"/>
       <use xlink:href="#Helvetica-7a" x="533.544922"/>
       <use xlink:href="#Helvetica-65" x="583.544922"/>
      </g>
     </g>
    </g>
    <g id="xtick_6">
     <g id="line2d_11">
      <path d="M 282.556635 462.895875 
L 282.556635 47.095875 
" clip-path="url(#p54db79e891)" style="fill: none; stroke: #2c1f33; stroke-width: 0.5; stroke-linecap: square"/>
     </g>
     <g id="line2d_12">
      <g>
       <use xlink:href="#m386ad5e14e" x="282.556635" y="462.895875" style="fill: #e0d0da; stroke: #e0d0da; stroke-width: 0.8"/>
      </g>
     </g>
     <g id="text_6">
      <!-- Use: Predict -->
      <g style="fill: #e0d0da" transform="translate(246.571418 509.119751) rotate(-45) scale(0.09 -0.09)">
       <defs>
        <path id="Helvetica-50" d="M 547 4591 
L 2613 4591 
Q 3225 4591 3600 4245 
Q 3975 3900 3975 3275 
Q 3975 2738 3640 2339 
Q 3306 1941 2613 1941 
L 1169 1941 
L 1169 0 
L 547 0 
L 547 4591 
z
M 3347 3272 
Q 3347 3778 2972 3959 
Q 2766 4056 2406 4056 
L 1169 4056 
L 1169 2466 
L 2406 2466 
Q 2825 2466 3086 2644 
Q 3347 2822 3347 3272 
z
" transform="scale(0.015625)"/>
        <path id="Helvetica-64" d="M 769 1634 
Q 769 1097 997 734 
Q 1225 372 1728 372 
Q 2119 372 2370 708 
Q 2622 1044 2622 1672 
Q 2622 2306 2362 2611 
Q 2103 2916 1722 2916 
Q 1297 2916 1033 2591 
Q 769 2266 769 1634 
z
M 1616 3406 
Q 2000 3406 2259 3244 
Q 2409 3150 2600 2916 
L 2600 4606 
L 3141 4606 
L 3141 0 
L 2634 0 
L 2634 466 
Q 2438 156 2169 18 
Q 1900 -119 1553 -119 
Q 994 -119 584 351 
Q 175 822 175 1603 
Q 175 2334 548 2870 
Q 922 3406 1616 3406 
z
" transform="scale(0.015625)"/>
        <path id="Helvetica-63" d="M 1703 3444 
Q 2269 3444 2623 3169 
Q 2978 2894 3050 2222 
L 2503 2222 
Q 2453 2531 2275 2736 
Q 2097 2941 1703 2941 
Q 1166 2941 934 2416 
Q 784 2075 784 1575 
Q 784 1072 996 728 
Q 1209 384 1666 384 
Q 2016 384 2220 598 
Q 2425 813 2503 1184 
L 3050 1184 
Q 2956 519 2581 211 
Q 2206 -97 1622 -97 
Q 966 -97 575 383 
Q 184 863 184 1581 
Q 184 2463 612 2953 
Q 1041 3444 1703 3444 
z
M 1616 3428 
L 1616 3428 
z
" transform="scale(0.015625)"/>
       </defs>
       <use xlink:href="#Helvetica-55"/>
       <use xlink:href="#Helvetica-73" x="72.216797"/>
       <use xlink:href="#Helvetica-65" x="122.216797"/>
       <use xlink:href="#Helvetica-3a" x="177.832031"/>
       <use xlink:href="#Helvetica-20" x="205.615234"/>
       <use xlink:href="#Helvetica-50" x="233.398438"/>
       <use xlink:href="#Helvetica-72" x="300.097656"/>
       <use xlink:href="#Helvetica-65" x="333.398438"/>
       <use xlink:href="#Helvetica-64" x="389.013672"/>
       <use xlink:href="#Helvetica-69" x="444.628906"/>
       <use xlink:href="#Helvetica-63" x="466.845703"/>
       <use xlink:href="#Helvetica-74" x="516.845703"/>
      </g>
     </g>
    </g>
    <g id="xtick_7">
     <g id="line2d_13">
      <path d="M 325.479712 462.895875 
L 325.479712 47.095875 
" clip-path="url(#p54db79e891)" style="fill: none; stroke: #2c1f33; stroke-width: 0.5; stroke-linecap: square"/>
     </g>
     <g id="line2d_14">
      <g>
       <use xlink:href="#m386ad5e14e" x="325.479712" y="462.895875" style="fill: #e0d0da; stroke: #e0d0da; stroke-width: 0.8"/>
      </g>
     </g>
     <g id="text_7">
      <!-- Use: Translate -->
      <g style="fill: #e0d0da" transform="translate(282.77455 515.839696) rotate(-45) scale(0.09 -0.09)">
       <defs>
        <path id="Helvetica-54" d="M 3828 4591 
L 3828 4044 
L 2281 4044 
L 2281 0 
L 1650 0 
L 1650 4044 
L 103 4044 
L 103 4591 
L 3828 4591 
z
" transform="scale(0.015625)"/>
        <path id="Helvetica-6c" d="M 428 4591 
L 991 4591 
L 991 0 
L 428 0 
L 428 4591 
z
" transform="scale(0.015625)"/>
       </defs>
       <use xlink:href="#Helvetica-55"/>
       <use xlink:href="#Helvetica-73" x="72.216797"/>
       <use xlink:href="#Helvetica-65" x="122.216797"/>
       <use xlink:href="#Helvetica-3a" x="177.832031"/>
       <use xlink:href="#Helvetica-20" x="205.615234"/>
       <use xlink:href="#Helvetica-54" x="233.398438"/>
       <use xlink:href="#Helvetica-72" x="294.482422"/>
       <use xlink:href="#Helvetica-61" x="327.783203"/>
       <use xlink:href="#Helvetica-6e" x="383.398438"/>
       <use xlink:href="#Helvetica-73" x="439.013672"/>
       <use xlink:href="#Helvetica-6c" x="489.013672"/>
       <use xlink:href="#Helvetica-61" x="511.230469"/>
       <use xlink:href="#Helvetica-74" x="566.845703"/>
       <use xlink:href="#Helvetica-65" x="594.628906"/>
      </g>
     </g>
    </g>
    <g id="xtick_8">
     <g id="line2d_15">
      <path d="M 368.402788 462.895875 
L 368.402788 47.095875 
" clip-path="url(#p54db79e891)" style="fill: none; stroke: #2c1f33; stroke-width: 0.5; stroke-linecap: square"/>
     </g>
     <g id="line2d_16">
      <g>
       <use xlink:href="#m386ad5e14e" x="368.402788" y="462.895875" style="fill: #e0d0da; stroke: #e0d0da; stroke-width: 0.8"/>
      </g>
     </g>
     <g id="text_8">
      <!-- Want: Ask -->
      <g style="fill: #e0d0da" transform="translate(338.078514 503.458809) rotate(-45) scale(0.09 -0.09)">
       <defs>
        <path id="Helvetica-57" d="M 791 4591 
L 1656 856 
L 2694 4591 
L 3369 4591 
L 4406 856 
L 5272 4591 
L 5953 4591 
L 4747 0 
L 4094 0 
L 3034 3806 
L 1969 0 
L 1316 0 
L 116 4591 
L 791 4591 
z
" transform="scale(0.015625)"/>
       </defs>
       <use xlink:href="#Helvetica-57"/>
       <use xlink:href="#Helvetica-61" x="94.384766"/>
       <use xlink:href="#Helvetica-6e" x="150"/>
       <use xlink:href="#Helvetica-74" x="205.615234"/>
       <use xlink:href="#Helvetica-3a" x="233.398438"/>
       <use xlink:href="#Helvetica-20" x="261.181641"/>
       <use xlink:href="#Helvetica-41" x="288.964844"/>
       <use xlink:href="#Helvetica-73" x="355.664062"/>
       <use xlink:href="#Helvetica-6b" x="405.664062"/>
      </g>
     </g>
    </g>
    <g id="xtick_9">
     <g id="line2d_17">
      <path d="M 411.325865 462.895875 
L 411.325865 47.095875 
" clip-path="url(#p54db79e891)" style="fill: none; stroke: #2c1f33; stroke-width: 0.5; stroke-linecap: square"/>
     </g>
     <g id="line2d_18">
      <g>
       <use xlink:href="#m386ad5e14e" x="411.325865" y="462.895875" style="fill: #e0d0da; stroke: #e0d0da; stroke-width: 0.8"/>
      </g>
     </g>
     <g id="text_9">
      <!-- Want: Assist -->
      <g style="fill: #e0d0da" transform="translate(374.63763 509.82277) rotate(-45) scale(0.09 -0.09)">
       <use xlink:href="#Helvetica-57"/>
       <use xlink:href="#Helvetica-61" x="94.384766"/>
       <use xlink:href="#Helvetica-6e" x="150"/>
       <use xlink:href="#Helvetica-74" x="205.615234"/>
       <use xlink:href="#Helvetica-3a" x="233.398438"/>
       <use xlink:href="#Helvetica-20" x="261.181641"/>
       <use xlink:href="#Helvetica-41" x="288.964844"/>
       <use xlink:href="#Helvetica-73" x="355.664062"/>
       <use xlink:href="#Helvetica-73" x="405.664062"/>
       <use xlink:href="#Helvetica-69" x="455.664062"/>
       <use xlink:href="#Helvetica-73" x="477.880859"/>
       <use xlink:href="#Helvetica-74" x="527.880859"/>
      </g>
     </g>
    </g>
    <g id="xtick_10">
     <g id="line2d_19">
      <path d="M 454.248942 462.895875 
L 454.248942 47.095875 
" clip-path="url(#p54db79e891)" style="fill: none; stroke: #2c1f33; stroke-width: 0.5; stroke-linecap: square"/>
     </g>
     <g id="line2d_20">
      <g>
       <use xlink:href="#m386ad5e14e" x="454.248942" y="462.895875" style="fill: #e0d0da; stroke: #e0d0da; stroke-width: 0.8"/>
      </g>
     </g>
     <g id="text_10">
      <!-- Want: Generate -->
      <g style="fill: #e0d0da" transform="translate(408.001839 519.381638) rotate(-45) scale(0.09 -0.09)">
       <use xlink:href="#Helvetica-57"/>
       <use xlink:href="#Helvetica-61" x="94.384766"/>
       <use xlink:href="#Helvetica-6e" x="150"/>
       <use xlink:href="#Helvetica-74" x="205.615234"/>
       <use xlink:href="#Helvetica-3a" x="233.398438"/>
       <use xlink:href="#Helvetica-20" x="261.181641"/>
       <use xlink:href="#Helvetica-47" x="288.964844"/>
       <use xlink:href="#Helvetica-65" x="366.748047"/>
       <use xlink:href="#Helvetica-6e" x="422.363281"/>
       <use xlink:href="#Helvetica-65" x="477.978516"/>
       <use xlink:href="#Helvetica-72" x="533.59375"/>
       <use xlink:href="#Helvetica-61" x="566.894531"/>
       <use xlink:href="#Helvetica-74" x="622.509766"/>
       <use xlink:href="#Helvetica-65" x="650.292969"/>
      </g>
     </g>
    </g>
    <g id="xtick_11">
     <g id="line2d_21">
      <path d="M 497.172019 462.895875 
L 497.172019 47.095875 
" clip-path="url(#p54db79e891)" style="fill: none; stroke: #2c1f33; stroke-width: 0.5; stroke-linecap: square"/>
     </g>
     <g id="line2d_22">
      <g>
       <use xlink:href="#m386ad5e14e" x="497.172019" y="462.895875" style="fill: #e0d0da; stroke: #e0d0da; stroke-width: 0.8"/>
      </g>
     </g>
     <g id="text_11">
      <!-- Want: Interpret -->
      <g style="fill: #e0d0da" transform="translate(453.758867 516.547687) rotate(-45) scale(0.09 -0.09)">
       <use xlink:href="#Helvetica-57"/>
       <use xlink:href="#Helvetica-61" x="94.384766"/>
       <use xlink:href="#Helvetica-6e" x="150"/>
       <use xlink:href="#Helvetica-74" x="205.615234"/>
       <use xlink:href="#Helvetica-3a" x="233.398438"/>
       <use xlink:href="#Helvetica-20" x="261.181641"/>
       <use xlink:href="#Helvetica-49" x="288.964844"/>
       <use xlink:href="#Helvetica-6e" x="316.748047"/>
       <use xlink:href="#Helvetica-74" x="372.363281"/>
       <use xlink:href="#Helvetica-65" x="400.146484"/>
       <use xlink:href="#Helvetica-72" x="455.761719"/>
       <use xlink:href="#Helvetica-70" x="489.0625"/>
       <use xlink:href="#Helvetica-72" x="544.677734"/>
       <use xlink:href="#Helvetica-65" x="577.978516"/>
       <use xlink:href="#Helvetica-74" x="633.59375"/>
      </g>
     </g>
    </g>
    <g id="xtick_12">
     <g id="line2d_23">
      <path d="M 540.095096 462.895875 
L 540.095096 47.095875 
" clip-path="url(#p54db79e891)" style="fill: none; stroke: #2c1f33; stroke-width: 0.5; stroke-linecap: square"/>
     </g>
     <g id="line2d_24">
      <g>
       <use xlink:href="#m386ad5e14e" x="540.095096" y="462.895875" style="fill: #e0d0da; stroke: #e0d0da; stroke-width: 0.8"/>
      </g>
     </g>
     <g id="text_12">
      <!-- Want: Organize -->
      <g style="fill: #e0d0da" transform="translate(494.477428 518.794961) rotate(-45) scale(0.09 -0.09)">
       <use xlink:href="#Helvetica-57"/>
       <use xlink:href="#Helvetica-61" x="94.384766"/>
       <use xlink:href="#Helvetica-6e" x="150"/>
       <use xlink:href="#Helvetica-74" x="205.615234"/>
       <use xlink:href="#Helvetica-3a" x="233.398438"/>
       <use xlink:href="#Helvetica-20" x="261.181641"/>
       <use xlink:href="#Helvetica-4f" x="288.964844"/>
       <use xlink:href="#Helvetica-72" x="366.748047"/>
       <use xlink:href="#Helvetica-67" x="400.048828"/>
       <use xlink:href="#Helvetica-61" x="455.664062"/>
       <use xlink:href="#Helvetica-6e" x="511.279297"/>
       <use xlink:href="#Helvetica-69" x="566.894531"/>
       <use xlink:href="#Helvetica-7a" x="589.111328"/>
       <use xlink:href="#Helvetica-65" x="639.111328"/>
      </g>
     </g>
    </g>
    <g id="xtick_13">
     <g id="line2d_25">
      <path d="M 583.018173 462.895875 
L 583.018173 47.095875 
" clip-path="url(#p54db79e891)" style="fill: none; stroke: #2c1f33; stroke-width: 0.5; stroke-linecap: square"/>
     </g>
     <g id="line2d_26">
      <g>
       <use xlink:href="#m386ad5e14e" x="583.018173" y="462.895875" style="fill: #e0d0da; stroke: #e0d0da; stroke-width: 0.8"/>
      </g>
     </g>
     <g id="text_13">
      <!-- Want: Predict -->
      <g style="fill: #e0d0da" transform="translate(543.496981 512.655727) rotate(-45) scale(0.09 -0.09)">
       <use xlink:href="#Helvetica-57"/>
       <use xlink:href="#Helvetica-61" x="94.384766"/>
       <use xlink:href="#Helvetica-6e" x="150"/>
       <use xlink:href="#Helvetica-74" x="205.615234"/>
       <use xlink:href="#Helvetica-3a" x="233.398438"/>
       <use xlink:href="#Helvetica-20" x="261.181641"/>
       <use xlink:href="#Helvetica-50" x="288.964844"/>
       <use xlink:href="#Helvetica-72" x="355.664062"/>
       <use xlink:href="#Helvetica-65" x="388.964844"/>
       <use xlink:href="#Helvetica-64" x="444.580078"/>
       <use xlink:href="#Helvetica-69" x="500.195312"/>
       <use xlink:href="#Helvetica-63" x="522.412109"/>
       <use xlink:href="#Helvetica-74" x="572.412109"/>
      </g>
     </g>
    </g>
    <g id="xtick_14">
     <g id="line2d_27">
      <path d="M 625.94125 462.895875 
L 625.94125 47.095875 
" clip-path="url(#p54db79e891)" style="fill: none; stroke: #2c1f33; stroke-width: 0.5; stroke-linecap: square"/>
     </g>
     <g id="line2d_28">
      <g>
       <use xlink:href="#m386ad5e14e" x="625.94125" y="462.895875" style="fill: #e0d0da; stroke: #e0d0da; stroke-width: 0.8"/>
      </g>
     </g>
     <g id="text_14">
      <!-- Want: Translate -->
      <g style="fill: #e0d0da" transform="translate(579.700113 519.375672) rotate(-45) scale(0.09 -0.09)">
       <use xlink:href="#Helvetica-57"/>
       <use xlink:href="#Helvetica-61" x="94.384766"/>
       <use xlink:href="#Helvetica-6e" x="150"/>
       <use xlink:href="#Helvetica-74" x="205.615234"/>
       <use xlink:href="#Helvetica-3a" x="233.398438"/>
       <use xlink:href="#Helvetica-20" x="261.181641"/>
       <use xlink:href="#Helvetica-54" x="288.964844"/>
       <use xlink:href="#Helvetica-72" x="350.048828"/>
       <use xlink:href="#Helvetica-61" x="383.349609"/>
       <use xlink:href="#Helvetica-6e" x="438.964844"/>
       <use xlink:href="#Helvetica-73" x="494.580078"/>
       <use xlink:href="#Helvetica-6c" x="544.580078"/>
       <use xlink:href="#Helvetica-61" x="566.796875"/>
       <use xlink:href="#Helvetica-74" x="622.412109"/>
       <use xlink:href="#Helvetica-65" x="650.195312"/>
      </g>
     </g>
    </g>
   </g>
   <g id="matplotlib.axis_2">
    <g id="ytick_1">
     <g id="line2d_29">
      <path d="M 40.04125 462.895875 
L 653.84125 462.895875 
" clip-path="url(#p54db79e891)" style="fill: none; stroke: #2c1f33; stroke-width: 0.5; stroke-linecap: square"/>
     </g>
     <g id="line2d_30">
      <defs>
       <path id="m919fc6bc60" d="M 0 0 
L -3.5 0 
" style="stroke: #e0d0da; stroke-width: 0.8"/>
      </defs>
      <g>
       <use xlink:href="#m919fc6bc60" x="40.04125" y="462.895875" style="fill: #e0d0da; stroke: #e0d0da; stroke-width: 0.8"/>
      </g>
     </g>
     <g id="text_15">
      <!-- 0.0 -->
      <g style="fill: #e0d0da" transform="translate(20.53125 466.123922) scale(0.09 -0.09)">
       <defs>
        <path id="Helvetica-30" d="M 1731 4475 
Q 2600 4475 2988 3759 
Q 3288 3206 3288 2244 
Q 3288 1331 3016 734 
Q 2622 -122 1728 -122 
Q 922 -122 528 578 
Q 200 1163 200 2147 
Q 200 2909 397 3456 
Q 766 4475 1731 4475 
z
M 1725 391 
Q 2163 391 2422 778 
Q 2681 1166 2681 2222 
Q 2681 2984 2493 3476 
Q 2306 3969 1766 3969 
Q 1269 3969 1039 3501 
Q 809 3034 809 2125 
Q 809 1441 956 1025 
Q 1181 391 1725 391 
z
" transform="scale(0.015625)"/>
        <path id="Helvetica-2e" d="M 547 681 
L 1200 681 
L 1200 0 
L 547 0 
L 547 681 
z
" transform="scale(0.015625)"/>
       </defs>
       <use xlink:href="#Helvetica-30"/>
       <use xlink:href="#Helvetica-2e" x="55.615234"/>
       <use xlink:href="#Helvetica-30" x="83.398438"/>
      </g>
     </g>
    </g>
    <g id="ytick_2">
     <g id="line2d_31">
      <path d="M 40.04125 383.695875 
L 653.84125 383.695875 
" clip-path="url(#p54db79e891)" style="fill: none; stroke: #2c1f33; stroke-width: 0.5; stroke-linecap: square"/>
     </g>
     <g id="line2d_32">
      <g>
       <use xlink:href="#m919fc6bc60" x="40.04125" y="383.695875" style="fill: #e0d0da; stroke: #e0d0da; stroke-width: 0.8"/>
      </g>
     </g>
     <g id="text_16">
      <!-- 0.2 -->
      <g style="fill: #e0d0da" transform="translate(20.53125 386.923922) scale(0.09 -0.09)">
       <defs>
        <path id="Helvetica-32" d="M 200 0 
Q 231 578 439 1006 
Q 647 1434 1250 1784 
L 1850 2131 
Q 2253 2366 2416 2531 
Q 2672 2791 2672 3125 
Q 2672 3516 2437 3745 
Q 2203 3975 1813 3975 
Q 1234 3975 1013 3538 
Q 894 3303 881 2888 
L 309 2888 
Q 319 3472 525 3841 
Q 891 4491 1816 4491 
Q 2584 4491 2939 4075 
Q 3294 3659 3294 3150 
Q 3294 2613 2916 2231 
Q 2697 2009 2131 1694 
L 1703 1456 
Q 1397 1288 1222 1134 
Q 909 863 828 531 
L 3272 531 
L 3272 0 
L 200 0 
z
" transform="scale(0.015625)"/>
       </defs>
       <use xlink:href="#Helvetica-30"/>
       <use xlink:href="#Helvetica-2e" x="55.615234"/>
       <use xlink:href="#Helvetica-32" x="83.398438"/>
      </g>
     </g>
    </g>
    <g id="ytick_3">
     <g id="line2d_33">
      <path d="M 40.04125 304.495875 
L 653.84125 304.495875 
" clip-path="url(#p54db79e891)" style="fill: none; stroke: #2c1f33; stroke-width: 0.5; stroke-linecap: square"/>
     </g>
     <g id="line2d_34">
      <g>
       <use xlink:href="#m919fc6bc60" x="40.04125" y="304.495875" style="fill: #e0d0da; stroke: #e0d0da; stroke-width: 0.8"/>
      </g>
     </g>
     <g id="text_17">
      <!-- 0.4 -->
      <g style="fill: #e0d0da" transform="translate(20.53125 307.723922) scale(0.09 -0.09)">
       <defs>
        <path id="Helvetica-34" d="M 2116 1584 
L 2116 3613 
L 681 1584 
L 2116 1584 
z
M 2125 0 
L 2125 1094 
L 163 1094 
L 163 1644 
L 2213 4488 
L 2688 4488 
L 2688 1584 
L 3347 1584 
L 3347 1094 
L 2688 1094 
L 2688 0 
L 2125 0 
z
" transform="scale(0.015625)"/>
       </defs>
       <use xlink:href="#Helvetica-30"/>
       <use xlink:href="#Helvetica-2e" x="55.615234"/>
       <use xlink:href="#Helvetica-34" x="83.398438"/>
      </g>
     </g>
    </g>
    <g id="ytick_4">
     <g id="line2d_35">
      <path d="M 40.04125 225.295875 
L 653.84125 225.295875 
" clip-path="url(#p54db79e891)" style="fill: none; stroke: #2c1f33; stroke-width: 0.5; stroke-linecap: square"/>
     </g>
     <g id="line2d_36">
      <g>
       <use xlink:href="#m919fc6bc60" x="40.04125" y="225.295875" style="fill: #e0d0da; stroke: #e0d0da; stroke-width: 0.8"/>
      </g>
     </g>
     <g id="text_18">
      <!-- 0.6 -->
      <g style="fill: #e0d0da" transform="translate(20.53125 228.523922) scale(0.09 -0.09)">
       <defs>
        <path id="Helvetica-36" d="M 1872 4494 
Q 2622 4494 2917 4105 
Q 3213 3716 3213 3303 
L 2656 3303 
Q 2606 3569 2497 3719 
Q 2294 4000 1881 4000 
Q 1409 4000 1131 3564 
Q 853 3128 822 2316 
Q 1016 2600 1309 2741 
Q 1578 2866 1909 2866 
Q 2472 2866 2890 2506 
Q 3309 2147 3309 1434 
Q 3309 825 2912 354 
Q 2516 -116 1781 -116 
Q 1153 -116 697 361 
Q 241 838 241 1966 
Q 241 2800 444 3381 
Q 834 4494 1872 4494 
z
M 1831 384 
Q 2275 384 2495 682 
Q 2716 981 2716 1388 
Q 2716 1731 2519 2042 
Q 2322 2353 1803 2353 
Q 1441 2353 1167 2112 
Q 894 1872 894 1388 
Q 894 963 1142 673 
Q 1391 384 1831 384 
z
" transform="scale(0.015625)"/>
       </defs>
       <use xlink:href="#Helvetica-30"/>
       <use xlink:href="#Helvetica-2e" x="55.615234"/>
       <use xlink:href="#Helvetica-36" x="83.398438"/>
      </g>
     </g>
    </g>
    <g id="ytick_5">
     <g id="line2d_37">
      <path d="M 40.04125 146.095875 
L 653.84125 146.095875 
" clip-path="url(#p54db79e891)" style="fill: none; stroke: #2c1f33; stroke-width: 0.5; stroke-linecap: square"/>
     </g>
     <g id="line2d_38">
      <g>
       <use xlink:href="#m919fc6bc60" x="40.04125" y="146.095875" style="fill: #e0d0da; stroke: #e0d0da; stroke-width: 0.8"/>
      </g>
     </g>
     <g id="text_19">
      <!-- 0.8 -->
      <g style="fill: #e0d0da" transform="translate(20.53125 149.323922) scale(0.09 -0.09)">
       <defs>
        <path id="Helvetica-38" d="M 1741 2600 
Q 2113 2600 2322 2808 
Q 2531 3016 2531 3303 
Q 2531 3553 2331 3762 
Q 2131 3972 1722 3972 
Q 1316 3972 1134 3762 
Q 953 3553 953 3272 
Q 953 2956 1187 2778 
Q 1422 2600 1741 2600 
z
M 1775 384 
Q 2166 384 2423 595 
Q 2681 806 2681 1225 
Q 2681 1659 2415 1884 
Q 2150 2109 1734 2109 
Q 1331 2109 1076 1879 
Q 822 1650 822 1244 
Q 822 894 1055 639 
Q 1288 384 1775 384 
z
M 975 2384 
Q 741 2484 609 2619 
Q 363 2869 363 3269 
Q 363 3769 725 4128 
Q 1088 4488 1753 4488 
Q 2397 4488 2762 4148 
Q 3128 3809 3128 3356 
Q 3128 2938 2916 2678 
Q 2797 2531 2547 2391 
Q 2825 2263 2984 2097 
Q 3281 1784 3281 1284 
Q 3281 694 2884 283 
Q 2488 -128 1763 -128 
Q 1109 -128 657 226 
Q 206 581 206 1256 
Q 206 1653 400 1942 
Q 594 2231 975 2384 
z
" transform="scale(0.015625)"/>
       </defs>
       <use xlink:href="#Helvetica-30"/>
       <use xlink:href="#Helvetica-2e" x="55.615234"/>
       <use xlink:href="#Helvetica-38" x="83.398438"/>
      </g>
     </g>
    </g>
    <g id="ytick_6">
     <g id="line2d_39">
      <path d="M 40.04125 66.895875 
L 653.84125 66.895875 
" clip-path="url(#p54db79e891)" style="fill: none; stroke: #2c1f33; stroke-width: 0.5; stroke-linecap: square"/>
     </g>
     <g id="line2d_40">
      <g>
       <use xlink:href="#m919fc6bc60" x="40.04125" y="66.895875" style="fill: #e0d0da; stroke: #e0d0da; stroke-width: 0.8"/>
      </g>
     </g>
     <g id="text_20">
      <!-- 1.0 -->
      <g style="fill: #e0d0da" transform="translate(20.53125 70.123922) scale(0.09 -0.09)">
       <defs>
        <path id="Helvetica-31" d="M 613 3169 
L 613 3600 
Q 1222 3659 1462 3798 
Q 1703 3938 1822 4456 
L 2266 4456 
L 2266 0 
L 1666 0 
L 1666 3169 
L 613 3169 
z
" transform="scale(0.015625)"/>
       </defs>
       <use xlink:href="#Helvetica-31"/>
       <use xlink:href="#Helvetica-2e" x="55.615234"/>
       <use xlink:href="#Helvetica-30" x="83.398438"/>
      </g>
     </g>
    </g>
    <g id="text_21">
     <!-- P(item = 1 | class) -->
     <g style="fill: #f0e5ec" transform="translate(14.446875 295.053687) rotate(-90) scale(0.1 -0.1)">
      <defs>
       <path id="Helvetica-28" d="M 1894 4666 
Q 1403 3713 1256 3263 
Q 1034 2578 1034 1681 
Q 1034 775 1288 25 
Q 1444 -438 1903 -1306 
L 1525 -1306 
Q 1069 -594 959 -397 
Q 850 -200 722 138 
Q 547 600 478 1125 
Q 444 1397 444 1644 
Q 444 2569 734 3291 
Q 919 3750 1503 4666 
L 1894 4666 
z
" transform="scale(0.015625)"/>
       <path id="Helvetica-6d" d="M 413 3347 
L 969 3347 
L 969 2872 
Q 1169 3119 1331 3231 
Q 1609 3422 1963 3422 
Q 2363 3422 2606 3225 
Q 2744 3113 2856 2894 
Q 3044 3163 3297 3292 
Q 3550 3422 3866 3422 
Q 4541 3422 4784 2934 
Q 4916 2672 4916 2228 
L 4916 0 
L 4331 0 
L 4331 2325 
Q 4331 2659 4164 2784 
Q 3997 2909 3756 2909 
Q 3425 2909 3186 2687 
Q 2947 2466 2947 1947 
L 2947 0 
L 2375 0 
L 2375 2184 
Q 2375 2525 2294 2681 
Q 2166 2916 1816 2916 
Q 1497 2916 1236 2669 
Q 975 2422 975 1775 
L 975 0 
L 413 0 
L 413 3347 
z
" transform="scale(0.015625)"/>
       <path id="Helvetica-3d" d="M 3547 2569 
L 3547 2044 
L 288 2044 
L 288 2569 
L 3547 2569 
z
M 3547 1228 
L 3547 694 
L 288 694 
L 288 1228 
L 3547 1228 
z
" transform="scale(0.015625)"/>
       <path id="Helvetica-7c" d="M 984 0 
L 450 0 
L 450 4656 
L 984 4656 
L 984 0 
z
" transform="scale(0.015625)"/>
       <path id="Helvetica-29" d="M 222 -1306 
Q 719 -338 863 106 
Q 1081 778 1081 1681 
Q 1081 2584 828 3334 
Q 672 3797 213 4666 
L 591 4666 
Q 1072 3897 1173 3717 
Q 1275 3538 1394 3222 
Q 1544 2831 1608 2450 
Q 1672 2069 1672 1716 
Q 1672 791 1378 66 
Q 1194 -400 613 -1306 
L 222 -1306 
z
" transform="scale(0.015625)"/>
      </defs>
      <use xlink:href="#Helvetica-50"/>
      <use xlink:href="#Helvetica-28" x="66.699219"/>
      <use xlink:href="#Helvetica-69" x="100"/>
      <use xlink:href="#Helvetica-74" x="122.216797"/>
      <use xlink:href="#Helvetica-65" x="150"/>
      <use xlink:href="#Helvetica-6d" x="205.615234"/>
      <use xlink:href="#Helvetica-20" x="288.916016"/>
      <use xlink:href="#Helvetica-3d" x="316.699219"/>
      <use xlink:href="#Helvetica-20" x="375.097656"/>
      <use xlink:href="#Helvetica-31" x="402.880859"/>
      <use xlink:href="#Helvetica-20" x="458.496094"/>
      <use xlink:href="#Helvetica-7c" x="486.279297"/>
      <use xlink:href="#Helvetica-20" x="512.255859"/>
      <use xlink:href="#Helvetica-63" x="540.039062"/>
      <use xlink:href="#Helvetica-6c" x="590.039062"/>
      <use xlink:href="#Helvetica-61" x="612.255859"/>
      <use xlink:href="#Helvetica-73" x="667.871094"/>
      <use xlink:href="#Helvetica-73" x="717.871094"/>
      <use xlink:href="#Helvetica-29" x="767.871094"/>
     </g>
    </g>
   </g>
   <g id="line2d_41">
    <path d="M 67.94125 449.357413 
L 110.864327 459.51126 
L 153.787404 401.972798 
L 196.710481 462.895875 
L 239.633558 444.28049 
L 282.556635 456.126644 
L 325.479712 454.434337 
L 368.402788 457.818952 
L 411.325865 451.049721 
L 454.248942 383.357413 
L 497.172019 461.203567 
L 540.095096 422.28049 
L 583.018173 459.51126 
L 625.94125 459.51126 
" clip-path="url(#p54db79e891)" style="fill: none; stroke: #7e57c2; stroke-width: 2; stroke-linecap: square"/>
    <defs>
     <path id="m3c6c794286" d="M 0 3 
C 0.795609 3 1.55874 2.683901 2.12132 2.12132 
C 2.683901 1.55874 3 0.795609 3 0 
C 3 -0.795609 2.683901 -1.55874 2.12132 -2.12132 
C 1.55874 -2.683901 0.795609 -3 0 -3 
C -0.795609 -3 -1.55874 -2.683901 -2.12132 -2.12132 
C -2.683901 -1.55874 -3 -0.795609 -3 0 
C -3 0.795609 -2.683901 1.55874 -2.12132 2.12132 
C -1.55874 2.683901 -0.795609 3 0 3 
z
" style="stroke: #7e57c2"/>
    </defs>
    <g clip-path="url(#p54db79e891)">
     <use xlink:href="#m3c6c794286" x="67.94125" y="449.357413" style="fill: #7e57c2; stroke: #7e57c2"/>
     <use xlink:href="#m3c6c794286" x="110.864327" y="459.51126" style="fill: #7e57c2; stroke: #7e57c2"/>
     <use xlink:href="#m3c6c794286" x="153.787404" y="401.972798" style="fill: #7e57c2; stroke: #7e57c2"/>
     <use xlink:href="#m3c6c794286" x="196.710481" y="462.895875" style="fill: #7e57c2; stroke: #7e57c2"/>
     <use xlink:href="#m3c6c794286" x="239.633558" y="444.28049" style="fill: #7e57c2; stroke: #7e57c2"/>
     <use xlink:href="#m3c6c794286" x="282.556635" y="456.126644" style="fill: #7e57c2; stroke: #7e57c2"/>
     <use xlink:href="#m3c6c794286" x="325.479712" y="454.434337" style="fill: #7e57c2; stroke: #7e57c2"/>
     <use xlink:href="#m3c6c794286" x="368.402788" y="457.818952" style="fill: #7e57c2; stroke: #7e57c2"/>
     <use xlink:href="#m3c6c794286" x="411.325865" y="451.049721" style="fill: #7e57c2; stroke: #7e57c2"/>
     <use xlink:href="#m3c6c794286" x="454.248942" y="383.357413" style="fill: #7e57c2; stroke: #7e57c2"/>
     <use xlink:href="#m3c6c794286" x="497.172019" y="461.203567" style="fill: #7e57c2; stroke: #7e57c2"/>
     <use xlink:href="#m3c6c794286" x="540.095096" y="422.28049" style="fill: #7e57c2; stroke: #7e57c2"/>
     <use xlink:href="#m3c6c794286" x="583.018173" y="459.51126" style="fill: #7e57c2; stroke: #7e57c2"/>
     <use xlink:href="#m3c6c794286" x="625.94125" y="459.51126" style="fill: #7e57c2; stroke: #7e57c2"/>
    </g>
   </g>
   <g id="line2d_42">
    <path d="M 67.94125 327.656611 
L 110.864327 406.208758 
L 153.787404 215.90201 
L 196.710481 413.497102 
L 239.633558 401.349863 
L 282.556635 432.932685 
L 325.479712 364.098329 
L 368.402788 323.607531 
L 411.325865 215.092194 
L 454.248942 252.343728 
L 497.172019 253.153544 
L 540.095096 193.227163 
L 583.018173 241.006304 
L 625.94125 325.227163 
" clip-path="url(#p54db79e891)" style="fill: none; stroke: #f5b041; stroke-width: 2; stroke-linecap: square"/>
    <defs>
     <path id="mb5dee7f999" d="M 0 3 
C 0.795609 3 1.55874 2.683901 2.12132 2.12132 
C 2.683901 1.55874 3 0.795609 3 0 
C 3 -0.795609 2.683901 -1.55874 2.12132 -2.12132 
C 1.55874 -2.683901 0.795609 -3 0 -3 
C -0.795609 -3 -1.55874 -2.683901 -2.12132 -2.12132 
C -2.683901 -1.55874 -3 -0.795609 -3 0 
C -3 0.795609 -2.683901 1.55874 -2.12132 2.12132 
C -1.55874 2.683901 -0.795609 3 0 3 
z
" style="stroke: #f5b041"/>
    </defs>
    <g clip-path="url(#p54db79e891)">
     <use xlink:href="#mb5dee7f999" x="67.94125" y="327.656611" style="fill: #f5b041; stroke: #f5b041"/>
     <use xlink:href="#mb5dee7f999" x="110.864327" y="406.208758" style="fill: #f5b041; stroke: #f5b041"/>
     <use xlink:href="#mb5dee7f999" x="153.787404" y="215.90201" style="fill: #f5b041; stroke: #f5b041"/>
     <use xlink:href="#mb5dee7f999" x="196.710481" y="413.497102" style="fill: #f5b041; stroke: #f5b041"/>
     <use xlink:href="#mb5dee7f999" x="239.633558" y="401.349863" style="fill: #f5b041; stroke: #f5b041"/>
     <use xlink:href="#mb5dee7f999" x="282.556635" y="432.932685" style="fill: #f5b041; stroke: #f5b041"/>
     <use xlink:href="#mb5dee7f999" x="325.479712" y="364.098329" style="fill: #f5b041; stroke: #f5b041"/>
     <use xlink:href="#mb5dee7f999" x="368.402788" y="323.607531" style="fill: #f5b041; stroke: #f5b041"/>
     <use xlink:href="#mb5dee7f999" x="411.325865" y="215.092194" style="fill: #f5b041; stroke: #f5b041"/>
     <use xlink:href="#mb5dee7f999" x="454.248942" y="252.343728" style="fill: #f5b041; stroke: #f5b041"/>
     <use xlink:href="#mb5dee7f999" x="497.172019" y="253.153544" style="fill: #f5b041; stroke: #f5b041"/>
     <use xlink:href="#mb5dee7f999" x="540.095096" y="193.227163" style="fill: #f5b041; stroke: #f5b041"/>
     <use xlink:href="#mb5dee7f999" x="583.018173" y="241.006304" style="fill: #f5b041; stroke: #f5b041"/>
     <use xlink:href="#mb5dee7f999" x="625.94125" y="325.227163" style="fill: #f5b041; stroke: #f5b041"/>
    </g>
   </g>
   <g id="line2d_43">
    <path d="M 67.94125 216.113266 
L 110.864327 313.678484 
L 153.787404 156.808918 
L 196.710481 307.939353 
L 239.633558 288.808918 
L 282.556635 342.374136 
L 325.479712 271.591527 
L 368.402788 95.591527 
L 411.325865 70.721962 
L 454.248942 72.635005 
L 497.172019 72.635005 
L 540.095096 72.635005 
L 583.018173 70.721962 
L 625.94125 97.504571 
" clip-path="url(#p54db79e891)" style="fill: none; stroke: #ec4899; stroke-width: 2; stroke-linecap: square"/>
    <defs>
     <path id="mea136b93a5" d="M 0 3 
C 0.795609 3 1.55874 2.683901 2.12132 2.12132 
C 2.683901 1.55874 3 0.795609 3 0 
C 3 -0.795609 2.683901 -1.55874 2.12132 -2.12132 
C 1.55874 -2.683901 0.795609 -3 0 -3 
C -0.795609 -3 -1.55874 -2.683901 -2.12132 -2.12132 
C -2.683901 -1.55874 -3 -0.795609 -3 0 
C -3 0.795609 -2.683901 1.55874 -2.12132 2.12132 
C -1.55874 2.683901 -0.795609 3 0 3 
z
" style="stroke: #ec4899"/>
    </defs>
    <g clip-path="url(#p54db79e891)">
     <use xlink:href="#mea136b93a5" x="67.94125" y="216.113266" style="fill: #ec4899; stroke: #ec4899"/>
     <use xlink:href="#mea136b93a5" x="110.864327" y="313.678484" style="fill: #ec4899; stroke: #ec4899"/>
     <use xlink:href="#mea136b93a5" x="153.787404" y="156.808918" style="fill: #ec4899; stroke: #ec4899"/>
     <use xlink:href="#mea136b93a5" x="196.710481" y="307.939353" style="fill: #ec4899; stroke: #ec4899"/>
     <use xlink:href="#mea136b93a5" x="239.633558" y="288.808918" style="fill: #ec4899; stroke: #ec4899"/>
     <use xlink:href="#mea136b93a5" x="282.556635" y="342.374136" style="fill: #ec4899; stroke: #ec4899"/>
     <use xlink:href="#mea136b93a5" x="325.479712" y="271.591527" style="fill: #ec4899; stroke: #ec4899"/>
     <use xlink:href="#mea136b93a5" x="368.402788" y="95.591527" style="fill: #ec4899; stroke: #ec4899"/>
     <use xlink:href="#mea136b93a5" x="411.325865" y="70.721962" style="fill: #ec4899; stroke: #ec4899"/>
     <use xlink:href="#mea136b93a5" x="454.248942" y="72.635005" style="fill: #ec4899; stroke: #ec4899"/>
     <use xlink:href="#mea136b93a5" x="497.172019" y="72.635005" style="fill: #ec4899; stroke: #ec4899"/>
     <use xlink:href="#mea136b93a5" x="540.095096" y="72.635005" style="fill: #ec4899; stroke: #ec4899"/>
     <use xlink:href="#mea136b93a5" x="583.018173" y="70.721962" style="fill: #ec4899; stroke: #ec4899"/>
     <use xlink:href="#mea136b93a5" x="625.94125" y="97.504571" style="fill: #ec4899; stroke: #ec4899"/>
    </g>
   </g>
   <g id="line2d_44">
    <path d="M 346.94125 462.895875 
L 346.94125 47.095875 
" clip-path="url(#p54db79e891)" style="fill: none; stroke-dasharray: 2.59,1.12; stroke-dashoffset: 0; stroke: #6e5060; stroke-width: 0.7"/>
   </g>
   <g id="patch_3">
    <path d="M 40.04125 462.895875 
L 40.04125 47.095875 
" style="fill: none; stroke: #7a5a6e; stroke-width: 0.8; stroke-linejoin: miter; stroke-linecap: square"/>
   </g>
   <g id="patch_4">
    <path d="M 40.04125 462.895875 
L 653.84125 462.895875 
" style="fill: none; stroke: #7a5a6e; stroke-width: 0.8; stroke-linejoin: miter; stroke-linecap: square"/>
   </g>
   <g id="text_22">
    <!-- Currently uses AI for… -->
    <g style="fill: #e0d0da" transform="translate(151.198606 13.831875) scale(0.09 -0.09)">
     <defs>
      <path id="Helvetica-43" d="M 2422 4716 
Q 3294 4716 3775 4256 
Q 4256 3797 4309 3213 
L 3703 3213 
Q 3600 3656 3292 3915 
Q 2984 4175 2428 4175 
Q 1750 4175 1333 3698 
Q 916 3222 916 2238 
Q 916 1431 1292 929 
Q 1669 428 2416 428 
Q 3103 428 3463 956 
Q 3653 1234 3747 1688 
L 4353 1688 
Q 4272 963 3816 472 
Q 3269 -119 2341 -119 
Q 1541 -119 997 366 
Q 281 1006 281 2344 
Q 281 3359 819 4009 
Q 1400 4716 2422 4716 
z
M 2297 4716 
L 2297 4716 
z
" transform="scale(0.015625)"/>
      <path id="Helvetica-75" d="M 975 3347 
L 975 1125 
Q 975 869 1056 706 
Q 1206 406 1616 406 
Q 2203 406 2416 931 
Q 2531 1213 2531 1703 
L 2531 3347 
L 3094 3347 
L 3094 0 
L 2563 0 
L 2569 494 
Q 2459 303 2297 172 
Q 1975 -91 1516 -91 
Q 800 -91 541 388 
Q 400 644 400 1072 
L 400 3347 
L 975 3347 
z
M 1747 3428 
L 1747 3428 
z
" transform="scale(0.015625)"/>
      <path id="Helvetica-79" d="M 2503 3347 
L 3125 3347 
Q 3006 3025 2597 1878 
Q 2291 1016 2084 472 
Q 1597 -809 1397 -1090 
Q 1197 -1372 709 -1372 
Q 591 -1372 527 -1362 
Q 463 -1353 369 -1328 
L 369 -816 
Q 516 -856 581 -865 
Q 647 -875 697 -875 
Q 853 -875 926 -823 
Q 1000 -772 1050 -697 
Q 1066 -672 1162 -440 
Q 1259 -209 1303 -97 
L 66 3347 
L 703 3347 
L 1600 622 
L 2503 3347 
z
M 1597 3428 
L 1597 3428 
z
" transform="scale(0.015625)"/>
      <path id="Helvetica-66" d="M 553 3856 
Q 566 4206 675 4369 
Q 872 4656 1434 4656 
Q 1488 4656 1544 4653 
Q 1600 4650 1672 4644 
L 1672 4131 
Q 1584 4138 1545 4139 
Q 1506 4141 1472 4141 
Q 1216 4141 1166 4008 
Q 1116 3875 1116 3331 
L 1672 3331 
L 1672 2888 
L 1109 2888 
L 1109 0 
L 553 0 
L 553 2888 
L 88 2888 
L 88 3331 
L 553 3331 
L 553 3856 
z
" transform="scale(0.015625)"/>
      <path id="Helvetica-6f" d="M 1741 363 
Q 2300 363 2508 786 
Q 2716 1209 2716 1728 
Q 2716 2197 2566 2491 
Q 2328 2953 1747 2953 
Q 1231 2953 997 2559 
Q 763 2166 763 1609 
Q 763 1075 997 719 
Q 1231 363 1741 363 
z
M 1763 3444 
Q 2409 3444 2856 3012 
Q 3303 2581 3303 1744 
Q 3303 934 2909 406 
Q 2516 -122 1688 -122 
Q 997 -122 590 345 
Q 184 813 184 1600 
Q 184 2444 612 2944 
Q 1041 3444 1763 3444 
z
M 1744 3428 
L 1744 3428 
z
" transform="scale(0.015625)"/>
      <path id="Helvetica-2026" d="M 2872 0 
L 2872 688 
L 3525 688 
L 3525 0 
L 2872 0 
z
M 741 688 
L 1391 688 
L 1391 0 
L 741 0 
L 741 688 
z
M 5006 0 
L 5006 688 
L 5656 688 
L 5656 0 
L 5006 0 
z
" transform="scale(0.015625)"/>
     </defs>
     <use xlink:href="#Helvetica-43"/>
     <use xlink:href="#Helvetica-75" x="72.216797"/>
     <use xlink:href="#Helvetica-72" x="127.832031"/>
     <use xlink:href="#Helvetica-72" x="161.132812"/>
     <use xlink:href="#Helvetica-65" x="194.433594"/>
     <use xlink:href="#Helvetica-6e" x="250.048828"/>
     <use xlink:href="#Helvetica-74" x="305.664062"/>
     <use xlink:href="#Helvetica-6c" x="333.447266"/>
     <use xlink:href="#Helvetica-79" x="355.664062"/>
     <use xlink:href="#Helvetica-20" x="405.664062"/>
     <use xlink:href="#Helvetica-75" x="433.447266"/>
     <use xlink:href="#Helvetica-73" x="489.0625"/>
     <use xlink:href="#Helvetica-65" x="539.0625"/>
     <use xlink:href="#Helvetica-73" x="594.677734"/>
     <use xlink:href="#Helvetica-20" x="644.677734"/>
     <use xlink:href="#Helvetica-41" x="672.460938"/>
     <use xlink:href="#Helvetica-49" x="739.160156"/>
     <use xlink:href="#Helvetica-20" x="766.943359"/>
     <use xlink:href="#Helvetica-66" x="794.726562"/>
     <use xlink:href="#Helvetica-6f" x="822.509766"/>
     <use xlink:href="#Helvetica-72" x="878.125"/>
     <use xlink:href="#Helvetica-2026" x="911.425781"/>
    </g>
   </g>
   <g id="text_23">
    <!-- Wants to use AI for… -->
    <g style="fill: #e0d0da" transform="translate(454.40866 13.831875) scale(0.09 -0.09)">
     <use xlink:href="#Helvetica-57"/>
     <use xlink:href="#Helvetica-61" x="94.384766"/>
     <use xlink:href="#Helvetica-6e" x="150"/>
     <use xlink:href="#Helvetica-74" x="205.615234"/>
     <use xlink:href="#Helvetica-73" x="233.398438"/>
     <use xlink:href="#Helvetica-20" x="283.398438"/>
     <use xlink:href="#Helvetica-74" x="311.181641"/>
     <use xlink:href="#Helvetica-6f" x="338.964844"/>
     <use xlink:href="#Helvetica-20" x="394.580078"/>
     <use xlink:href="#Helvetica-75" x="422.363281"/>
     <use xlink:href="#Helvetica-73" x="477.978516"/>
     <use xlink:href="#Helvetica-65" x="527.978516"/>
     <use xlink:href="#Helvetica-20" x="583.59375"/>
     <use xlink:href="#Helvetica-41" x="611.376953"/>
     <use xlink:href="#Helvetica-49" x="678.076172"/>
     <use xlink:href="#Helvetica-20" x="705.859375"/>
     <use xlink:href="#Helvetica-66" x="733.642578"/>
     <use xlink:href="#Helvetica-6f" x="761.425781"/>
     <use xlink:href="#Helvetica-72" x="817.041016"/>
     <use xlink:href="#Helvetica-2026" x="850.341797"/>
    </g>
   </g>
   <g id="text_24">
    <!-- stepmix LCA, BIC=13131. Modal class is Aspirational: low use across all items, high want across analytical items. -->
    <g style="fill: #b5a0ab" transform="translate(40.04125 620.899875) scale(0.085 -0.085)">
     <defs>
      <path id="Helvetica-78" d="M 94 3347 
L 822 3347 
L 1591 2169 
L 2369 3347 
L 3053 3331 
L 1925 1716 
L 3103 0 
L 2384 0 
L 1553 1256 
L 747 0 
L 34 0 
L 1213 1716 
L 94 3347 
z
" transform="scale(0.015625)"/>
      <path id="Helvetica-4c" d="M 488 4591 
L 1109 4591 
L 1109 547 
L 3434 547 
L 3434 0 
L 488 0 
L 488 4591 
z
" transform="scale(0.015625)"/>
      <path id="Helvetica-2c" d="M 531 -653 
Q 747 -616 834 -350 
Q 881 -209 881 -78 
Q 881 -56 879 -39 
Q 878 -22 872 0 
L 531 0 
L 531 681 
L 1200 681 
L 1200 50 
Q 1200 -322 1050 -603 
Q 900 -884 531 -950 
L 531 -653 
z
" transform="scale(0.015625)"/>
      <path id="Helvetica-42" d="M 2213 2650 
Q 2606 2650 2825 2759 
Q 3169 2931 3169 3378 
Q 3169 3828 2803 3984 
Q 2597 4072 2191 4072 
L 1081 4072 
L 1081 2650 
L 2213 2650 
z
M 2422 531 
Q 2994 531 3238 863 
Q 3391 1072 3391 1369 
Q 3391 1869 2944 2050 
Q 2706 2147 2316 2147 
L 1081 2147 
L 1081 531 
L 2422 531 
z
M 472 4591 
L 2444 4591 
Q 3250 4591 3591 4109 
Q 3791 3825 3791 3453 
Q 3791 3019 3544 2741 
Q 3416 2594 3175 2472 
Q 3528 2338 3703 2169 
Q 4013 1869 4013 1341 
Q 4013 897 3734 538 
Q 3319 0 2413 0 
L 472 0 
L 472 4591 
z
" transform="scale(0.015625)"/>
      <path id="Helvetica-33" d="M 1663 -122 
Q 869 -122 511 314 
Q 153 750 153 1375 
L 741 1375 
Q 778 941 903 744 
Q 1122 391 1694 391 
Q 2138 391 2406 628 
Q 2675 866 2675 1241 
Q 2675 1703 2392 1887 
Q 2109 2072 1606 2072 
Q 1550 2072 1492 2070 
Q 1434 2069 1375 2066 
L 1375 2563 
Q 1463 2553 1522 2550 
Q 1581 2547 1650 2547 
Q 1966 2547 2169 2647 
Q 2525 2822 2525 3272 
Q 2525 3606 2287 3787 
Q 2050 3969 1734 3969 
Q 1172 3969 956 3594 
Q 838 3388 822 3006 
L 266 3006 
Q 266 3506 466 3856 
Q 809 4481 1675 4481 
Q 2359 4481 2734 4176 
Q 3109 3872 3109 3294 
Q 3109 2881 2888 2625 
Q 2750 2466 2531 2375 
Q 2884 2278 3082 2001 
Q 3281 1725 3281 1325 
Q 3281 684 2859 281 
Q 2438 -122 1663 -122 
z
" transform="scale(0.015625)"/>
      <path id="Helvetica-4d" d="M 472 4591 
L 1363 4591 
L 2681 709 
L 3991 4591 
L 4872 4591 
L 4872 0 
L 4281 0 
L 4281 2709 
Q 4281 2850 4287 3175 
Q 4294 3500 4294 3872 
L 2984 0 
L 2369 0 
L 1050 3872 
L 1050 3731 
Q 1050 3563 1058 3217 
Q 1066 2872 1066 2709 
L 1066 0 
L 472 0 
L 472 4591 
z
" transform="scale(0.015625)"/>
      <path id="Helvetica-77" d="M 672 3347 
L 1316 709 
L 1969 3347 
L 2600 3347 
L 3256 725 
L 3941 3347 
L 4503 3347 
L 3531 0 
L 2947 0 
L 2266 2591 
L 1606 0 
L 1022 0 
L 56 3347 
L 672 3347 
z
" transform="scale(0.015625)"/>
      <path id="Helvetica-68" d="M 413 4606 
L 975 4606 
L 975 2894 
Q 1175 3147 1334 3250 
Q 1606 3428 2013 3428 
Q 2741 3428 3000 2919 
Q 3141 2641 3141 2147 
L 3141 0 
L 2563 0 
L 2563 2109 
Q 2563 2478 2469 2650 
Q 2316 2925 1894 2925 
Q 1544 2925 1259 2684 
Q 975 2444 975 1775 
L 975 0 
L 413 0 
L 413 4606 
z
" transform="scale(0.015625)"/>
     </defs>
     <use xlink:href="#Helvetica-73"/>
     <use xlink:href="#Helvetica-74" x="50"/>
     <use xlink:href="#Helvetica-65" x="77.783203"/>
     <use xlink:href="#Helvetica-70" x="133.398438"/>
     <use xlink:href="#Helvetica-6d" x="189.013672"/>
     <use xlink:href="#Helvetica-69" x="272.314453"/>
     <use xlink:href="#Helvetica-78" x="294.53125"/>
     <use xlink:href="#Helvetica-20" x="344.53125"/>
     <use xlink:href="#Helvetica-4c" x="372.314453"/>
     <use xlink:href="#Helvetica-43" x="427.929688"/>
     <use xlink:href="#Helvetica-41" x="500.146484"/>
     <use xlink:href="#Helvetica-2c" x="566.845703"/>
     <use xlink:href="#Helvetica-20" x="594.628906"/>
     <use xlink:href="#Helvetica-42" x="622.412109"/>
     <use xlink:href="#Helvetica-49" x="689.111328"/>
     <use xlink:href="#Helvetica-43" x="716.894531"/>
     <use xlink:href="#Helvetica-3d" x="789.111328"/>
     <use xlink:href="#Helvetica-31" x="847.509766"/>
     <use xlink:href="#Helvetica-33" x="903.125"/>
     <use xlink:href="#Helvetica-31" x="958.740234"/>
     <use xlink:href="#Helvetica-33" x="1014.355469"/>
     <use xlink:href="#Helvetica-31" x="1069.970703"/>
     <use xlink:href="#Helvetica-2e" x="1125.585938"/>
     <use xlink:href="#Helvetica-20" x="1153.369141"/>
     <use xlink:href="#Helvetica-4d" x="1181.152344"/>
     <use xlink:href="#Helvetica-6f" x="1264.453125"/>
     <use xlink:href="#Helvetica-64" x="1320.068359"/>
     <use xlink:href="#Helvetica-61" x="1375.683594"/>
     <use xlink:href="#Helvetica-6c" x="1431.298828"/>
     <use xlink:href="#Helvetica-20" x="1453.515625"/>
     <use xlink:href="#Helvetica-63" x="1481.298828"/>
     <use xlink:href="#Helvetica-6c" x="1531.298828"/>
     <use xlink:href="#Helvetica-61" x="1553.515625"/>
     <use xlink:href="#Helvetica-73" x="1609.130859"/>
     <use xlink:href="#Helvetica-73" x="1659.130859"/>
     <use xlink:href="#Helvetica-20" x="1709.130859"/>
     <use xlink:href="#Helvetica-69" x="1736.914062"/>
     <use xlink:href="#Helvetica-73" x="1759.130859"/>
     <use xlink:href="#Helvetica-20" x="1809.130859"/>
     <use xlink:href="#Helvetica-41" x="1836.914062"/>
     <use xlink:href="#Helvetica-73" x="1903.613281"/>
     <use xlink:href="#Helvetica-70" x="1953.613281"/>
     <use xlink:href="#Helvetica-69" x="2009.228516"/>
     <use xlink:href="#Helvetica-72" x="2031.445312"/>
     <use xlink:href="#Helvetica-61" x="2064.746094"/>
     <use xlink:href="#Helvetica-74" x="2120.361328"/>
     <use xlink:href="#Helvetica-69" x="2148.144531"/>
     <use xlink:href="#Helvetica-6f" x="2170.361328"/>
     <use xlink:href="#Helvetica-6e" x="2225.976562"/>
     <use xlink:href="#Helvetica-61" x="2281.591797"/>
     <use xlink:href="#Helvetica-6c" x="2337.207031"/>
     <use xlink:href="#Helvetica-3a" x="2359.423828"/>
     <use xlink:href="#Helvetica-20" x="2387.207031"/>
     <use xlink:href="#Helvetica-6c" x="2414.990234"/>
     <use xlink:href="#Helvetica-6f" x="2437.207031"/>
     <use xlink:href="#Helvetica-77" x="2492.822266"/>
     <use xlink:href="#Helvetica-20" x="2565.039062"/>
     <use xlink:href="#Helvetica-75" x="2592.822266"/>
     <use xlink:href="#Helvetica-73" x="2648.4375"/>
     <use xlink:href="#Helvetica-65" x="2698.4375"/>
     <use xlink:href="#Helvetica-20" x="2754.052734"/>
     <use xlink:href="#Helvetica-61" x="2781.835938"/>
     <use xlink:href="#Helvetica-63" x="2837.451172"/>
     <use xlink:href="#Helvetica-72" x="2887.451172"/>
     <use xlink:href="#Helvetica-6f" x="2920.751953"/>
     <use xlink:href="#Helvetica-73" x="2976.367188"/>
     <use xlink:href="#Helvetica-73" x="3026.367188"/>
     <use xlink:href="#Helvetica-20" x="3076.367188"/>
     <use xlink:href="#Helvetica-61" x="3104.150391"/>
     <use xlink:href="#Helvetica-6c" x="3159.765625"/>
     <use xlink:href="#Helvetica-6c" x="3181.982422"/>
     <use xlink:href="#Helvetica-20" x="3204.199219"/>
     <use xlink:href="#Helvetica-69" x="3231.982422"/>
     <use xlink:href="#Helvetica-74" x="3254.199219"/>
     <use xlink:href="#Helvetica-65" x="3281.982422"/>
     <use xlink:href="#Helvetica-6d" x="3337.597656"/>
     <use xlink:href="#Helvetica-73" x="3420.898438"/>
     <use xlink:href="#Helvetica-2c" x="3470.898438"/>
     <use xlink:href="#Helvetica-20" x="3498.681641"/>
     <use xlink:href="#Helvetica-68" x="3526.464844"/>
     <use xlink:href="#Helvetica-69" x="3582.080078"/>
     <use xlink:href="#Helvetica-67" x="3604.296875"/>
     <use xlink:href="#Helvetica-68" x="3659.912109"/>
     <use xlink:href="#Helvetica-20" x="3715.527344"/>
     <use xlink:href="#Helvetica-77" x="3743.310547"/>
     <use xlink:href="#Helvetica-61" x="3815.527344"/>
     <use xlink:href="#Helvetica-6e" x="3871.142578"/>
     <use xlink:href="#Helvetica-74" x="3926.757812"/>
     <use xlink:href="#Helvetica-20" x="3954.541016"/>
     <use xlink:href="#Helvetica-61" x="3982.324219"/>
     <use xlink:href="#Helvetica-63" x="4037.939453"/>
     <use xlink:href="#Helvetica-72" x="4087.939453"/>
     <use xlink:href="#Helvetica-6f" x="4121.240234"/>
     <use xlink:href="#Helvetica-73" x="4176.855469"/>
     <use xlink:href="#Helvetica-73" x="4226.855469"/>
     <use xlink:href="#Helvetica-20" x="4276.855469"/>
     <use xlink:href="#Helvetica-61" x="4304.638672"/>
     <use xlink:href="#Helvetica-6e" x="4360.253906"/>
     <use xlink:href="#Helvetica-61" x="4415.869141"/>
     <use xlink:href="#Helvetica-6c" x="4471.484375"/>
     <use xlink:href="#Helvetica-79" x="4493.701172"/>
     <use xlink:href="#Helvetica-74" x="4543.701172"/>
     <use xlink:href="#Helvetica-69" x="4571.484375"/>
     <use xlink:href="#Helvetica-63" x="4593.701172"/>
     <use xlink:href="#Helvetica-61" x="4643.701172"/>
     <use xlink:href="#Helvetica-6c" x="4699.316406"/>
     <use xlink:href="#Helvetica-20" x="4721.533203"/>
     <use xlink:href="#Helvetica-69" x="4749.316406"/>
     <use xlink:href="#Helvetica-74" x="4771.533203"/>
     <use xlink:href="#Helvetica-65" x="4799.316406"/>
     <use xlink:href="#Helvetica-6d" x="4854.931641"/>
     <use xlink:href="#Helvetica-73" x="4938.232422"/>
     <use xlink:href="#Helvetica-2e" x="4988.232422"/>
    </g>
   </g>
   <g id="legend_1">
    <g id="line2d_45">
     <path d="M 527.070938 377.947125 
L 537.070938 377.947125 
L 547.070938 377.947125 
" style="fill: none; stroke: #7e57c2; stroke-width: 2; stroke-linecap: square"/>
     <g>
      <use xlink:href="#m3c6c794286" x="537.070938" y="377.947125" style="fill: #7e57c2; stroke: #7e57c2"/>
     </g>
    </g>
    <g id="text_25">
     <!-- Class 2 (n=234) -->
     <g style="fill: #f0e5ec" transform="translate(555.070938 381.447125) scale(0.1 -0.1)">
      <use xlink:href="#Helvetica-43"/>
      <use xlink:href="#Helvetica-6c" x="72.216797"/>
      <use xlink:href="#Helvetica-61" x="94.433594"/>
      <use xlink:href="#Helvetica-73" x="150.048828"/>
      <use xlink:href="#Helvetica-73" x="200.048828"/>
      <use xlink:href="#Helvetica-20" x="250.048828"/>
      <use xlink:href="#Helvetica-32" x="277.832031"/>
      <use xlink:href="#Helvetica-20" x="333.447266"/>
      <use xlink:href="#Helvetica-28" x="361.230469"/>
      <use xlink:href="#Helvetica-6e" x="394.53125"/>
      <use xlink:href="#Helvetica-3d" x="450.146484"/>
      <use xlink:href="#Helvetica-32" x="508.544922"/>
      <use xlink:href="#Helvetica-33" x="564.160156"/>
      <use xlink:href="#Helvetica-34" x="619.775391"/>
      <use xlink:href="#Helvetica-29" x="675.390625"/>
     </g>
    </g>
    <g id="line2d_46">
     <path d="M 527.070938 392.3565 
L 537.070938 392.3565 
L 547.070938 392.3565 
" style="fill: none; stroke: #f5b041; stroke-width: 2; stroke-linecap: square"/>
     <g>
      <use xlink:href="#mb5dee7f999" x="537.070938" y="392.3565" style="fill: #f5b041; stroke: #f5b041"/>
     </g>
    </g>
    <g id="text_26">
     <!-- Class 0 (n=489) -->
     <g style="fill: #f0e5ec" transform="translate(555.070938 395.8565) scale(0.1 -0.1)">
      <defs>
       <path id="Helvetica-39" d="M 850 1081 
Q 875 616 1209 438 
Q 1381 344 1597 344 
Q 2000 344 2284 680 
Q 2569 1016 2688 2044 
Q 2500 1747 2223 1626 
Q 1947 1506 1628 1506 
Q 981 1506 604 1909 
Q 228 2313 228 2947 
Q 228 3556 600 4018 
Q 972 4481 1697 4481 
Q 2675 4481 3047 3600 
Q 3253 3116 3253 2388 
Q 3253 1566 3006 931 
Q 2597 -125 1619 -125 
Q 963 -125 622 219 
Q 281 563 281 1081 
L 850 1081 
z
M 1703 2000 
Q 2038 2000 2314 2220 
Q 2591 2441 2591 2991 
Q 2591 3484 2342 3726 
Q 2094 3969 1709 3969 
Q 1297 3969 1055 3692 
Q 813 3416 813 2953 
Q 813 2516 1025 2258 
Q 1238 2000 1703 2000 
z
" transform="scale(0.015625)"/>
      </defs>
      <use xlink:href="#Helvetica-43"/>
      <use xlink:href="#Helvetica-6c" x="72.216797"/>
      <use xlink:href="#Helvetica-61" x="94.433594"/>
      <use xlink:href="#Helvetica-73" x="150.048828"/>
      <use xlink:href="#Helvetica-73" x="200.048828"/>
      <use xlink:href="#Helvetica-20" x="250.048828"/>
      <use xlink:href="#Helvetica-30" x="277.832031"/>
      <use xlink:href="#Helvetica-20" x="333.447266"/>
      <use xlink:href="#Helvetica-28" x="361.230469"/>
      <use xlink:href="#Helvetica-6e" x="394.53125"/>
      <use xlink:href="#Helvetica-3d" x="450.146484"/>
      <use xlink:href="#Helvetica-34" x="508.544922"/>
      <use xlink:href="#Helvetica-38" x="564.160156"/>
      <use xlink:href="#Helvetica-39" x="619.775391"/>
      <use xlink:href="#Helvetica-29" x="675.390625"/>
     </g>
    </g>
    <g id="line2d_47">
     <path d="M 527.070938 406.7315 
L 537.070938 406.7315 
L 547.070938 406.7315 
" style="fill: none; stroke: #ec4899; stroke-width: 2; stroke-linecap: square"/>
     <g>
      <use xlink:href="#mea136b93a5" x="537.070938" y="406.7315" style="fill: #ec4899; stroke: #ec4899"/>
     </g>
    </g>
    <g id="text_27">
     <!-- Aspirational (n=207) -->
     <g style="fill: #f0e5ec" transform="translate(555.070938 410.2315) scale(0.1 -0.1)">
      <defs>
       <path id="Helvetica-37" d="M 3347 4400 
L 3347 3909 
Q 3131 3700 2773 3181 
Q 2416 2663 2141 2063 
Q 1869 1478 1728 997 
Q 1638 688 1494 0 
L 872 0 
Q 1084 1281 1809 2550 
Q 2238 3294 2709 3834 
L 234 3834 
L 234 4400 
L 3347 4400 
z
" transform="scale(0.015625)"/>
      </defs>
      <use xlink:href="#Helvetica-41"/>
      <use xlink:href="#Helvetica-73" x="66.699219"/>
      <use xlink:href="#Helvetica-70" x="116.699219"/>
      <use xlink:href="#Helvetica-69" x="172.314453"/>
      <use xlink:href="#Helvetica-72" x="194.53125"/>
      <use xlink:href="#Helvetica-61" x="227.832031"/>
      <use xlink:href="#Helvetica-74" x="283.447266"/>
      <use xlink:href="#Helvetica-69" x="311.230469"/>
      <use xlink:href="#Helvetica-6f" x="333.447266"/>
      <use xlink:href="#Helvetica-6e" x="389.0625"/>
      <use xlink:href="#Helvetica-61" x="444.677734"/>
      <use xlink:href="#Helvetica-6c" x="500.292969"/>
      <use xlink:href="#Helvetica-20" x="522.509766"/>
      <use xlink:href="#Helvetica-28" x="550.292969"/>
      <use xlink:href="#Helvetica-6e" x="583.59375"/>
      <use xlink:href="#Helvetica-3d" x="639.208984"/>
      <use xlink:href="#Helvetica-32" x="697.607422"/>
      <use xlink:href="#Helvetica-30" x="753.222656"/>
      <use xlink:href="#Helvetica-37" x="808.837891"/>
      <use xlink:href="#Helvetica-29" x="864.453125"/>
     </g>
    </g>
   </g>
  </g>
 </g>
 <defs>
  <clipPath id="p54db79e891">
   <rect x="40.04125" y="47.095875" width="613.8" height="415.8"/>
  </clipPath>
 </defs>
</svg>
