<?xml version="1.0" encoding="utf-8" standalone="no"?>
<!DOCTYPE svg PUBLIC "-//W3C//DTD SVG 1.1//EN"
  "http://www.w3.org/Graphics/SVG/1.1/DTD/svg11.dtd">
<svg xmlns:xlink="http://www.w3.org/1999/xlink" width="595.851087pt" height="423.432075pt" viewBox="0 0 595.851087 423.432075" xmlns="http://www.w3.org/2000/svg" version="1.1">
 <metadata>
  <rdf:RDF xmlns:dc="http://purl.org/dc/elements/1.1/" xmlns:cc="http://creativecommons.org/ns#" xmlns:rdf="http://www.w3.org/1999/02/22-rdf-syntax-ns#">
   <cc:Work>
    <dc:type rdf:resource="http://purl.org/dc/dcmitype/StillImage"/>
    <dc:date>2026-04-28T00:18:44.740192</dc:date>
    <dc:format>image/svg+xml</dc:format>
    <dc:creator>
     <cc:Agent>
      <dc:title>Matplotlib v3.9.2, https://matplotlib.org/</dc:title>
     </cc:Agent>
    </dc:creator>
   </cc:Work>
  </rdf:RDF>
 </metadata>
 <defs>
  <style type="text/css">*{stroke-linejoin: round; stroke-linecap: butt}</style>
 </defs>
 <g id="figure_1">
  <g id="patch_1">
   <path d="M 0 423.432075 
L 595.851087 423.432075 
L 595.851087 0 
L 0 0 
z
" style="fill: #1a1024"/>
  </g>
  <g id="axes_1">
   <g id="patch_2">
    <path d="M 45.217969 354.47625 
L 547.417969 354.47625 
L 547.417969 21.83625 
L 45.217969 21.83625 
z
" style="fill: #1a1024"/>
   </g>
   <g id="PathCollection_1">
    <defs>
     <path id="m00b7822a86" d="M 0 4.472136 
C 1.186024 4.472136 2.323632 4.000923 3.162278 3.162278 
C 4.000923 2.323632 4.472136 1.186024 4.472136 0 
C 4.472136 -1.186024 4.000923 -2.323632 3.162278 -3.162278 
C 2.323632 -4.000923 1.186024 -4.472136 0 -4.472136 
C -1.186024 -4.472136 -2.323632 -4.000923 -3.162278 -3.162278 
C -4.000923 -2.323632 -4.472136 -1.186024 -4.472136 0 
C -4.472136 1.186024 -4.000923 2.323632 -3.162278 3.162278 
C -2.323632 4.000923 -1.186024 4.472136 0 4.472136 
z
" style="stroke: #f0e5ec; stroke-width: 0.8"/>
    </defs>
    <g clip-path="url(#pa9f4673b98)">
     <use xlink:href="#m00b7822a86" x="404.621949" y="36.95625" style="fill: #e91e63; stroke: #f0e5ec; stroke-width: 0.8"/>
     <use xlink:href="#m00b7822a86" x="342.620904" y="221.807973" style="fill: #e91e63; stroke: #f0e5ec; stroke-width: 0.8"/>
     <use xlink:href="#m00b7822a86" x="144.128449" y="253.423996" style="fill: #e91e63; stroke: #f0e5ec; stroke-width: 0.8"/>
     <use xlink:href="#m00b7822a86" x="117.736096" y="238.328435" style="fill: #e91e63; stroke: #f0e5ec; stroke-width: 0.8"/>
     <use xlink:href="#m00b7822a86" x="432.436072" y="175.534918" style="fill: #e91e63; stroke: #f0e5ec; stroke-width: 0.8"/>
     <use xlink:href="#m00b7822a86" x="68.045241" y="339.35625" style="fill: #e91e63; stroke: #f0e5ec; stroke-width: 0.8"/>
     <use xlink:href="#m00b7822a86" x="327.053852" y="232.947763" style="fill: #e91e63; stroke: #f0e5ec; stroke-width: 0.8"/>
     <use xlink:href="#m00b7822a86" x="524.590696" y="225.555069" style="fill: #e91e63; stroke: #f0e5ec; stroke-width: 0.8"/>
     <use xlink:href="#m00b7822a86" x="230.875244" y="260.577302" style="fill: #e91e63; stroke: #f0e5ec; stroke-width: 0.8"/>
     <use xlink:href="#m00b7822a86" x="468.853255" y="228.455431" style="fill: #e91e63; stroke: #f0e5ec; stroke-width: 0.8"/>
    </g>
   </g>
   <g id="matplotlib.axis_1">
    <g id="xtick_1">
     <g id="line2d_1">
      <path d="M 125.210821 354.47625 
L 125.210821 21.83625 
" clip-path="url(#pa9f4673b98)" style="fill: none; stroke: #2c1f33; stroke-width: 0.5; stroke-linecap: square"/>
     </g>
     <g id="line2d_2">
      <defs>
       <path id="m1c80ef5033" d="M 0 0 
L 0 3.5 
" style="stroke: #e0d0da; stroke-width: 0.8"/>
      </defs>
      <g>
       <use xlink:href="#m1c80ef5033" x="125.210821" y="354.47625" style="fill: #e0d0da; stroke: #e0d0da; stroke-width: 0.8"/>
      </g>
     </g>
     <g id="text_1">
      <!-- −1.0 -->
      <g style="fill: #e0d0da" transform="translate(116.32754 367.932344) scale(0.09 -0.09)">
       <defs>
        <path id="Helvetica-2212" d="M 3547 1894 
L 3547 1369 
L 288 1369 
L 288 1894 
L 3547 1894 
z
" transform="scale(0.015625)"/>
        <path id="Helvetica-31" d="M 613 3169 
L 613 3600 
Q 1222 3659 1462 3798 
Q 1703 3938 1822 4456 
L 2266 4456 
L 2266 0 
L 1666 0 
L 1666 3169 
L 613 3169 
z
" transform="scale(0.015625)"/>
        <path id="Helvetica-2e" d="M 547 681 
L 1200 681 
L 1200 0 
L 547 0 
L 547 681 
z
" transform="scale(0.015625)"/>
        <path id="Helvetica-30" d="M 1731 4475 
Q 2600 4475 2988 3759 
Q 3288 3206 3288 2244 
Q 3288 1331 3016 734 
Q 2622 -122 1728 -122 
Q 922 -122 528 578 
Q 200 1163 200 2147 
Q 200 2909 397 3456 
Q 766 4475 1731 4475 
z
M 1725 391 
Q 2163 391 2422 778 
Q 2681 1166 2681 2222 
Q 2681 2984 2493 3476 
Q 2306 3969 1766 3969 
Q 1269 3969 1039 3501 
Q 809 3034 809 2125 
Q 809 1441 956 1025 
Q 1181 391 1725 391 
z
" transform="scale(0.015625)"/>
       </defs>
       <use xlink:href="#Helvetica-2212"/>
       <use xlink:href="#Helvetica-31" x="58.398438"/>
       <use xlink:href="#Helvetica-2e" x="114.013672"/>
       <use xlink:href="#Helvetica-30" x="141.796875"/>
      </g>
     </g>
    </g>
    <g id="xtick_2">
     <g id="line2d_3">
      <path d="M 208.330585 354.47625 
L 208.330585 21.83625 
" clip-path="url(#pa9f4673b98)" style="fill: none; stroke: #2c1f33; stroke-width: 0.5; stroke-linecap: square"/>
     </g>
     <g id="line2d_4">
      <g>
       <use xlink:href="#m1c80ef5033" x="208.330585" y="354.47625" style="fill: #e0d0da; stroke: #e0d0da; stroke-width: 0.8"/>
      </g>
     </g>
     <g id="text_2">
      <!-- −0.5 -->
      <g style="fill: #e0d0da" transform="translate(199.447304 367.932344) scale(0.09 -0.09)">
       <defs>
        <path id="Helvetica-35" d="M 791 1141 
Q 847 659 1238 475 
Q 1438 381 1700 381 
Q 2200 381 2440 700 
Q 2681 1019 2681 1406 
Q 2681 1875 2395 2131 
Q 2109 2388 1709 2388 
Q 1419 2388 1211 2275 
Q 1003 2163 856 1963 
L 369 1991 
L 709 4400 
L 3034 4400 
L 3034 3856 
L 1131 3856 
L 941 2613 
Q 1097 2731 1238 2791 
Q 1488 2894 1816 2894 
Q 2431 2894 2859 2497 
Q 3288 2100 3288 1491 
Q 3288 856 2895 371 
Q 2503 -113 1644 -113 
Q 1097 -113 676 195 
Q 256 503 206 1141 
L 791 1141 
z
" transform="scale(0.015625)"/>
       </defs>
       <use xlink:href="#Helvetica-2212"/>
       <use xlink:href="#Helvetica-30" x="58.398438"/>
       <use xlink:href="#Helvetica-2e" x="114.013672"/>
       <use xlink:href="#Helvetica-35" x="141.796875"/>
      </g>
     </g>
    </g>
    <g id="xtick_3">
     <g id="line2d_5">
      <path d="M 291.450349 354.47625 
L 291.450349 21.83625 
" clip-path="url(#pa9f4673b98)" style="fill: none; stroke: #2c1f33; stroke-width: 0.5; stroke-linecap: square"/>
     </g>
     <g id="line2d_6">
      <g>
       <use xlink:href="#m1c80ef5033" x="291.450349" y="354.47625" style="fill: #e0d0da; stroke: #e0d0da; stroke-width: 0.8"/>
      </g>
     </g>
     <g id="text_3">
      <!-- 0.0 -->
      <g style="fill: #e0d0da" transform="translate(285.195349 367.932344) scale(0.09 -0.09)">
       <use xlink:href="#Helvetica-30"/>
       <use xlink:href="#Helvetica-2e" x="55.615234"/>
       <use xlink:href="#Helvetica-30" x="83.398438"/>
      </g>
     </g>
    </g>
    <g id="xtick_4">
     <g id="line2d_7">
      <path d="M 374.570112 354.47625 
L 374.570112 21.83625 
" clip-path="url(#pa9f4673b98)" style="fill: none; stroke: #2c1f33; stroke-width: 0.5; stroke-linecap: square"/>
     </g>
     <g id="line2d_8">
      <g>
       <use xlink:href="#m1c80ef5033" x="374.570112" y="354.47625" style="fill: #e0d0da; stroke: #e0d0da; stroke-width: 0.8"/>
      </g>
     </g>
     <g id="text_4">
      <!-- 0.5 -->
      <g style="fill: #e0d0da" transform="translate(368.315112 367.932344) scale(0.09 -0.09)">
       <use xlink:href="#Helvetica-30"/>
       <use xlink:href="#Helvetica-2e" x="55.615234"/>
       <use xlink:href="#Helvetica-35" x="83.398438"/>
      </g>
     </g>
    </g>
    <g id="xtick_5">
     <g id="line2d_9">
      <path d="M 457.689876 354.47625 
L 457.689876 21.83625 
" clip-path="url(#pa9f4673b98)" style="fill: none; stroke: #2c1f33; stroke-width: 0.5; stroke-linecap: square"/>
     </g>
     <g id="line2d_10">
      <g>
       <use xlink:href="#m1c80ef5033" x="457.689876" y="354.47625" style="fill: #e0d0da; stroke: #e0d0da; stroke-width: 0.8"/>
      </g>
     </g>
     <g id="text_5">
      <!-- 1.0 -->
      <g style="fill: #e0d0da" transform="translate(451.434876 367.932344) scale(0.09 -0.09)">
       <use xlink:href="#Helvetica-31"/>
       <use xlink:href="#Helvetica-2e" x="55.615234"/>
       <use xlink:href="#Helvetica-30" x="83.398438"/>
      </g>
     </g>
    </g>
    <g id="xtick_6">
     <g id="line2d_11">
      <path d="M 540.80964 354.47625 
L 540.80964 21.83625 
" clip-path="url(#pa9f4673b98)" style="fill: none; stroke: #2c1f33; stroke-width: 0.5; stroke-linecap: square"/>
     </g>
     <g id="line2d_12">
      <g>
       <use xlink:href="#m1c80ef5033" x="540.80964" y="354.47625" style="fill: #e0d0da; stroke: #e0d0da; stroke-width: 0.8"/>
      </g>
     </g>
     <g id="text_6">
      <!-- 1.5 -->
      <g style="fill: #e0d0da" transform="translate(534.55464 367.932344) scale(0.09 -0.09)">
       <use xlink:href="#Helvetica-31"/>
       <use xlink:href="#Helvetica-2e" x="55.615234"/>
       <use xlink:href="#Helvetica-35" x="83.398438"/>
      </g>
     </g>
    </g>
    <g id="text_7">
     <!-- Difficulty (β; higher = rarer) -->
     <g style="fill: #f0e5ec" transform="translate(236.724219 381.098906) scale(0.1 -0.1)">
      <defs>
       <path id="Helvetica-44" d="M 2250 531 
Q 2566 531 2769 597 
Q 3131 719 3363 1066 
Q 3547 1344 3628 1778 
Q 3675 2038 3675 2259 
Q 3675 3113 3336 3584 
Q 2997 4056 2244 4056 
L 1141 4056 
L 1141 531 
L 2250 531 
z
M 516 4591 
L 2375 4591 
Q 3322 4591 3844 3919 
Q 4309 3313 4309 2366 
Q 4309 1634 4034 1044 
Q 3550 0 2369 0 
L 516 0 
L 516 4591 
z
" transform="scale(0.015625)"/>
       <path id="Helvetica-69" d="M 413 3331 
L 984 3331 
L 984 0 
L 413 0 
L 413 3331 
z
M 413 4591 
L 984 4591 
L 984 3953 
L 413 3953 
L 413 4591 
z
" transform="scale(0.015625)"/>
       <path id="Helvetica-66" d="M 553 3856 
Q 566 4206 675 4369 
Q 872 4656 1434 4656 
Q 1488 4656 1544 4653 
Q 1600 4650 1672 4644 
L 1672 4131 
Q 1584 4138 1545 4139 
Q 1506 4141 1472 4141 
Q 1216 4141 1166 4008 
Q 1116 3875 1116 3331 
L 1672 3331 
L 1672 2888 
L 1109 2888 
L 1109 0 
L 553 0 
L 553 2888 
L 88 2888 
L 88 3331 
L 553 3331 
L 553 3856 
z
" transform="scale(0.015625)"/>
       <path id="Helvetica-63" d="M 1703 3444 
Q 2269 3444 2623 3169 
Q 2978 2894 3050 2222 
L 2503 2222 
Q 2453 2531 2275 2736 
Q 2097 2941 1703 2941 
Q 1166 2941 934 2416 
Q 784 2075 784 1575 
Q 784 1072 996 728 
Q 1209 384 1666 384 
Q 2016 384 2220 598 
Q 2425 813 2503 1184 
L 3050 1184 
Q 2956 519 2581 211 
Q 2206 -97 1622 -97 
Q 966 -97 575 383 
Q 184 863 184 1581 
Q 184 2463 612 2953 
Q 1041 3444 1703 3444 
z
M 1616 3428 
L 1616 3428 
z
" transform="scale(0.015625)"/>
       <path id="Helvetica-75" d="M 975 3347 
L 975 1125 
Q 975 869 1056 706 
Q 1206 406 1616 406 
Q 2203 406 2416 931 
Q 2531 1213 2531 1703 
L 2531 3347 
L 3094 3347 
L 3094 0 
L 2563 0 
L 2569 494 
Q 2459 303 2297 172 
Q 1975 -91 1516 -91 
Q 800 -91 541 388 
Q 400 644 400 1072 
L 400 3347 
L 975 3347 
z
M 1747 3428 
L 1747 3428 
z
" transform="scale(0.015625)"/>
       <path id="Helvetica-6c" d="M 428 4591 
L 991 4591 
L 991 0 
L 428 0 
L 428 4591 
z
" transform="scale(0.015625)"/>
       <path id="Helvetica-74" d="M 525 4281 
L 1094 4281 
L 1094 3347 
L 1628 3347 
L 1628 2888 
L 1094 2888 
L 1094 703 
Q 1094 528 1213 469 
Q 1278 434 1431 434 
Q 1472 434 1519 436 
Q 1566 438 1628 444 
L 1628 0 
Q 1531 -28 1426 -40 
Q 1322 -53 1200 -53 
Q 806 -53 665 148 
Q 525 350 525 672 
L 525 2888 
L 72 2888 
L 72 3347 
L 525 3347 
L 525 4281 
z
" transform="scale(0.015625)"/>
       <path id="Helvetica-79" d="M 2503 3347 
L 3125 3347 
Q 3006 3025 2597 1878 
Q 2291 1016 2084 472 
Q 1597 -809 1397 -1090 
Q 1197 -1372 709 -1372 
Q 591 -1372 527 -1362 
Q 463 -1353 369 -1328 
L 369 -816 
Q 516 -856 581 -865 
Q 647 -875 697 -875 
Q 853 -875 926 -823 
Q 1000 -772 1050 -697 
Q 1066 -672 1162 -440 
Q 1259 -209 1303 -97 
L 66 3347 
L 703 3347 
L 1600 622 
L 2503 3347 
z
M 1597 3428 
L 1597 3428 
z
" transform="scale(0.015625)"/>
       <path id="Helvetica-20" transform="scale(0.015625)"/>
       <path id="Helvetica-28" d="M 1894 4666 
Q 1403 3713 1256 3263 
Q 1034 2578 1034 1681 
Q 1034 775 1288 25 
Q 1444 -438 1903 -1306 
L 1525 -1306 
Q 1069 -594 959 -397 
Q 850 -200 722 138 
Q 547 600 478 1125 
Q 444 1397 444 1644 
Q 444 2569 734 3291 
Q 919 3750 1503 4666 
L 1894 4666 
z
" transform="scale(0.015625)"/>
       <path id="Helvetica-3b2" d="M 1131 -1253 
L 563 -1253 
L 563 3134 
Q 563 4606 2009 4634 
Q 2578 4634 2956 4353 
Q 3334 4063 3341 3525 
Q 3334 2681 2559 2444 
L 2559 2431 
Q 3538 2278 3553 1288 
Q 3547 703 3206 325 
Q 2853 -56 2253 -63 
Q 1888 -63 1638 44 
Q 1381 153 1131 428 
L 1131 -1253 
z
M 1141 1544 
Q 1141 1319 1184 1113 
Q 1228 916 1331 750 
Q 1441 588 1638 500 
Q 1831 397 2131 397 
Q 2534 397 2759 659 
Q 2975 909 2975 1306 
Q 2969 1778 2681 1978 
Q 2394 2163 1966 2163 
Q 1803 2156 1638 2144 
L 1638 2625 
Q 1778 2625 1906 2631 
Q 2266 2638 2516 2828 
Q 2759 3016 2766 3431 
Q 2747 4172 1978 4172 
Q 1534 4166 1338 3909 
Q 1141 3647 1141 3200 
L 1141 1544 
z
" transform="scale(0.015625)"/>
       <path id="Helvetica-3b" d="M 709 -653 
Q 928 -613 1013 -363 
Q 1056 -231 1056 -75 
Q 1056 -59 1054 -48 
Q 1053 -38 1050 0 
L 709 0 
L 709 681 
L 1375 681 
L 1375 50 
Q 1375 -284 1278 -509 
Q 1116 -878 709 -950 
L 709 -653 
z
M 709 3303 
L 1375 3303 
L 1375 2622 
L 709 2622 
L 709 3303 
z
" transform="scale(0.015625)"/>
       <path id="Helvetica-68" d="M 413 4606 
L 975 4606 
L 975 2894 
Q 1175 3147 1334 3250 
Q 1606 3428 2013 3428 
Q 2741 3428 3000 2919 
Q 3141 2641 3141 2147 
L 3141 0 
L 2563 0 
L 2563 2109 
Q 2563 2478 2469 2650 
Q 2316 2925 1894 2925 
Q 1544 2925 1259 2684 
Q 975 2444 975 1775 
L 975 0 
L 413 0 
L 413 4606 
z
" transform="scale(0.015625)"/>
       <path id="Helvetica-67" d="M 1594 3406 
Q 1988 3406 2281 3213 
Q 2441 3103 2606 2894 
L 2606 3316 
L 3125 3316 
L 3125 272 
Q 3125 -366 2938 -734 
Q 2588 -1416 1616 -1416 
Q 1075 -1416 706 -1173 
Q 338 -931 294 -416 
L 866 -416 
Q 906 -641 1028 -763 
Q 1219 -950 1628 -950 
Q 2275 -950 2475 -494 
Q 2594 -225 2584 466 
Q 2416 209 2178 84 
Q 1941 -41 1550 -41 
Q 1006 -41 598 345 
Q 191 731 191 1622 
Q 191 2463 602 2934 
Q 1013 3406 1594 3406 
z
M 2606 1688 
Q 2606 2309 2350 2609 
Q 2094 2909 1697 2909 
Q 1103 2909 884 2353 
Q 769 2056 769 1575 
Q 769 1009 998 714 
Q 1228 419 1616 419 
Q 2222 419 2469 966 
Q 2606 1275 2606 1688 
z
M 1659 3428 
L 1659 3428 
z
" transform="scale(0.015625)"/>
       <path id="Helvetica-65" d="M 1806 3422 
Q 2163 3422 2497 3255 
Q 2831 3088 3006 2822 
Q 3175 2569 3231 2231 
Q 3281 2000 3281 1494 
L 828 1494 
Q 844 984 1069 676 
Q 1294 369 1766 369 
Q 2206 369 2469 659 
Q 2619 828 2681 1050 
L 3234 1050 
Q 3213 866 3089 639 
Q 2966 413 2813 269 
Q 2556 19 2178 -69 
Q 1975 -119 1719 -119 
Q 1094 -119 659 336 
Q 225 791 225 1609 
Q 225 2416 662 2919 
Q 1100 3422 1806 3422 
z
M 2703 1941 
Q 2669 2306 2544 2525 
Q 2313 2931 1772 2931 
Q 1384 2931 1121 2651 
Q 859 2372 844 1941 
L 2703 1941 
z
M 1753 3428 
L 1753 3428 
z
" transform="scale(0.015625)"/>
       <path id="Helvetica-72" d="M 428 3347 
L 963 3347 
L 963 2769 
Q 1028 2938 1284 3180 
Q 1541 3422 1875 3422 
Q 1891 3422 1928 3419 
Q 1966 3416 2056 3406 
L 2056 2813 
Q 2006 2822 1964 2825 
Q 1922 2828 1872 2828 
Q 1447 2828 1219 2554 
Q 991 2281 991 1925 
L 991 0 
L 428 0 
L 428 3347 
z
" transform="scale(0.015625)"/>
       <path id="Helvetica-3d" d="M 3547 2569 
L 3547 2044 
L 288 2044 
L 288 2569 
L 3547 2569 
z
M 3547 1228 
L 3547 694 
L 288 694 
L 288 1228 
L 3547 1228 
z
" transform="scale(0.015625)"/>
       <path id="Helvetica-61" d="M 844 891 
Q 844 647 1022 506 
Q 1200 366 1444 366 
Q 1741 366 2019 503 
Q 2488 731 2488 1250 
L 2488 1703 
Q 2384 1638 2221 1594 
Q 2059 1550 1903 1531 
L 1563 1488 
Q 1256 1447 1103 1359 
Q 844 1213 844 891 
z
M 2206 2028 
Q 2400 2053 2466 2191 
Q 2503 2266 2503 2406 
Q 2503 2694 2298 2823 
Q 2094 2953 1713 2953 
Q 1272 2953 1088 2716 
Q 984 2584 953 2325 
L 428 2325 
Q 444 2944 830 3186 
Q 1216 3428 1725 3428 
Q 2316 3428 2684 3203 
Q 3050 2978 3050 2503 
L 3050 575 
Q 3050 488 3086 434 
Q 3122 381 3238 381 
Q 3275 381 3322 386 
Q 3369 391 3422 400 
L 3422 -16 
Q 3291 -53 3222 -62 
Q 3153 -72 3034 -72 
Q 2744 -72 2613 134 
Q 2544 244 2516 444 
Q 2344 219 2022 53 
Q 1700 -113 1313 -113 
Q 847 -113 551 170 
Q 256 453 256 878 
Q 256 1344 547 1600 
Q 838 1856 1309 1916 
L 2206 2028 
z
M 1741 3428 
L 1741 3428 
z
" transform="scale(0.015625)"/>
       <path id="Helvetica-29" d="M 222 -1306 
Q 719 -338 863 106 
Q 1081 778 1081 1681 
Q 1081 2584 828 3334 
Q 672 3797 213 4666 
L 591 4666 
Q 1072 3897 1173 3717 
Q 1275 3538 1394 3222 
Q 1544 2831 1608 2450 
Q 1672 2069 1672 1716 
Q 1672 791 1378 66 
Q 1194 -400 613 -1306 
L 222 -1306 
z
" transform="scale(0.015625)"/>
      </defs>
      <use xlink:href="#Helvetica-44"/>
      <use xlink:href="#Helvetica-69" x="72.216797"/>
      <use xlink:href="#Helvetica-66" x="94.433594"/>
      <use xlink:href="#Helvetica-66" x="122.216797"/>
      <use xlink:href="#Helvetica-69" x="150"/>
      <use xlink:href="#Helvetica-63" x="172.216797"/>
      <use xlink:href="#Helvetica-75" x="222.216797"/>
      <use xlink:href="#Helvetica-6c" x="277.832031"/>
      <use xlink:href="#Helvetica-74" x="300.048828"/>
      <use xlink:href="#Helvetica-79" x="327.832031"/>
      <use xlink:href="#Helvetica-20" x="377.832031"/>
      <use xlink:href="#Helvetica-28" x="405.615234"/>
      <use xlink:href="#Helvetica-3b2" x="438.916016"/>
      <use xlink:href="#Helvetica-3b" x="500"/>
      <use xlink:href="#Helvetica-20" x="527.783203"/>
      <use xlink:href="#Helvetica-68" x="555.566406"/>
      <use xlink:href="#Helvetica-69" x="611.181641"/>
      <use xlink:href="#Helvetica-67" x="633.398438"/>
      <use xlink:href="#Helvetica-68" x="689.013672"/>
      <use xlink:href="#Helvetica-65" x="744.628906"/>
      <use xlink:href="#Helvetica-72" x="800.244141"/>
      <use xlink:href="#Helvetica-20" x="833.544922"/>
      <use xlink:href="#Helvetica-3d" x="861.328125"/>
      <use xlink:href="#Helvetica-20" x="919.726562"/>
      <use xlink:href="#Helvetica-72" x="947.509766"/>
      <use xlink:href="#Helvetica-61" x="980.810547"/>
      <use xlink:href="#Helvetica-72" x="1036.425781"/>
      <use xlink:href="#Helvetica-65" x="1069.726562"/>
      <use xlink:href="#Helvetica-72" x="1125.341797"/>
      <use xlink:href="#Helvetica-29" x="1158.642578"/>
     </g>
    </g>
   </g>
   <g id="matplotlib.axis_2">
    <g id="ytick_1">
     <g id="line2d_13">
      <path d="M 45.217969 333.304523 
L 547.417969 333.304523 
" clip-path="url(#pa9f4673b98)" style="fill: none; stroke: #2c1f33; stroke-width: 0.5; stroke-linecap: square"/>
     </g>
     <g id="line2d_14">
      <defs>
       <path id="m8a87d4f6c2" d="M 0 0 
L -3.5 0 
" style="stroke: #e0d0da; stroke-width: 0.8"/>
      </defs>
      <g>
       <use xlink:href="#m8a87d4f6c2" x="45.217969" y="333.304523" style="fill: #e0d0da; stroke: #e0d0da; stroke-width: 0.8"/>
      </g>
     </g>
     <g id="text_8">
      <!-- 0.50 -->
      <g style="fill: #e0d0da" transform="translate(20.703125 336.53257) scale(0.09 -0.09)">
       <use xlink:href="#Helvetica-30"/>
       <use xlink:href="#Helvetica-2e" x="55.615234"/>
       <use xlink:href="#Helvetica-35" x="83.398438"/>
       <use xlink:href="#Helvetica-30" x="139.013672"/>
      </g>
     </g>
    </g>
    <g id="ytick_2">
     <g id="line2d_15">
      <path d="M 45.217969 294.847418 
L 547.417969 294.847418 
" clip-path="url(#pa9f4673b98)" style="fill: none; stroke: #2c1f33; stroke-width: 0.5; stroke-linecap: square"/>
     </g>
     <g id="line2d_16">
      <g>
       <use xlink:href="#m8a87d4f6c2" x="45.217969" y="294.847418" style="fill: #e0d0da; stroke: #e0d0da; stroke-width: 0.8"/>
      </g>
     </g>
     <g id="text_9">
      <!-- 0.75 -->
      <g style="fill: #e0d0da" transform="translate(20.703125 298.075465) scale(0.09 -0.09)">
       <defs>
        <path id="Helvetica-37" d="M 3347 4400 
L 3347 3909 
Q 3131 3700 2773 3181 
Q 2416 2663 2141 2063 
Q 1869 1478 1728 997 
Q 1638 688 1494 0 
L 872 0 
Q 1084 1281 1809 2550 
Q 2238 3294 2709 3834 
L 234 3834 
L 234 4400 
L 3347 4400 
z
" transform="scale(0.015625)"/>
       </defs>
       <use xlink:href="#Helvetica-30"/>
       <use xlink:href="#Helvetica-2e" x="55.615234"/>
       <use xlink:href="#Helvetica-37" x="83.398438"/>
       <use xlink:href="#Helvetica-35" x="139.013672"/>
      </g>
     </g>
    </g>
    <g id="ytick_3">
     <g id="line2d_17">
      <path d="M 45.217969 256.390312 
L 547.417969 256.390312 
" clip-path="url(#pa9f4673b98)" style="fill: none; stroke: #2c1f33; stroke-width: 0.5; stroke-linecap: square"/>
     </g>
     <g id="line2d_18">
      <g>
       <use xlink:href="#m8a87d4f6c2" x="45.217969" y="256.390312" style="fill: #e0d0da; stroke: #e0d0da; stroke-width: 0.8"/>
      </g>
     </g>
     <g id="text_10">
      <!-- 1.00 -->
      <g style="fill: #e0d0da" transform="translate(20.703125 259.618359) scale(0.09 -0.09)">
       <use xlink:href="#Helvetica-31"/>
       <use xlink:href="#Helvetica-2e" x="55.615234"/>
       <use xlink:href="#Helvetica-30" x="83.398438"/>
       <use xlink:href="#Helvetica-30" x="139.013672"/>
      </g>
     </g>
    </g>
    <g id="ytick_4">
     <g id="line2d_19">
      <path d="M 45.217969 217.933207 
L 547.417969 217.933207 
" clip-path="url(#pa9f4673b98)" style="fill: none; stroke: #2c1f33; stroke-width: 0.5; stroke-linecap: square"/>
     </g>
     <g id="line2d_20">
      <g>
       <use xlink:href="#m8a87d4f6c2" x="45.217969" y="217.933207" style="fill: #e0d0da; stroke: #e0d0da; stroke-width: 0.8"/>
      </g>
     </g>
     <g id="text_11">
      <!-- 1.25 -->
      <g style="fill: #e0d0da" transform="translate(20.703125 221.161254) scale(0.09 -0.09)">
       <defs>
        <path id="Helvetica-32" d="M 200 0 
Q 231 578 439 1006 
Q 647 1434 1250 1784 
L 1850 2131 
Q 2253 2366 2416 2531 
Q 2672 2791 2672 3125 
Q 2672 3516 2437 3745 
Q 2203 3975 1813 3975 
Q 1234 3975 1013 3538 
Q 894 3303 881 2888 
L 309 2888 
Q 319 3472 525 3841 
Q 891 4491 1816 4491 
Q 2584 4491 2939 4075 
Q 3294 3659 3294 3150 
Q 3294 2613 2916 2231 
Q 2697 2009 2131 1694 
L 1703 1456 
Q 1397 1288 1222 1134 
Q 909 863 828 531 
L 3272 531 
L 3272 0 
L 200 0 
z
" transform="scale(0.015625)"/>
       </defs>
       <use xlink:href="#Helvetica-31"/>
       <use xlink:href="#Helvetica-2e" x="55.615234"/>
       <use xlink:href="#Helvetica-32" x="83.398438"/>
       <use xlink:href="#Helvetica-35" x="139.013672"/>
      </g>
     </g>
    </g>
    <g id="ytick_5">
     <g id="line2d_21">
      <path d="M 45.217969 179.476102 
L 547.417969 179.476102 
" clip-path="url(#pa9f4673b98)" style="fill: none; stroke: #2c1f33; stroke-width: 0.5; stroke-linecap: square"/>
     </g>
     <g id="line2d_22">
      <g>
       <use xlink:href="#m8a87d4f6c2" x="45.217969" y="179.476102" style="fill: #e0d0da; stroke: #e0d0da; stroke-width: 0.8"/>
      </g>
     </g>
     <g id="text_12">
      <!-- 1.50 -->
      <g style="fill: #e0d0da" transform="translate(20.703125 182.704149) scale(0.09 -0.09)">
       <use xlink:href="#Helvetica-31"/>
       <use xlink:href="#Helvetica-2e" x="55.615234"/>
       <use xlink:href="#Helvetica-35" x="83.398438"/>
       <use xlink:href="#Helvetica-30" x="139.013672"/>
      </g>
     </g>
    </g>
    <g id="ytick_6">
     <g id="line2d_23">
      <path d="M 45.217969 141.018996 
L 547.417969 141.018996 
" clip-path="url(#pa9f4673b98)" style="fill: none; stroke: #2c1f33; stroke-width: 0.5; stroke-linecap: square"/>
     </g>
     <g id="line2d_24">
      <g>
       <use xlink:href="#m8a87d4f6c2" x="45.217969" y="141.018996" style="fill: #e0d0da; stroke: #e0d0da; stroke-width: 0.8"/>
      </g>
     </g>
     <g id="text_13">
      <!-- 1.75 -->
      <g style="fill: #e0d0da" transform="translate(20.703125 144.247043) scale(0.09 -0.09)">
       <use xlink:href="#Helvetica-31"/>
       <use xlink:href="#Helvetica-2e" x="55.615234"/>
       <use xlink:href="#Helvetica-37" x="83.398438"/>
       <use xlink:href="#Helvetica-35" x="139.013672"/>
      </g>
     </g>
    </g>
    <g id="ytick_7">
     <g id="line2d_25">
      <path d="M 45.217969 102.561891 
L 547.417969 102.561891 
" clip-path="url(#pa9f4673b98)" style="fill: none; stroke: #2c1f33; stroke-width: 0.5; stroke-linecap: square"/>
     </g>
     <g id="line2d_26">
      <g>
       <use xlink:href="#m8a87d4f6c2" x="45.217969" y="102.561891" style="fill: #e0d0da; stroke: #e0d0da; stroke-width: 0.8"/>
      </g>
     </g>
     <g id="text_14">
      <!-- 2.00 -->
      <g style="fill: #e0d0da" transform="translate(20.703125 105.789938) scale(0.09 -0.09)">
       <use xlink:href="#Helvetica-32"/>
       <use xlink:href="#Helvetica-2e" x="55.615234"/>
       <use xlink:href="#Helvetica-30" x="83.398438"/>
       <use xlink:href="#Helvetica-30" x="139.013672"/>
      </g>
     </g>
    </g>
    <g id="ytick_8">
     <g id="line2d_27">
      <path d="M 45.217969 64.104786 
L 547.417969 64.104786 
" clip-path="url(#pa9f4673b98)" style="fill: none; stroke: #2c1f33; stroke-width: 0.5; stroke-linecap: square"/>
     </g>
     <g id="line2d_28">
      <g>
       <use xlink:href="#m8a87d4f6c2" x="45.217969" y="64.104786" style="fill: #e0d0da; stroke: #e0d0da; stroke-width: 0.8"/>
      </g>
     </g>
     <g id="text_15">
      <!-- 2.25 -->
      <g style="fill: #e0d0da" transform="translate(20.703125 67.332833) scale(0.09 -0.09)">
       <use xlink:href="#Helvetica-32"/>
       <use xlink:href="#Helvetica-2e" x="55.615234"/>
       <use xlink:href="#Helvetica-32" x="83.398438"/>
       <use xlink:href="#Helvetica-35" x="139.013672"/>
      </g>
     </g>
    </g>
    <g id="ytick_9">
     <g id="line2d_29">
      <path d="M 45.217969 25.647681 
L 547.417969 25.647681 
" clip-path="url(#pa9f4673b98)" style="fill: none; stroke: #2c1f33; stroke-width: 0.5; stroke-linecap: square"/>
     </g>
     <g id="line2d_30">
      <g>
       <use xlink:href="#m8a87d4f6c2" x="45.217969" y="25.647681" style="fill: #e0d0da; stroke: #e0d0da; stroke-width: 0.8"/>
      </g>
     </g>
     <g id="text_16">
      <!-- 2.50 -->
      <g style="fill: #e0d0da" transform="translate(20.703125 28.875727) scale(0.09 -0.09)">
       <use xlink:href="#Helvetica-32"/>
       <use xlink:href="#Helvetica-2e" x="55.615234"/>
       <use xlink:href="#Helvetica-35" x="83.398438"/>
       <use xlink:href="#Helvetica-30" x="139.013672"/>
      </g>
     </g>
    </g>
    <g id="text_17">
     <!-- Discrimination (α; higher = better separator) -->
     <g style="fill: #f0e5ec" transform="translate(14.490625 284.992969) rotate(-90) scale(0.1 -0.1)">
      <defs>
       <path id="Helvetica-73" d="M 747 1050 
Q 772 769 888 619 
Q 1100 347 1625 347 
Q 1938 347 2175 483 
Q 2413 619 2413 903 
Q 2413 1119 2222 1231 
Q 2100 1300 1741 1391 
L 1294 1503 
Q 866 1609 663 1741 
Q 300 1969 300 2372 
Q 300 2847 642 3140 
Q 984 3434 1563 3434 
Q 2319 3434 2653 2991 
Q 2863 2709 2856 2384 
L 2325 2384 
Q 2309 2575 2191 2731 
Q 1997 2953 1519 2953 
Q 1200 2953 1036 2831 
Q 872 2709 872 2509 
Q 872 2291 1088 2159 
Q 1213 2081 1456 2022 
L 1828 1931 
Q 2434 1784 2641 1647 
Q 2969 1431 2969 969 
Q 2969 522 2630 197 
Q 2291 -128 1597 -128 
Q 850 -128 539 211 
Q 228 550 206 1050 
L 747 1050 
z
M 1578 3428 
L 1578 3428 
z
" transform="scale(0.015625)"/>
       <path id="Helvetica-6d" d="M 413 3347 
L 969 3347 
L 969 2872 
Q 1169 3119 1331 3231 
Q 1609 3422 1963 3422 
Q 2363 3422 2606 3225 
Q 2744 3113 2856 2894 
Q 3044 3163 3297 3292 
Q 3550 3422 3866 3422 
Q 4541 3422 4784 2934 
Q 4916 2672 4916 2228 
L 4916 0 
L 4331 0 
L 4331 2325 
Q 4331 2659 4164 2784 
Q 3997 2909 3756 2909 
Q 3425 2909 3186 2687 
Q 2947 2466 2947 1947 
L 2947 0 
L 2375 0 
L 2375 2184 
Q 2375 2525 2294 2681 
Q 2166 2916 1816 2916 
Q 1497 2916 1236 2669 
Q 975 2422 975 1775 
L 975 0 
L 413 0 
L 413 3347 
z
" transform="scale(0.015625)"/>
       <path id="Helvetica-6e" d="M 413 3347 
L 947 3347 
L 947 2872 
Q 1184 3166 1450 3294 
Q 1716 3422 2041 3422 
Q 2753 3422 3003 2925 
Q 3141 2653 3141 2147 
L 3141 0 
L 2569 0 
L 2569 2109 
Q 2569 2416 2478 2603 
Q 2328 2916 1934 2916 
Q 1734 2916 1606 2875 
Q 1375 2806 1200 2600 
Q 1059 2434 1017 2257 
Q 975 2081 975 1753 
L 975 0 
L 413 0 
L 413 3347 
z
M 1734 3428 
L 1734 3428 
z
" transform="scale(0.015625)"/>
       <path id="Helvetica-6f" d="M 1741 363 
Q 2300 363 2508 786 
Q 2716 1209 2716 1728 
Q 2716 2197 2566 2491 
Q 2328 2953 1747 2953 
Q 1231 2953 997 2559 
Q 763 2166 763 1609 
Q 763 1075 997 719 
Q 1231 363 1741 363 
z
M 1763 3444 
Q 2409 3444 2856 3012 
Q 3303 2581 3303 1744 
Q 3303 934 2909 406 
Q 2516 -122 1688 -122 
Q 997 -122 590 345 
Q 184 813 184 1600 
Q 184 2444 612 2944 
Q 1041 3444 1763 3444 
z
M 1744 3428 
L 1744 3428 
z
" transform="scale(0.015625)"/>
       <path id="Helvetica-3b1" d="M 3347 703 
Q 3334 428 3525 434 
Q 3641 434 3700 475 
L 3700 -19 
Q 3628 -44 3513 -50 
Q 3391 -63 3309 -63 
Q 3084 -56 2956 103 
Q 2816 256 2816 475 
L 2803 475 
Q 2413 -63 1734 -63 
Q 1006 -50 647 459 
Q 281 953 281 1644 
Q 281 2350 634 2859 
Q 984 3378 1741 3391 
Q 2413 3391 2797 2847 
L 2809 2847 
L 2809 3328 
L 3347 3328 
L 3347 703 
z
M 1825 397 
Q 2075 397 2253 513 
Q 2425 622 2541 806 
Q 2766 1184 2766 1638 
Q 2766 2144 2559 2528 
Q 2350 2919 1797 2931 
Q 1306 2919 1081 2534 
Q 856 2156 856 1697 
Q 856 1209 1081 819 
Q 1306 409 1825 397 
z
" transform="scale(0.015625)"/>
       <path id="Helvetica-62" d="M 369 4606 
L 916 4606 
L 916 2941 
Q 1100 3181 1356 3307 
Q 1613 3434 1913 3434 
Q 2538 3434 2927 3004 
Q 3316 2575 3316 1738 
Q 3316 944 2931 419 
Q 2547 -106 1866 -106 
Q 1484 -106 1222 78 
Q 1066 188 888 428 
L 888 0 
L 369 0 
L 369 4606 
z
M 1831 391 
Q 2288 391 2514 753 
Q 2741 1116 2741 1709 
Q 2741 2238 2514 2584 
Q 2288 2931 1847 2931 
Q 1463 2931 1173 2647 
Q 884 2363 884 1709 
Q 884 1238 1003 944 
Q 1225 391 1831 391 
z
" transform="scale(0.015625)"/>
       <path id="Helvetica-70" d="M 1825 378 
Q 2219 378 2480 708 
Q 2741 1038 2741 1694 
Q 2741 2094 2625 2381 
Q 2406 2934 1825 2934 
Q 1241 2934 1025 2350 
Q 909 2038 909 1556 
Q 909 1169 1025 897 
Q 1244 378 1825 378 
z
M 369 3331 
L 916 3331 
L 916 2888 
Q 1084 3116 1284 3241 
Q 1569 3428 1953 3428 
Q 2522 3428 2919 2992 
Q 3316 2556 3316 1747 
Q 3316 653 2744 184 
Q 2381 -113 1900 -113 
Q 1522 -113 1266 53 
Q 1116 147 931 375 
L 931 -1334 
L 369 -1334 
L 369 3331 
z
" transform="scale(0.015625)"/>
      </defs>
      <use xlink:href="#Helvetica-44"/>
      <use xlink:href="#Helvetica-69" x="72.216797"/>
      <use xlink:href="#Helvetica-73" x="94.433594"/>
      <use xlink:href="#Helvetica-63" x="144.433594"/>
      <use xlink:href="#Helvetica-72" x="194.433594"/>
      <use xlink:href="#Helvetica-69" x="227.734375"/>
      <use xlink:href="#Helvetica-6d" x="249.951172"/>
      <use xlink:href="#Helvetica-69" x="333.251953"/>
      <use xlink:href="#Helvetica-6e" x="355.46875"/>
      <use xlink:href="#Helvetica-61" x="411.083984"/>
      <use xlink:href="#Helvetica-74" x="466.699219"/>
      <use xlink:href="#Helvetica-69" x="494.482422"/>
      <use xlink:href="#Helvetica-6f" x="516.699219"/>
      <use xlink:href="#Helvetica-6e" x="572.314453"/>
      <use xlink:href="#Helvetica-20" x="627.929688"/>
      <use xlink:href="#Helvetica-28" x="655.712891"/>
      <use xlink:href="#Helvetica-3b1" x="689.013672"/>
      <use xlink:href="#Helvetica-3b" x="750.097656"/>
      <use xlink:href="#Helvetica-20" x="777.880859"/>
      <use xlink:href="#Helvetica-68" x="805.664062"/>
      <use xlink:href="#Helvetica-69" x="861.279297"/>
      <use xlink:href="#Helvetica-67" x="883.496094"/>
      <use xlink:href="#Helvetica-68" x="939.111328"/>
      <use xlink:href="#Helvetica-65" x="994.726562"/>
      <use xlink:href="#Helvetica-72" x="1050.341797"/>
      <use xlink:href="#Helvetica-20" x="1083.642578"/>
      <use xlink:href="#Helvetica-3d" x="1111.425781"/>
      <use xlink:href="#Helvetica-20" x="1169.824219"/>
      <use xlink:href="#Helvetica-62" x="1197.607422"/>
      <use xlink:href="#Helvetica-65" x="1253.222656"/>
      <use xlink:href="#Helvetica-74" x="1308.837891"/>
      <use xlink:href="#Helvetica-74" x="1336.621094"/>
      <use xlink:href="#Helvetica-65" x="1364.404297"/>
      <use xlink:href="#Helvetica-72" x="1420.019531"/>
      <use xlink:href="#Helvetica-20" x="1453.320312"/>
      <use xlink:href="#Helvetica-73" x="1481.103516"/>
      <use xlink:href="#Helvetica-65" x="1531.103516"/>
      <use xlink:href="#Helvetica-70" x="1586.71875"/>
      <use xlink:href="#Helvetica-61" x="1642.333984"/>
      <use xlink:href="#Helvetica-72" x="1697.949219"/>
      <use xlink:href="#Helvetica-61" x="1731.25"/>
      <use xlink:href="#Helvetica-74" x="1786.865234"/>
      <use xlink:href="#Helvetica-6f" x="1814.648438"/>
      <use xlink:href="#Helvetica-72" x="1870.263672"/>
      <use xlink:href="#Helvetica-29" x="1903.564453"/>
     </g>
    </g>
   </g>
   <g id="line2d_31">
    <path d="M 45.217969 256.390312 
L 547.417969 256.390312 
" clip-path="url(#pa9f4673b98)" style="fill: none; stroke-dasharray: 2.59,1.12; stroke-dashoffset: 0; stroke: #6e5060; stroke-width: 0.7"/>
   </g>
   <g id="line2d_32">
    <path d="M 291.450349 354.47625 
L 291.450349 21.83625 
" clip-path="url(#pa9f4673b98)" style="fill: none; stroke: #6e5060; stroke-width: 0.7; stroke-linecap: square"/>
   </g>
   <g id="patch_3">
    <path d="M 45.217969 354.47625 
L 45.217969 21.83625 
" style="fill: none; stroke: #7a5a6e; stroke-width: 0.8; stroke-linejoin: miter; stroke-linecap: square"/>
   </g>
   <g id="patch_4">
    <path d="M 45.217969 354.47625 
L 547.417969 354.47625 
" style="fill: none; stroke: #7a5a6e; stroke-width: 0.8; stroke-linejoin: miter; stroke-linecap: square"/>
   </g>
   <g id="text_18">
    <!-- tech specialist -->
    <g style="fill: #f0e5ec" transform="translate(409.621949 31.95625) scale(0.085 -0.085)">
     <use xlink:href="#Helvetica-74"/>
     <use xlink:href="#Helvetica-65" x="27.783203"/>
     <use xlink:href="#Helvetica-63" x="83.398438"/>
     <use xlink:href="#Helvetica-68" x="133.398438"/>
     <use xlink:href="#Helvetica-20" x="189.013672"/>
     <use xlink:href="#Helvetica-73" x="216.796875"/>
     <use xlink:href="#Helvetica-70" x="266.796875"/>
     <use xlink:href="#Helvetica-65" x="322.412109"/>
     <use xlink:href="#Helvetica-63" x="378.027344"/>
     <use xlink:href="#Helvetica-69" x="428.027344"/>
     <use xlink:href="#Helvetica-61" x="450.244141"/>
     <use xlink:href="#Helvetica-6c" x="505.859375"/>
     <use xlink:href="#Helvetica-69" x="528.076172"/>
     <use xlink:href="#Helvetica-73" x="550.292969"/>
     <use xlink:href="#Helvetica-74" x="600.292969"/>
    </g>
   </g>
   <g id="text_19">
    <!-- MERL specialist -->
    <g style="fill: #f0e5ec" transform="translate(347.620904 216.807973) scale(0.085 -0.085)">
     <defs>
      <path id="Helvetica-4d" d="M 472 4591 
L 1363 4591 
L 2681 709 
L 3991 4591 
L 4872 4591 
L 4872 0 
L 4281 0 
L 4281 2709 
Q 4281 2850 4287 3175 
Q 4294 3500 4294 3872 
L 2984 0 
L 2369 0 
L 1050 3872 
L 1050 3731 
Q 1050 3563 1058 3217 
Q 1066 2872 1066 2709 
L 1066 0 
L 472 0 
L 472 4591 
z
" transform="scale(0.015625)"/>
      <path id="Helvetica-45" d="M 547 4591 
L 3894 4591 
L 3894 4028 
L 1153 4028 
L 1153 2634 
L 3688 2634 
L 3688 2103 
L 1153 2103 
L 1153 547 
L 3941 547 
L 3941 0 
L 547 0 
L 547 4591 
z
M 2244 4591 
L 2244 4591 
z
" transform="scale(0.015625)"/>
      <path id="Helvetica-52" d="M 2622 2488 
Q 3059 2488 3314 2663 
Q 3569 2838 3569 3294 
Q 3569 3784 3213 3963 
Q 3022 4056 2703 4056 
L 1184 4056 
L 1184 2488 
L 2622 2488 
z
M 563 4591 
L 2688 4591 
Q 3213 4591 3553 4438 
Q 4200 4144 4200 3353 
Q 4200 2941 4029 2678 
Q 3859 2416 3553 2256 
Q 3822 2147 3958 1969 
Q 4094 1791 4109 1391 
L 4131 775 
Q 4141 513 4175 384 
Q 4231 166 4375 103 
L 4375 0 
L 3613 0 
Q 3581 59 3562 153 
Q 3544 247 3531 516 
L 3494 1281 
Q 3472 1731 3159 1884 
Q 2981 1969 2600 1969 
L 1184 1969 
L 1184 0 
L 563 0 
L 563 4591 
z
" transform="scale(0.015625)"/>
      <path id="Helvetica-4c" d="M 488 4591 
L 1109 4591 
L 1109 547 
L 3434 547 
L 3434 0 
L 488 0 
L 488 4591 
z
" transform="scale(0.015625)"/>
     </defs>
     <use xlink:href="#Helvetica-4d"/>
     <use xlink:href="#Helvetica-45" x="83.300781"/>
     <use xlink:href="#Helvetica-52" x="150"/>
     <use xlink:href="#Helvetica-4c" x="222.216797"/>
     <use xlink:href="#Helvetica-20" x="277.832031"/>
     <use xlink:href="#Helvetica-73" x="305.615234"/>
     <use xlink:href="#Helvetica-70" x="355.615234"/>
     <use xlink:href="#Helvetica-65" x="411.230469"/>
     <use xlink:href="#Helvetica-63" x="466.845703"/>
     <use xlink:href="#Helvetica-69" x="516.845703"/>
     <use xlink:href="#Helvetica-61" x="539.0625"/>
     <use xlink:href="#Helvetica-6c" x="594.677734"/>
     <use xlink:href="#Helvetica-69" x="616.894531"/>
     <use xlink:href="#Helvetica-73" x="639.111328"/>
     <use xlink:href="#Helvetica-74" x="689.111328"/>
    </g>
   </g>
   <g id="text_20">
    <!-- cloud storage -->
    <g style="fill: #f0e5ec" transform="translate(149.128449 248.423996) scale(0.085 -0.085)">
     <defs>
      <path id="Helvetica-64" d="M 769 1634 
Q 769 1097 997 734 
Q 1225 372 1728 372 
Q 2119 372 2370 708 
Q 2622 1044 2622 1672 
Q 2622 2306 2362 2611 
Q 2103 2916 1722 2916 
Q 1297 2916 1033 2591 
Q 769 2266 769 1634 
z
M 1616 3406 
Q 2000 3406 2259 3244 
Q 2409 3150 2600 2916 
L 2600 4606 
L 3141 4606 
L 3141 0 
L 2634 0 
L 2634 466 
Q 2438 156 2169 18 
Q 1900 -119 1553 -119 
Q 994 -119 584 351 
Q 175 822 175 1603 
Q 175 2334 548 2870 
Q 922 3406 1616 3406 
z
" transform="scale(0.015625)"/>
     </defs>
     <use xlink:href="#Helvetica-63"/>
     <use xlink:href="#Helvetica-6c" x="50"/>
     <use xlink:href="#Helvetica-6f" x="72.216797"/>
     <use xlink:href="#Helvetica-75" x="127.832031"/>
     <use xlink:href="#Helvetica-64" x="183.447266"/>
     <use xlink:href="#Helvetica-20" x="239.0625"/>
     <use xlink:href="#Helvetica-73" x="266.845703"/>
     <use xlink:href="#Helvetica-74" x="316.845703"/>
     <use xlink:href="#Helvetica-6f" x="344.628906"/>
     <use xlink:href="#Helvetica-72" x="400.244141"/>
     <use xlink:href="#Helvetica-61" x="433.544922"/>
     <use xlink:href="#Helvetica-67" x="489.160156"/>
     <use xlink:href="#Helvetica-65" x="544.775391"/>
    </g>
   </g>
   <g id="text_21">
    <!-- data policy -->
    <g style="fill: #f0e5ec" transform="translate(122.736096 233.328435) scale(0.085 -0.085)">
     <use xlink:href="#Helvetica-64"/>
     <use xlink:href="#Helvetica-61" x="55.615234"/>
     <use xlink:href="#Helvetica-74" x="111.230469"/>
     <use xlink:href="#Helvetica-61" x="139.013672"/>
     <use xlink:href="#Helvetica-20" x="194.628906"/>
     <use xlink:href="#Helvetica-70" x="222.412109"/>
     <use xlink:href="#Helvetica-6f" x="278.027344"/>
     <use xlink:href="#Helvetica-6c" x="333.642578"/>
     <use xlink:href="#Helvetica-69" x="355.859375"/>
     <use xlink:href="#Helvetica-63" x="378.076172"/>
     <use xlink:href="#Helvetica-79" x="428.076172"/>
    </g>
   </g>
   <g id="text_22">
    <!-- data agreements -->
    <g style="fill: #f0e5ec" transform="translate(437.436072 170.534918) scale(0.085 -0.085)">
     <use xlink:href="#Helvetica-64"/>
     <use xlink:href="#Helvetica-61" x="55.615234"/>
     <use xlink:href="#Helvetica-74" x="111.230469"/>
     <use xlink:href="#Helvetica-61" x="139.013672"/>
     <use xlink:href="#Helvetica-20" x="194.628906"/>
     <use xlink:href="#Helvetica-61" x="222.412109"/>
     <use xlink:href="#Helvetica-67" x="278.027344"/>
     <use xlink:href="#Helvetica-72" x="333.642578"/>
     <use xlink:href="#Helvetica-65" x="366.943359"/>
     <use xlink:href="#Helvetica-65" x="422.558594"/>
     <use xlink:href="#Helvetica-6d" x="478.173828"/>
     <use xlink:href="#Helvetica-65" x="561.474609"/>
     <use xlink:href="#Helvetica-6e" x="617.089844"/>
     <use xlink:href="#Helvetica-74" x="672.705078"/>
     <use xlink:href="#Helvetica-73" x="700.488281"/>
    </g>
   </g>
   <g id="text_23">
    <!-- [D]: manual spreadsheets -->
    <g style="fill: #f0e5ec" transform="translate(73.045241 334.35625) scale(0.085 -0.085)">
     <defs>
      <path id="Helvetica-5b" d="M 400 4622 
L 1600 4622 
L 1600 4163 
L 931 4163 
L 931 -800 
L 1600 -800 
L 1600 -1259 
L 400 -1259 
L 400 4622 
z
" transform="scale(0.015625)"/>
      <path id="Helvetica-5d" d="M 147 -800 
L 813 -800 
L 813 4163 
L 147 4163 
L 147 4622 
L 1347 4622 
L 1347 -1259 
L 147 -1259 
L 147 -800 
z
" transform="scale(0.015625)"/>
      <path id="Helvetica-3a" d="M 709 3303 
L 1363 3303 
L 1363 2622 
L 709 2622 
L 709 3303 
z
M 709 681 
L 1363 681 
L 1363 0 
L 709 0 
L 709 681 
z
" transform="scale(0.015625)"/>
     </defs>
     <use xlink:href="#Helvetica-5b"/>
     <use xlink:href="#Helvetica-44" x="27.783203"/>
     <use xlink:href="#Helvetica-5d" x="100"/>
     <use xlink:href="#Helvetica-3a" x="127.783203"/>
     <use xlink:href="#Helvetica-20" x="155.566406"/>
     <use xlink:href="#Helvetica-6d" x="183.349609"/>
     <use xlink:href="#Helvetica-61" x="266.650391"/>
     <use xlink:href="#Helvetica-6e" x="322.265625"/>
     <use xlink:href="#Helvetica-75" x="377.880859"/>
     <use xlink:href="#Helvetica-61" x="433.496094"/>
     <use xlink:href="#Helvetica-6c" x="489.111328"/>
     <use xlink:href="#Helvetica-20" x="511.328125"/>
     <use xlink:href="#Helvetica-73" x="539.111328"/>
     <use xlink:href="#Helvetica-70" x="589.111328"/>
     <use xlink:href="#Helvetica-72" x="644.726562"/>
     <use xlink:href="#Helvetica-65" x="678.027344"/>
     <use xlink:href="#Helvetica-61" x="733.642578"/>
     <use xlink:href="#Helvetica-64" x="789.257812"/>
     <use xlink:href="#Helvetica-73" x="844.873047"/>
     <use xlink:href="#Helvetica-68" x="894.873047"/>
     <use xlink:href="#Helvetica-65" x="950.488281"/>
     <use xlink:href="#Helvetica-65" x="1006.103516"/>
     <use xlink:href="#Helvetica-74" x="1061.71875"/>
     <use xlink:href="#Helvetica-73" x="1089.501953"/>
    </g>
   </g>
   <g id="text_24">
    <!-- [D]: software -->
    <g style="fill: #f0e5ec" transform="translate(332.053852 227.947763) scale(0.085 -0.085)">
     <defs>
      <path id="Helvetica-77" d="M 672 3347 
L 1316 709 
L 1969 3347 
L 2600 3347 
L 3256 725 
L 3941 3347 
L 4503 3347 
L 3531 0 
L 2947 0 
L 2266 2591 
L 1606 0 
L 1022 0 
L 56 3347 
L 672 3347 
z
" transform="scale(0.015625)"/>
     </defs>
     <use xlink:href="#Helvetica-5b"/>
     <use xlink:href="#Helvetica-44" x="27.783203"/>
     <use xlink:href="#Helvetica-5d" x="100"/>
     <use xlink:href="#Helvetica-3a" x="127.783203"/>
     <use xlink:href="#Helvetica-20" x="155.566406"/>
     <use xlink:href="#Helvetica-73" x="183.349609"/>
     <use xlink:href="#Helvetica-6f" x="233.349609"/>
     <use xlink:href="#Helvetica-66" x="288.964844"/>
     <use xlink:href="#Helvetica-74" x="316.748047"/>
     <use xlink:href="#Helvetica-77" x="344.53125"/>
     <use xlink:href="#Helvetica-61" x="416.748047"/>
     <use xlink:href="#Helvetica-72" x="472.363281"/>
     <use xlink:href="#Helvetica-65" x="505.664062"/>
    </g>
   </g>
   <g id="text_25">
    <!-- [D]: audio/video -->
    <g style="fill: #f0e5ec" transform="translate(529.590696 220.555069) scale(0.085 -0.085)">
     <defs>
      <path id="Helvetica-2f" d="M 1456 4591 
L 1931 4591 
L 475 0 
L 0 0 
L 1456 4591 
z
" transform="scale(0.015625)"/>
      <path id="Helvetica-76" d="M 688 3347 
L 1581 622 
L 2516 3347 
L 3131 3347 
L 1869 0 
L 1269 0 
L 34 3347 
L 688 3347 
z
" transform="scale(0.015625)"/>
     </defs>
     <use xlink:href="#Helvetica-5b"/>
     <use xlink:href="#Helvetica-44" x="27.783203"/>
     <use xlink:href="#Helvetica-5d" x="100"/>
     <use xlink:href="#Helvetica-3a" x="127.783203"/>
     <use xlink:href="#Helvetica-20" x="155.566406"/>
     <use xlink:href="#Helvetica-61" x="183.349609"/>
     <use xlink:href="#Helvetica-75" x="238.964844"/>
     <use xlink:href="#Helvetica-64" x="294.580078"/>
     <use xlink:href="#Helvetica-69" x="350.195312"/>
     <use xlink:href="#Helvetica-6f" x="372.412109"/>
     <use xlink:href="#Helvetica-2f" x="428.027344"/>
     <use xlink:href="#Helvetica-76" x="455.810547"/>
     <use xlink:href="#Helvetica-69" x="505.810547"/>
     <use xlink:href="#Helvetica-64" x="528.027344"/>
     <use xlink:href="#Helvetica-65" x="583.642578"/>
     <use xlink:href="#Helvetica-6f" x="639.257812"/>
    </g>
   </g>
   <g id="text_26">
    <!-- [D]: devices -->
    <g style="fill: #f0e5ec" transform="translate(235.875244 255.577302) scale(0.085 -0.085)">
     <use xlink:href="#Helvetica-5b"/>
     <use xlink:href="#Helvetica-44" x="27.783203"/>
     <use xlink:href="#Helvetica-5d" x="100"/>
     <use xlink:href="#Helvetica-3a" x="127.783203"/>
     <use xlink:href="#Helvetica-20" x="155.566406"/>
     <use xlink:href="#Helvetica-64" x="183.349609"/>
     <use xlink:href="#Helvetica-65" x="238.964844"/>
     <use xlink:href="#Helvetica-76" x="294.580078"/>
     <use xlink:href="#Helvetica-69" x="344.580078"/>
     <use xlink:href="#Helvetica-63" x="366.796875"/>
     <use xlink:href="#Helvetica-65" x="416.796875"/>
     <use xlink:href="#Helvetica-73" x="472.412109"/>
    </g>
   </g>
   <g id="text_27">
    <!-- [D]: 100+ transcripts -->
    <g style="fill: #f0e5ec" transform="translate(473.853255 223.455431) scale(0.085 -0.085)">
     <defs>
      <path id="Helvetica-2b" d="M 288 1369 
L 288 1894 
L 1650 1894 
L 1650 3266 
L 2184 3266 
L 2184 1894 
L 3547 1894 
L 3547 1369 
L 2184 1369 
L 2184 0 
L 1650 0 
L 1650 1369 
L 288 1369 
z
" transform="scale(0.015625)"/>
     </defs>
     <use xlink:href="#Helvetica-5b"/>
     <use xlink:href="#Helvetica-44" x="27.783203"/>
     <use xlink:href="#Helvetica-5d" x="100"/>
     <use xlink:href="#Helvetica-3a" x="127.783203"/>
     <use xlink:href="#Helvetica-20" x="155.566406"/>
     <use xlink:href="#Helvetica-31" x="183.349609"/>
     <use xlink:href="#Helvetica-30" x="238.964844"/>
     <use xlink:href="#Helvetica-30" x="294.580078"/>
     <use xlink:href="#Helvetica-2b" x="350.195312"/>
     <use xlink:href="#Helvetica-20" x="408.59375"/>
     <use xlink:href="#Helvetica-74" x="436.376953"/>
     <use xlink:href="#Helvetica-72" x="464.160156"/>
     <use xlink:href="#Helvetica-61" x="497.460938"/>
     <use xlink:href="#Helvetica-6e" x="553.076172"/>
     <use xlink:href="#Helvetica-73" x="608.691406"/>
     <use xlink:href="#Helvetica-63" x="658.691406"/>
     <use xlink:href="#Helvetica-72" x="708.691406"/>
     <use xlink:href="#Helvetica-69" x="741.992188"/>
     <use xlink:href="#Helvetica-70" x="764.208984"/>
     <use xlink:href="#Helvetica-74" x="819.824219"/>
     <use xlink:href="#Helvetica-73" x="847.607422"/>
    </g>
   </g>
   <g id="text_28">
    <!-- girth.twopl_mml on 10 binary readiness items (n=886). All α &gt; 0.46 → readiness IS unidimensional. -->
    <g style="fill: #b5a0ab" transform="translate(45.217969 414.35145) scale(0.085 -0.085)">
     <defs>
      <path id="Helvetica-5f" d="M 0 -800 
L 0 -484 
L 3559 -484 
L 3559 -800 
L 0 -800 
z
" transform="scale(0.015625)"/>
      <path id="Helvetica-38" d="M 1741 2600 
Q 2113 2600 2322 2808 
Q 2531 3016 2531 3303 
Q 2531 3553 2331 3762 
Q 2131 3972 1722 3972 
Q 1316 3972 1134 3762 
Q 953 3553 953 3272 
Q 953 2956 1187 2778 
Q 1422 2600 1741 2600 
z
M 1775 384 
Q 2166 384 2423 595 
Q 2681 806 2681 1225 
Q 2681 1659 2415 1884 
Q 2150 2109 1734 2109 
Q 1331 2109 1076 1879 
Q 822 1650 822 1244 
Q 822 894 1055 639 
Q 1288 384 1775 384 
z
M 975 2384 
Q 741 2484 609 2619 
Q 363 2869 363 3269 
Q 363 3769 725 4128 
Q 1088 4488 1753 4488 
Q 2397 4488 2762 4148 
Q 3128 3809 3128 3356 
Q 3128 2938 2916 2678 
Q 2797 2531 2547 2391 
Q 2825 2263 2984 2097 
Q 3281 1784 3281 1284 
Q 3281 694 2884 283 
Q 2488 -128 1763 -128 
Q 1109 -128 657 226 
Q 206 581 206 1256 
Q 206 1653 400 1942 
Q 594 2231 975 2384 
z
" transform="scale(0.015625)"/>
      <path id="Helvetica-36" d="M 1872 4494 
Q 2622 4494 2917 4105 
Q 3213 3716 3213 3303 
L 2656 3303 
Q 2606 3569 2497 3719 
Q 2294 4000 1881 4000 
Q 1409 4000 1131 3564 
Q 853 3128 822 2316 
Q 1016 2600 1309 2741 
Q 1578 2866 1909 2866 
Q 2472 2866 2890 2506 
Q 3309 2147 3309 1434 
Q 3309 825 2912 354 
Q 2516 -116 1781 -116 
Q 1153 -116 697 361 
Q 241 838 241 1966 
Q 241 2800 444 3381 
Q 834 4494 1872 4494 
z
M 1831 384 
Q 2275 384 2495 682 
Q 2716 981 2716 1388 
Q 2716 1731 2519 2042 
Q 2322 2353 1803 2353 
Q 1441 2353 1167 2112 
Q 894 1872 894 1388 
Q 894 963 1142 673 
Q 1391 384 1831 384 
z
" transform="scale(0.015625)"/>
      <path id="Helvetica-41" d="M 2844 1881 
L 2147 3909 
L 1406 1881 
L 2844 1881 
z
M 1822 4591 
L 2525 4591 
L 4191 0 
L 3509 0 
L 3044 1375 
L 1228 1375 
L 731 0 
L 94 0 
L 1822 4591 
z
" transform="scale(0.015625)"/>
      <path id="Helvetica-3e" d="M 3741 1369 
L 88 -59 
L 88 503 
L 3072 1634 
L 88 2763 
L 88 3325 
L 3741 1894 
L 3741 1369 
z
" transform="scale(0.015625)"/>
      <path id="Helvetica-34" d="M 2116 1584 
L 2116 3613 
L 681 1584 
L 2116 1584 
z
M 2125 0 
L 2125 1094 
L 163 1094 
L 163 1644 
L 2213 4488 
L 2688 4488 
L 2688 1584 
L 3347 1584 
L 3347 1094 
L 2688 1094 
L 2688 0 
L 2125 0 
z
" transform="scale(0.015625)"/>
      <path id="Helvetica-2192" d="M 206 0 
L 206 4591 
L 3850 4591 
L 3850 0 
L 206 0 
z
M 3275 575 
L 3275 4016 
L 781 4016 
L 781 575 
L 3275 575 
z
" transform="scale(0.015625)"/>
      <path id="Helvetica-49" d="M 628 4591 
L 1256 4591 
L 1256 0 
L 628 0 
L 628 4591 
z
" transform="scale(0.015625)"/>
      <path id="Helvetica-53" d="M 894 1481 
Q 916 1091 1078 847 
Q 1388 391 2169 391 
Q 2519 391 2806 491 
Q 3363 684 3363 1184 
Q 3363 1559 3128 1719 
Q 2891 1875 2384 1991 
L 1763 2131 
Q 1153 2269 900 2434 
Q 463 2722 463 3294 
Q 463 3913 891 4309 
Q 1319 4706 2103 4706 
Q 2825 4706 3329 4357 
Q 3834 4009 3834 3244 
L 3250 3244 
Q 3203 3613 3050 3809 
Q 2766 4169 2084 4169 
Q 1534 4169 1293 3937 
Q 1053 3706 1053 3400 
Q 1053 3063 1334 2906 
Q 1519 2806 2169 2656 
L 2813 2509 
Q 3278 2403 3531 2219 
Q 3969 1897 3969 1284 
Q 3969 522 3414 194 
Q 2859 -134 2125 -134 
Q 1269 -134 784 303 
Q 300 738 309 1481 
L 894 1481 
z
M 2150 4716 
L 2150 4716 
z
" transform="scale(0.015625)"/>
     </defs>
     <use xlink:href="#Helvetica-67"/>
     <use xlink:href="#Helvetica-69" x="55.615234"/>
     <use xlink:href="#Helvetica-72" x="77.832031"/>
     <use xlink:href="#Helvetica-74" x="111.132812"/>
     <use xlink:href="#Helvetica-68" x="138.916016"/>
     <use xlink:href="#Helvetica-2e" x="194.53125"/>
     <use xlink:href="#Helvetica-74" x="222.314453"/>
     <use xlink:href="#Helvetica-77" x="250.097656"/>
     <use xlink:href="#Helvetica-6f" x="322.314453"/>
     <use xlink:href="#Helvetica-70" x="377.929688"/>
     <use xlink:href="#Helvetica-6c" x="433.544922"/>
     <use xlink:href="#Helvetica-5f" x="455.761719"/>
     <use xlink:href="#Helvetica-6d" x="511.376953"/>
     <use xlink:href="#Helvetica-6d" x="594.677734"/>
     <use xlink:href="#Helvetica-6c" x="677.978516"/>
     <use xlink:href="#Helvetica-20" x="700.195312"/>
     <use xlink:href="#Helvetica-6f" x="727.978516"/>
     <use xlink:href="#Helvetica-6e" x="783.59375"/>
     <use xlink:href="#Helvetica-20" x="839.208984"/>
     <use xlink:href="#Helvetica-31" x="866.992188"/>
     <use xlink:href="#Helvetica-30" x="922.607422"/>
     <use xlink:href="#Helvetica-20" x="978.222656"/>
     <use xlink:href="#Helvetica-62" x="1006.005859"/>
     <use xlink:href="#Helvetica-69" x="1061.621094"/>
     <use xlink:href="#Helvetica-6e" x="1083.837891"/>
     <use xlink:href="#Helvetica-61" x="1139.453125"/>
     <use xlink:href="#Helvetica-72" x="1195.068359"/>
     <use xlink:href="#Helvetica-79" x="1228.369141"/>
     <use xlink:href="#Helvetica-20" x="1278.369141"/>
     <use xlink:href="#Helvetica-72" x="1306.152344"/>
     <use xlink:href="#Helvetica-65" x="1339.453125"/>
     <use xlink:href="#Helvetica-61" x="1395.068359"/>
     <use xlink:href="#Helvetica-64" x="1450.683594"/>
     <use xlink:href="#Helvetica-69" x="1506.298828"/>
     <use xlink:href="#Helvetica-6e" x="1528.515625"/>
     <use xlink:href="#Helvetica-65" x="1584.130859"/>
     <use xlink:href="#Helvetica-73" x="1639.746094"/>
     <use xlink:href="#Helvetica-73" x="1689.746094"/>
     <use xlink:href="#Helvetica-20" x="1739.746094"/>
     <use xlink:href="#Helvetica-69" x="1767.529297"/>
     <use xlink:href="#Helvetica-74" x="1789.746094"/>
     <use xlink:href="#Helvetica-65" x="1817.529297"/>
     <use xlink:href="#Helvetica-6d" x="1873.144531"/>
     <use xlink:href="#Helvetica-73" x="1956.445312"/>
     <use xlink:href="#Helvetica-20" x="2006.445312"/>
     <use xlink:href="#Helvetica-28" x="2034.228516"/>
     <use xlink:href="#Helvetica-6e" x="2067.529297"/>
     <use xlink:href="#Helvetica-3d" x="2123.144531"/>
     <use xlink:href="#Helvetica-38" x="2181.542969"/>
     <use xlink:href="#Helvetica-38" x="2237.158203"/>
     <use xlink:href="#Helvetica-36" x="2292.773438"/>
     <use xlink:href="#Helvetica-29" x="2348.388672"/>
     <use xlink:href="#Helvetica-2e" x="2381.689453"/>
     <use xlink:href="#Helvetica-20" x="2409.472656"/>
     <use xlink:href="#Helvetica-41" x="2437.255859"/>
     <use xlink:href="#Helvetica-6c" x="2503.955078"/>
     <use xlink:href="#Helvetica-6c" x="2526.171875"/>
     <use xlink:href="#Helvetica-20" x="2548.388672"/>
     <use xlink:href="#Helvetica-3b1" x="2576.171875"/>
     <use xlink:href="#Helvetica-20" x="2637.255859"/>
     <use xlink:href="#Helvetica-3e" x="2665.039062"/>
     <use xlink:href="#Helvetica-20" x="2723.4375"/>
     <use xlink:href="#Helvetica-30" x="2751.220703"/>
     <use xlink:href="#Helvetica-2e" x="2806.835938"/>
     <use xlink:href="#Helvetica-34" x="2834.619141"/>
     <use xlink:href="#Helvetica-36" x="2890.234375"/>
     <use xlink:href="#Helvetica-20" x="2945.849609"/>
     <use xlink:href="#Helvetica-2192" x="2973.632812"/>
     <use xlink:href="#Helvetica-20" x="3037.011719"/>
     <use xlink:href="#Helvetica-72" x="3064.794922"/>
     <use xlink:href="#Helvetica-65" x="3098.095703"/>
     <use xlink:href="#Helvetica-61" x="3153.710938"/>
     <use xlink:href="#Helvetica-64" x="3209.326172"/>
     <use xlink:href="#Helvetica-69" x="3264.941406"/>
     <use xlink:href="#Helvetica-6e" x="3287.158203"/>
     <use xlink:href="#Helvetica-65" x="3342.773438"/>
     <use xlink:href="#Helvetica-73" x="3398.388672"/>
     <use xlink:href="#Helvetica-73" x="3448.388672"/>
     <use xlink:href="#Helvetica-20" x="3498.388672"/>
     <use xlink:href="#Helvetica-49" x="3526.171875"/>
     <use xlink:href="#Helvetica-53" x="3553.955078"/>
     <use xlink:href="#Helvetica-20" x="3620.654297"/>
     <use xlink:href="#Helvetica-75" x="3648.4375"/>
     <use xlink:href="#Helvetica-6e" x="3704.052734"/>
     <use xlink:href="#Helvetica-69" x="3759.667969"/>
     <use xlink:href="#Helvetica-64" x="3781.884766"/>
     <use xlink:href="#Helvetica-69" x="3837.5"/>
     <use xlink:href="#Helvetica-6d" x="3859.716797"/>
     <use xlink:href="#Helvetica-65" x="3943.017578"/>
     <use xlink:href="#Helvetica-6e" x="3998.632812"/>
     <use xlink:href="#Helvetica-73" x="4054.248047"/>
     <use xlink:href="#Helvetica-69" x="4104.248047"/>
     <use xlink:href="#Helvetica-6f" x="4126.464844"/>
     <use xlink:href="#Helvetica-6e" x="4182.080078"/>
     <use xlink:href="#Helvetica-61" x="4237.695312"/>
     <use xlink:href="#Helvetica-6c" x="4293.310547"/>
     <use xlink:href="#Helvetica-2e" x="4315.527344"/>
    </g>
   </g>
   <g id="text_29">
    <!-- 2-PL IRT on readiness items: tech_person is the strongest separator -->
    <g style="fill: #f0f0f0" transform="translate(45.217969 15.83625) scale(0.12 -0.12)">
     <defs>
      <path id="Helvetica-2d" d="M 266 2072 
L 1834 2072 
L 1834 1494 
L 266 1494 
L 266 2072 
z
" transform="scale(0.015625)"/>
      <path id="Helvetica-50" d="M 547 4591 
L 2613 4591 
Q 3225 4591 3600 4245 
Q 3975 3900 3975 3275 
Q 3975 2738 3640 2339 
Q 3306 1941 2613 1941 
L 1169 1941 
L 1169 0 
L 547 0 
L 547 4591 
z
M 3347 3272 
Q 3347 3778 2972 3959 
Q 2766 4056 2406 4056 
L 1169 4056 
L 1169 2466 
L 2406 2466 
Q 2825 2466 3086 2644 
Q 3347 2822 3347 3272 
z
" transform="scale(0.015625)"/>
      <path id="Helvetica-54" d="M 3828 4591 
L 3828 4044 
L 2281 4044 
L 2281 0 
L 1650 0 
L 1650 4044 
L 103 4044 
L 103 4591 
L 3828 4591 
z
" transform="scale(0.015625)"/>
     </defs>
     <use xlink:href="#Helvetica-32"/>
     <use xlink:href="#Helvetica-2d" x="55.615234"/>
     <use xlink:href="#Helvetica-50" x="88.916016"/>
     <use xlink:href="#Helvetica-4c" x="155.615234"/>
     <use xlink:href="#Helvetica-20" x="211.230469"/>
     <use xlink:href="#Helvetica-49" x="239.013672"/>
     <use xlink:href="#Helvetica-52" x="266.796875"/>
     <use xlink:href="#Helvetica-54" x="339.013672"/>
     <use xlink:href="#Helvetica-20" x="400.097656"/>
     <use xlink:href="#Helvetica-6f" x="427.880859"/>
     <use xlink:href="#Helvetica-6e" x="483.496094"/>
     <use xlink:href="#Helvetica-20" x="539.111328"/>
     <use xlink:href="#Helvetica-72" x="566.894531"/>
     <use xlink:href="#Helvetica-65" x="600.195312"/>
     <use xlink:href="#Helvetica-61" x="655.810547"/>
     <use xlink:href="#Helvetica-64" x="711.425781"/>
     <use xlink:href="#Helvetica-69" x="767.041016"/>
     <use xlink:href="#Helvetica-6e" x="789.257812"/>
     <use xlink:href="#Helvetica-65" x="844.873047"/>
     <use xlink:href="#Helvetica-73" x="900.488281"/>
     <use xlink:href="#Helvetica-73" x="950.488281"/>
     <use xlink:href="#Helvetica-20" x="1000.488281"/>
     <use xlink:href="#Helvetica-69" x="1028.271484"/>
     <use xlink:href="#Helvetica-74" x="1050.488281"/>
     <use xlink:href="#Helvetica-65" x="1078.271484"/>
     <use xlink:href="#Helvetica-6d" x="1133.886719"/>
     <use xlink:href="#Helvetica-73" x="1217.1875"/>
     <use xlink:href="#Helvetica-3a" x="1267.1875"/>
     <use xlink:href="#Helvetica-20" x="1294.970703"/>
     <use xlink:href="#Helvetica-74" x="1322.753906"/>
     <use xlink:href="#Helvetica-65" x="1350.537109"/>
     <use xlink:href="#Helvetica-63" x="1406.152344"/>
     <use xlink:href="#Helvetica-68" x="1456.152344"/>
     <use xlink:href="#Helvetica-5f" x="1511.767578"/>
     <use xlink:href="#Helvetica-70" x="1567.382812"/>
     <use xlink:href="#Helvetica-65" x="1622.998047"/>
     <use xlink:href="#Helvetica-72" x="1678.613281"/>
     <use xlink:href="#Helvetica-73" x="1711.914062"/>
     <use xlink:href="#Helvetica-6f" x="1761.914062"/>
     <use xlink:href="#Helvetica-6e" x="1817.529297"/>
     <use xlink:href="#Helvetica-20" x="1873.144531"/>
     <use xlink:href="#Helvetica-69" x="1900.927734"/>
     <use xlink:href="#Helvetica-73" x="1923.144531"/>
     <use xlink:href="#Helvetica-20" x="1973.144531"/>
     <use xlink:href="#Helvetica-74" x="2000.927734"/>
     <use xlink:href="#Helvetica-68" x="2028.710938"/>
     <use xlink:href="#Helvetica-65" x="2084.326172"/>
     <use xlink:href="#Helvetica-20" x="2139.941406"/>
     <use xlink:href="#Helvetica-73" x="2167.724609"/>
     <use xlink:href="#Helvetica-74" x="2217.724609"/>
     <use xlink:href="#Helvetica-72" x="2245.507812"/>
     <use xlink:href="#Helvetica-6f" x="2278.808594"/>
     <use xlink:href="#Helvetica-6e" x="2334.423828"/>
     <use xlink:href="#Helvetica-67" x="2390.039062"/>
     <use xlink:href="#Helvetica-65" x="2445.654297"/>
     <use xlink:href="#Helvetica-73" x="2501.269531"/>
     <use xlink:href="#Helvetica-74" x="2551.269531"/>
     <use xlink:href="#Helvetica-20" x="2579.052734"/>
     <use xlink:href="#Helvetica-73" x="2606.835938"/>
     <use xlink:href="#Helvetica-65" x="2656.835938"/>
     <use xlink:href="#Helvetica-70" x="2712.451172"/>
     <use xlink:href="#Helvetica-61" x="2768.066406"/>
     <use xlink:href="#Helvetica-72" x="2823.681641"/>
     <use xlink:href="#Helvetica-61" x="2856.982422"/>
     <use xlink:href="#Helvetica-74" x="2912.597656"/>
     <use xlink:href="#Helvetica-6f" x="2940.380859"/>
     <use xlink:href="#Helvetica-72" x="2995.996094"/>
    </g>
   </g>
  </g>
 </g>
 <defs>
  <clipPath id="pa9f4673b98">
   <rect x="45.217969" y="21.83625" width="502.2" height="332.64"/>
  </clipPath>
 </defs>
</svg>
